NotoSansSymbols2-Regular.ufo
<glyph name="blackRightDoubleTriangle" format="2">
  <advance width="910"/>
  <unicode hex="23E9"/>
  <note>
uni23E9
</note>
  <outline>
    <contour>
      <point x="476" y="70" type="line"/>
      <point x="773" y="338" type="line"/>
      <point x="476" y="606" type="line"/>
    </contour>
    <contour>
      <point x="137" y="70" type="line"/>
      <point x="434" y="338" type="line"/>
      <point x="137" y="606" type="line"/>
    </contour>
  </outline>
</glyph>
<glyph name="blackRightDoubleTriangleWithVerticalBar" format="2">
  <advance width="910"/>
  <unicode hex="23ED"/>
  <note>
uni23ED
</note>
  <outline>
    <contour>
      <point x="52" y="70" type="line"/>
      <point x="349" y="339" type="line"/>
      <point x="52" y="606" type="line"/>
    </contour>
    <contour>
      <point x="389" y="70" type="line"/>
      <point x="684" y="339" type="line"/>
      <point x="389" y="606" type="line"/>
    </contour>
    <contour>
      <point x="729" y="70" type="line"/>
      <point x="858" y="70" type="line"/>
      <point x="858" y="606" type="line"/>
      <point x="729" y="606" type="line"/>
    </contour>
  </outline>
</glyph>
<glyph name="blackLeftDoubleTriangleWithVerticalBar" format="2">
  <advance width="910"/>
  <unicode hex="23EE"/>
  <note>
uni23EE
</note>
  <outline>
    <contour>
      <point x="858" y="70" type="line"/>
      <point x="858" y="606" type="line"/>
      <point x="561" y="339" type="line"/>
    </contour>
    <contour>
      <point x="52" y="70" type="line"/>
      <point x="181" y="70" type="line"/>
      <point x="181" y="606" type="line"/>
      <point x="52" y="606" type="line"/>
    </contour>
    <contour>
      <point x="521" y="70" type="line"/>
      <point x="521" y="606" type="line"/>
      <point x="226" y="339" type="line"/>
    </contour>
  </outline>
</glyph>
<glyph name="blackMediumLeftTriangle" format="2">
  <advance width="586"/>
  <unicode hex="23F4"/>
  <outline>
    <contour>
      <point x="432" y="72" type="line"/>
      <point x="432" y="628" type="line"/>
      <point x="154" y="350" type="line"/>
    </contour>
  </outline>
</glyph>
<glyph name="blackMediumRightTriangle" format="2">
  <advance width="586"/>
  <unicode hex="23F5"/>
  <outline>
    <contour>
      <point x="154" y="628" type="line"/>
      <point x="154" y="72" type="line"/>
      <point x="432" y="350" type="line"/>
    </contour>
  </outline>
</glyph>
<glyph name="blackMediumDownTriangle" format="2">
  <advance width="586"/>
  <unicode hex="23F7"/>
  <outline>
    <contour>
      <point x="571" y="489" type="line"/>
      <point x="15" y="489" type="line"/>
      <point x="293" y="211" type="line"/>
    </contour>
  </outline>
</glyph>
<glyph name="blackSquareForStop" format="2">
  <advance width="910"/>
  <unicode hex="23F9"/>
  <outline>
    <contour>
      <point x="188" y="70" type="line"/>
      <point x="723" y="70" type="line"/>
      <point x="723" y="605" type="line"/>
      <point x="188" y="605" type="line"/>
    </contour>
  </outline>
</glyph>
<glyph name="blackSmallSquare" format="2">
  <advance width="350"/>
  <unicode hex="25AA"/>
  <note>
uni25AA
</note>
  <outline>
    <contour>
      <point x="51" y="238" type="line"/>
      <point x="299" y="238" type="line"/>
      <point x="299" y="486" type="line"/>
      <point x="51" y="486" type="line"/>
    </contour>
  </outline>
</glyph>
<glyph name="whiteParallelogram" format="2">
  <advance width="1000"/>
  <unicode hex="25B1"/>
  <note>
uni25B1
</note>
  <outline>
    <contour>
      <point x="3" y="63" type="line"/>
      <point x="933" y="63" type="line"/>
      <point x="997" y="364" type="line"/>
      <point x="67" y="364" type="line"/>
    </contour>
    <contour>
      <point x="48" y="100" type="line"/>
      <point x="96" y="327" type="line"/>
      <point x="952" y="327" type="line"/>
      <point x="904" y="100" type="line"/>
    </contour>
  </outline>
</glyph>
<glyph name="upBlackTriangle" format="2">
  <advance width="907"/>
  <unicode hex="25B2"/>
  <note>
triagup
</note>
  <outline>
    <contour>
      <point x="51" y="0" type="line"/>
      <point x="856" y="0" type="line"/>
      <point x="454" y="697" type="line"/>
    </contour>
  </outline>
</glyph>
<glyph name="downBlackTriangle" format="2">
  <advance width="907"/>
  <unicode hex="25BC"/>
  <note>
triagdn
</note>
  <outline>
    <contour>
      <point x="454" y="0" type="line"/>
      <point x="856" y="697" type="line"/>
      <point x="51" y="697" type="line"/>
    </contour>
  </outline>
</glyph>
<glyph name="leftHalfBlackCircle" format="2">
  <advance width="498"/>
  <unicode hex="25D6"/>
  <note>
uni25D6
</note>
  <outline>
    <contour>
      <point x="447" y="-34" type="curve"/>
      <point x="447" y="758" type="line"/>
      <point x="227" y="758"/>
      <point x="51" y="582"/>
      <point x="51" y="362" type="curve" smooth="yes"/>
      <point x="51" y="142"/>
      <point x="227" y="-34"/>
    </contour>
  </outline>
</glyph>
<glyph name="upperLeftTriangle" format="2">
  <advance width="700"/>
  <unicode hex="25F8"/>
  <note>
uni25F8
</note>
  <outline>
    <contour>
      <point x="649" y="715" type="line"/>
      <point x="51" y="715" type="line"/>
      <point x="51" y="117" type="line"/>
    </contour>
    <contour>
      <point x="545" y="673" type="line"/>
      <point x="93" y="221" type="line"/>
      <point x="93" y="673" type="line"/>
    </contour>
  </outline>
</glyph>
<glyph name="mediumBlackSmallSquare" format="2">
  <advance width="520"/>
  <unicode hex="25FE"/>
  <note>
uni25FE
</note>
  <outline>
    <contour>
      <point x="51" y="153" type="line"/>
      <point x="469" y="153" type="line"/>
      <point x="469" y="571" type="line"/>
      <point x="51" y="571" type="line"/>
    </contour>
  </outline>
</glyph>
<glyph name="ballotBox" format="2">
  <advance width="821"/>
  <unicode hex="2610"/>
  <note>
uni2610
</note>
  <outline>
    <contour>
      <point x="51" y="0" type="line"/>
      <point x="770" y="0" type="line"/>
      <point x="770" y="719" type="line"/>
      <point x="51" y="719" type="line"/>
    </contour>
    <contour>
      <point x="111" y="60" type="line"/>
      <point x="111" y="659" type="line"/>
      <point x="710" y="659" type="line"/>
      <point x="710" y="60" type="line"/>
    </contour>
  </outline>
</glyph>
<glyph name="heavenTrigram" format="2">
  <advance width="940"/>
  <unicode hex="2630"/>
  <note>
uni2630
</note>
  <outline>
    <contour>
      <point x="98" y="523" type="line"/>
      <point x="842" y="523" type="line"/>
      <point x="842" y="634" type="line"/>
      <point x="98" y="634" type="line"/>
    </contour>
    <contour>
      <point x="98" y="67" type="line"/>
      <point x="842" y="67" type="line"/>
      <point x="842" y="178" type="line"/>
      <point x="98" y="178" type="line"/>
    </contour>
    <contour>
      <point x="98" y="295" type="line"/>
      <point x="842" y="295" type="line"/>
      <point x="842" y="406" type="line"/>
      <point x="98" y="406" type="line"/>
    </contour>
  </outline>
</glyph>
<glyph name="monogramForYin" format="2">
  <advance width="940"/>
  <unicode hex="268B"/>
  <note>
uni268B
</note>
  <outline>
    <contour>
      <point x="546" y="295" type="line"/>
      <point x="842" y="295" type="line"/>
      <point x="842" y="406" type="line"/>
      <point x="546" y="406" type="line"/>
    </contour>
    <contour>
      <point x="98" y="295" type="line"/>
      <point x="394" y="295" type="line"/>
      <point x="394" y="406" type="line"/>
      <point x="98" y="406" type="line"/>
    </contour>
  </outline>
</glyph>
<glyph name="turnedBlackShogiPiece" format="2">
  <advance width="628"/>
  <unicode hex="26CA"/>
  <note>
uni26CA
</note>
  <outline>
    <contour>
      <point x="314" y="-4" type="line"/>
      <point x="532" y="120" type="line"/>
      <point x="577" y="529" type="line"/>
      <point x="51" y="529" type="line"/>
      <point x="96" y="120" type="line"/>
    </contour>
  </outline>
</glyph>
<glyph name="lightVerticalBar" format="2">
  <advance width="210"/>
  <unicode hex="2758"/>
  <note>
uni2758
</note>
  <outline>
    <contour>
      <point x="51" y="-92" type="line"/>
      <point x="159" y="-92" type="line"/>
      <point x="159" y="792" type="line"/>
      <point x="51" y="792" type="line"/>
    </contour>
  </outline>
</glyph>
<glyph name="heavyleftpointinganglequotationmarkornament" format="2">
  <advance width="553"/>
  <unicode hex="276E"/>
  <note>
uni276E
</note>
  <outline>
    <contour>
      <point x="304" y="-74" type="line"/>
      <point x="502" y="-74" type="line"/>
      <point x="243" y="362" type="line"/>
      <point x="502" y="798" type="line"/>
      <point x="303" y="798" type="line"/>
      <point x="51" y="362" type="line"/>
    </contour>
  </outline>
</glyph>
<glyph name="northWestWhiteArrow" format="2">
  <advance width="696"/>
  <unicode hex="2B01"/>
  <note>
uni2B01
</note>
  <outline>
    <contour>
      <point x="465" y="6" type="line"/>
      <point x="645" y="186" type="line"/>
      <point x="339" y="492" type="line"/>
      <point x="447" y="600" type="line"/>
      <point x="51" y="600" type="line"/>
      <point x="51" y="204" type="line"/>
      <point x="159" y="312" type="line"/>
    </contour>
    <contour>
      <point x="465" y="48" type="line"/>
      <point x="159" y="355" type="line"/>
      <point x="81" y="277" type="line"/>
      <point x="81" y="570" type="line"/>
      <point x="374" y="570" type="line"/>
      <point x="296" y="492" type="line"/>
      <point x="603" y="186" type="line"/>
    </contour>
  </outline>
</glyph>
<glyph name="blackMediumDiamond" format="2">
  <advance width="847"/>
  <unicode hex="2B25"/>
  <note>
uni2B25
</note>
  <outline>
    <contour>
      <point x="423" y="-10" type="line"/>
      <point x="796" y="362" type="line"/>
      <point x="423" y="735" type="line"/>
      <point x="51" y="362" type="line"/>
    </contour>
  </outline>
</glyph>
<glyph name="blackSmallDiamond" format="2">
  <advance width="367"/>
  <unicode hex="2B29"/>
  <note>
uni2B29
</note>
  <outline>
    <contour>
      <point x="184" y="230" type="line"/>
      <point x="316" y="362" type="line"/>
      <point x="184" y="495" type="line"/>
      <point x="51" y="362" type="line"/>
    </contour>
  </outline>
</glyph>
<glyph name="blackSmallLozenge" format="2">
  <advance width="316"/>
  <unicode hex="2B2A"/>
  <note>
uni2B2A
</note>
  <outline>
    <contour>
      <point x="158" y="182" type="line"/>
      <point x="265" y="363" type="line"/>
      <point x="158" y="542" type="line"/>
      <point x="51" y="363" type="line"/>
    </contour>
  </outline>
</glyph>
<glyph name="updblTriangleArrow" format="2">
  <advance width="643"/>
  <unicode hex="2B85"/>
  <outline>
    <contour>
      <point x="416" y="42" type="line"/>
      <point x="520" y="42" type="line"/>
      <point x="520" y="496" type="line"/>
      <point x="592" y="496" type="line"/>
      <point x="468" y="694" type="line"/>
      <point x="344" y="496" type="line"/>
      <point x="416" y="496" type="line"/>
    </contour>
    <contour>
      <point x="123" y="42" type="line"/>
      <point x="227" y="42" type="line"/>
      <point x="227" y="496" type="line"/>
      <point x="299" y="496" type="line"/>
      <point x="175" y="694" type="line"/>
      <point x="51" y="496" type="line"/>
      <point x="123" y="496" type="line"/>
    </contour>
  </outline>
</glyph>
<glyph name="threeDLeftLightedDownEquilateralArrowhead" format="2">
  <advance width="855"/>
  <unicode hex="2B9B"/>
  <outline>
    <contour>
      <point x="427" y="-8" type="line"/>
      <point x="804" y="635" type="line"/>
      <point x="427" y="461" type="line"/>
      <point x="51" y="635" type="line"/>
    </contour>
    <contour>
      <point x="427" y="54" type="line"/>
      <point x="128" y="565" type="line"/>
      <point x="427" y="427" type="line"/>
    </contour>
  </outline>
</glyph>
<glyph name="downTriangleArrowWithLongTipRight" format="2">
  <advance width="754"/>
  <unicode hex="2BA1"/>
  <outline>
    <contour>
      <point x="505" y="69" type="line"/>
      <point x="703" y="208" type="line"/>
      <point x="505" y="346" type="line"/>
      <point x="505" y="259" type="line"/>
      <point x="154" y="259" type="line"/>
      <point x="154" y="610" type="line"/>
      <point x="51" y="610" type="line"/>
      <point x="51" y="156" type="line"/>
      <point x="505" y="156" type="line"/>
    </contour>
  </outline>
</glyph>
<glyph name="bottomHalfBlackCircle" format="2">
  <advance width="894"/>
  <unicode hex="2BCB"/>
  <outline>
    <contour>
      <point x="447" y="-34" type="curve" smooth="yes"/>
      <point x="667" y="-34"/>
      <point x="843" y="142"/>
      <point x="843" y="362" type="curve"/>
      <point x="51" y="362" type="line"/>
      <point x="51" y="142"/>
      <point x="227" y="-34"/>
    </contour>
  </outline>
</glyph>
<glyph name="cyrenaictwodrachmas-ancientGreek" format="2">
  <advance width="654"/>
  <unicode hex="1015D"/>
  <note>
u1015D
</note>
  <outline>
    <contour>
      <point x="97" y="0" type="line"/>
      <point x="604" y="0" type="line"/>
      <point x="604" y="79" type="line"/>
      <point x="187" y="79" type="line"/>
      <point x="187" y="635" type="line"/>
      <point x="604" y="635" type="line"/>
      <point x="604" y="714" type="line"/>
      <point x="97" y="714" type="line"/>
    </contour>
  </outline>
</glyph>
<glyph name="troezenianfive-ancientGreek" format="2">
  <advance width="687"/>
  <unicode hex="1015F"/>
  <note>
u1015F
</note>
  <outline>
    <contour>
      <point x="97" y="0" type="line"/>
      <point x="187" y="0" type="line"/>
      <point x="187" y="635" type="line"/>
      <point x="547" y="635" type="line"/>
      <point x="547" y="433" type="line"/>
      <point x="637" y="433" type="line"/>
      <point x="637" y="714" type="line"/>
      <point x="97" y="714" type="line"/>
    </contour>
    <contour>
      <point x="427" y="267" type="line"/>
      <point x="427" y="334" type="line"/>
      <point x="337" y="420" type="line"/>
      <point x="427" y="506" type="line"/>
      <point x="427" y="573" type="line"/>
      <point x="289" y="443" type="line"/>
      <point x="289" y="397" type="line"/>
    </contour>
  </outline>
</glyph>
<glyph name="epidaureanfivehundred-ancientGreek" format="2">
  <advance width="963"/>
  <unicode hex="1016C"/>
  <note>
u1016C
</note>
  <outline>
    <contour>
      <point x="97" y="0" type="line"/>
      <point x="187" y="0" type="line"/>
      <point x="187" y="635" type="line"/>
      <point x="543" y="635" type="line"/>
      <point x="543" y="386" type="line"/>
      <point x="924" y="386" type="line"/>
      <point x="924" y="464" type="line"/>
      <point x="633" y="464" type="line"/>
      <point x="633" y="714" type="line"/>
      <point x="97" y="714" type="line"/>
    </contour>
  </outline>
</glyph>
<glyph name="dupondius-roman" format="2">
  <advance width="623"/>
  <unicode hex="10199"/>
  <note>
uni10199
</note>
  <outline>
    <contour>
      <point x="97" y="0" type="line"/>
      <point x="187" y="0" type="line"/>
      <point x="187" y="333" type="line"/>
      <point x="436" y="333" type="line"/>
      <point x="436" y="0" type="line"/>
      <point x="526" y="0" type="line"/>
      <point x="526" y="333" type="line"/>
      <point x="613" y="333" type="line"/>
      <point x="613" y="412" type="line"/>
      <point x="526" y="412" type="line"/>
      <point x="526" y="714" type="line"/>
      <point x="436" y="714" type="line"/>
      <point x="436" y="412" type="line"/>
      <point x="187" y="412" type="line"/>
      <point x="187" y="714" type="line"/>
      <point x="97" y="714" type="line"/>
      <point x="97" y="412" type="line"/>
      <point x="10" y="412" type="line"/>
      <point x="10" y="333" type="line"/>
      <point x="97" y="333" type="line"/>
    </contour>
  </outline>
</glyph>
<glyph name="u1D365" format="2">
  <advance width="816"/>
  <unicode hex="1D365"/>
  <note>
u1D365
</note>
  <outline>
    <contour>
      <point x="51" y="0" type="line"/>
      <point x="765" y="0" type="line"/>
      <point x="765" y="78" type="line"/>
      <point x="447" y="78" type="line"/>
      <point x="447" y="718" type="line"/>
      <point x="369" y="718" type="line"/>
      <point x="369" y="78" type="line"/>
      <point x="51" y="78" type="line"/>
    </contour>
  </outline>
</glyph>
<glyph name="u1D369" format="2">
  <advance width="180"/>
  <unicode hex="1D369"/>
  <note>
u1D369
</note>
  <outline>
    <contour>
      <point x="51" y="0" type="line"/>
      <point x="129" y="0" type="line"/>
      <point x="129" y="718" type="line"/>
      <point x="51" y="718" type="line"/>
    </contour>
  </outline>
</glyph>
<glyph name="u1D372" format="2">
  <advance width="816"/>
  <unicode hex="1D372"/>
  <outline>
    <contour>
      <point x="51" y="640" type="line"/>
      <point x="765" y="640" type="line"/>
      <point x="765" y="718" type="line"/>
      <point x="51" y="718" type="line"/>
    </contour>
  </outline>
</glyph>
<glyph name="u1D375" format="2">
  <advance width="816"/>
  <unicode hex="1D375"/>
  <outline>
    <contour>
      <point x="369" y="0" type="line"/>
      <point x="447" y="0" type="line"/>
      <point x="447" y="640" type="line"/>
      <point x="765" y="640" type="line"/>
      <point x="765" y="718" type="line"/>
      <point x="51" y="718" type="line"/>
      <point x="51" y="640" type="line"/>
      <point x="369" y="640" type="line"/>
    </contour>
    <contour>
      <point x="139" y="0" type="line"/>
      <point x="217" y="0" type="line"/>
      <point x="217" y="478" type="line"/>
      <point x="139" y="478" type="line"/>
    </contour>
    <contour>
      <point x="369" y="320" type="line"/>
      <point x="765" y="320" type="line"/>
      <point x="765" y="398" type="line"/>
      <point x="369" y="398" type="line"/>
    </contour>
  </outline>
</glyph>
<glyph name="uprightRepeatArrow" format="2">
  <advance width="738"/>
  <unicode hex="1F503"/>
  <outline>
    <contour>
      <point x="514" y="134" type="line"/>
      <point x="584" y="134" type="line"/>
      <point x="584" y="591" type="line" smooth="yes"/>
      <point x="584" y="740"/>
      <point x="506" y="826"/>
      <point x="369" y="826" type="curve" smooth="yes"/>
      <point x="299" y="826"/>
      <point x="255" y="804"/>
      <point x="228" y="782" type="curve"/>
      <point x="271" y="726" type="line"/>
      <point x="293" y="744"/>
      <point x="323" y="756"/>
      <point x="369" y="756" type="curve" smooth="yes"/>
      <point x="466" y="756"/>
      <point x="514" y="702"/>
      <point x="514" y="591" type="curve" smooth="yes"/>
    </contour>
    <contour>
      <point x="369" y="-60" type="curve" smooth="yes"/>
      <point x="428" y="-60"/>
      <point x="474" y="-45"/>
      <point x="510" y="-16" type="curve"/>
      <point x="467" y="40" type="line"/>
      <point x="452" y="28"/>
      <point x="425" y="10"/>
      <point x="369" y="10" type="curve" smooth="yes"/>
      <point x="272" y="10"/>
      <point x="224" y="64"/>
      <point x="224" y="175" type="curve" smooth="yes"/>
      <point x="224" y="632" type="line"/>
      <point x="154" y="632" type="line"/>
      <point x="154" y="175" type="line" smooth="yes"/>
      <point x="154" y="26"/>
      <point x="232" y="-60"/>
    </contour>
    <contour>
      <point x="549" y="19" type="line"/>
      <point x="687" y="200" type="line"/>
      <point x="411" y="200" type="line"/>
    </contour>
    <contour>
      <point x="51" y="566" type="line"/>
      <point x="327" y="566" type="line"/>
      <point x="189" y="747" type="line"/>
    </contour>
  </outline>
</glyph>
<glyph name="emptyPage" format="2">
  <advance width="804"/>
  <unicode hex="1F5CC"/>
  <outline>
    <contour>
      <point x="51" y="-50" type="line"/>
      <point x="753" y="-50" type="line"/>
      <point x="753" y="833" type="line"/>
      <point x="51" y="833" type="line"/>
    </contour>
    <contour>
      <point x="76" y="-24" type="line"/>
      <point x="76" y="808" type="line"/>
      <point x="727" y="808" type="line"/>
      <point x="727" y="-24" type="line"/>
    </contour>
  </outline>
</glyph>
<glyph name="minimize" format="2">
  <advance width="708"/>
  <unicode hex="1F5D5"/>
  <outline>
    <contour>
      <point x="51" y="151" type="line"/>
      <point x="657" y="151" type="line"/>
      <point x="657" y="293" type="line"/>
      <point x="51" y="293" type="line"/>
    </contour>
  </outline>
</glyph>
<glyph name="u1F6D6" format="2">
  <advance width="1000"/>
  <unicode hex="1F6D6"/>
  <outline>
    <contour>
      <point x="547" y="258" type="curve" smooth="yes"/>
      <point x="585" y="258"/>
      <point x="618" y="264"/>
      <point x="633" y="274" type="curve"/>
      <point x="633" y="288"/>
      <point x="634" y="300"/>
      <point x="634" y="314" type="curve" smooth="yes"/>
      <point x="634" y="348"/>
      <point x="631" y="396"/>
      <point x="626" y="440" type="curve"/>
      <point x="638" y="442" type="line"/>
      <point x="649" y="393"/>
      <point x="657" y="332"/>
      <point x="659" y="283" type="curve"/>
      <point x="677" y="272"/>
      <point x="708" y="265"/>
      <point x="740" y="265" type="curve" smooth="yes"/>
      <point x="769" y="265"/>
      <point x="799" y="271"/>
      <point x="818" y="281" type="curve"/>
      <point x="812" y="380"/>
      <point x="779" y="492"/>
      <point x="731" y="573" type="curve"/>
      <point x="740" y="579" type="line"/>
      <point x="793" y="504"/>
      <point x="833" y="394"/>
      <point x="843" y="293" type="curve"/>
      <point x="852" y="286"/>
      <point x="868" y="282"/>
      <point x="884" y="282" type="curve" smooth="yes"/>
      <point x="906" y="282"/>
      <point x="926" y="289"/>
      <point x="936" y="300" type="curve"/>
      <point x="936" y="586"/>
      <point x="768" y="785"/>
      <point x="500" y="818" type="curve"/>
      <point x="231" y="785"/>
      <point x="64" y="586"/>
      <point x="64" y="300" type="curve"/>
      <point x="92" y="290"/>
      <point x="130" y="283"/>
      <point x="162" y="283" type="curve" smooth="yes"/>
      <point x="185" y="283"/>
      <point x="208" y="285"/>
      <point x="222" y="288" type="curve"/>
      <point x="221" y="347"/>
      <point x="232" y="419"/>
      <point x="250" y="477" type="curve"/>
      <point x="259" y="475" type="line"/>
      <point x="252" y="436"/>
      <point x="247" y="390"/>
      <point x="247" y="354" type="curve" smooth="yes"/>
      <point x="247" y="337"/>
      <point x="249" y="307"/>
      <point x="252" y="276" type="curve"/>
      <point x="274" y="268"/>
      <point x="308" y="263"/>
      <point x="339" y="263" type="curve" smooth="yes"/>
      <point x="374" y="263"/>
      <point x="408" y="270"/>
      <point x="427" y="281" type="curve"/>
      <point x="427" y="297"/>
      <point x="426" y="313"/>
      <point x="426" y="328" type="curve" smooth="yes"/>
      <point x="426" y="423"/>
      <point x="436" y="519"/>
      <point x="453" y="581" type="curve"/>
      <point x="464" y="579" type="line"/>
      <point x="457" y="512"/>
      <point x="452" y="438"/>
      <point x="452" y="384" type="curve" smooth="yes"/>
      <point x="452" y="349"/>
      <point x="453" y="307"/>
      <point x="456" y="271" type="curve"/>
      <point x="474" y="263"/>
      <point x="509" y="258"/>
    </contour>
    <contour>
      <point x="136" y="0" type="line"/>
      <point x="865" y="0" type="line"/>
      <point x="865" y="256" type="line"/>
      <point x="858" y="257"/>
      <point x="849" y="259"/>
      <point x="839" y="263" type="curve"/>
      <point x="816" y="249"/>
      <point x="778" y="241"/>
      <point x="741" y="241" type="curve" smooth="yes"/>
      <point x="714" y="241"/>
      <point x="681" y="248"/>
      <point x="656" y="258" type="curve"/>
      <point x="634" y="246"/>
      <point x="605" y="238"/>
      <point x="576" y="236" type="curve"/>
      <point x="576" y="35" type="line"/>
      <point x="424" y="35" type="line"/>
      <point x="424" y="255" type="line"/>
      <point x="394" y="246"/>
      <point x="358" y="240"/>
      <point x="331" y="240" type="curve" smooth="yes"/>
      <point x="293" y="240"/>
      <point x="248" y="249"/>
      <point x="216" y="263" type="curve"/>
      <point x="178" y="260"/>
      <point x="153" y="259"/>
      <point x="136" y="259" type="curve"/>
    </contour>
  </outline>
</glyph>
<glyph name="u1F6FC" format="2">
  <advance width="1000"/>
  <unicode hex="1F6FC"/>
  <outline>
    <contour>
      <point x="110" y="145" type="curve"/>
      <point x="302" y="145" type="line"/>
      <point x="302" y="226" type="line"/>
      <point x="413" y="226"/>
      <point x="507" y="145"/>
      <point x="681" y="145" type="curve" smooth="yes"/>
      <point x="824" y="145"/>
      <point x="898" y="175"/>
      <point x="898" y="228" type="curve" smooth="yes"/>
      <point x="898" y="264"/>
      <point x="881" y="284"/>
      <point x="830" y="315" type="curve" smooth="yes"/>
      <point x="774" y="349"/>
      <point x="678" y="396"/>
      <point x="608" y="452" type="curve"/>
      <point x="594" y="438"/>
      <point x="575" y="425"/>
      <point x="555" y="416" type="curve"/>
      <point x="556" y="415"/>
      <point x="556" y="414"/>
      <point x="556" y="410" type="curve" smooth="yes"/>
      <point x="556" y="395"/>
      <point x="544" y="383"/>
      <point x="529" y="383" type="curve" smooth="yes"/>
      <point x="514" y="383"/>
      <point x="502" y="395"/>
      <point x="502" y="410" type="curve" smooth="yes"/>
      <point x="502" y="425"/>
      <point x="514" y="437"/>
      <point x="529" y="437" type="curve" smooth="yes"/>
      <point x="535" y="437"/>
      <point x="541" y="435"/>
      <point x="545" y="432" type="curve"/>
      <point x="562" y="442"/>
      <point x="578" y="455"/>
      <point x="589" y="468" type="curve"/>
      <point x="565" y="486"/>
      <point x="544" y="506"/>
      <point x="531" y="522" type="curve"/>
      <point x="517" y="514"/>
      <point x="497" y="506"/>
      <point x="472" y="498" type="curve"/>
      <point x="471" y="484"/>
      <point x="459" y="473"/>
      <point x="445" y="473" type="curve" smooth="yes"/>
      <point x="430" y="473"/>
      <point x="418" y="485"/>
      <point x="418" y="500" type="curve" smooth="yes"/>
      <point x="418" y="515"/>
      <point x="430" y="527"/>
      <point x="445" y="527" type="curve" smooth="yes"/>
      <point x="454" y="527"/>
      <point x="463" y="522"/>
      <point x="467" y="515" type="curve"/>
      <point x="490" y="525"/>
      <point x="507" y="534"/>
      <point x="518" y="543" type="curve"/>
      <point x="504" y="569"/>
      <point x="495" y="593"/>
      <point x="486" y="628" type="curve"/>
      <point x="471" y="619"/>
      <point x="454" y="612"/>
      <point x="428" y="604" type="curve"/>
      <point x="427" y="590"/>
      <point x="415" y="579"/>
      <point x="401" y="579" type="curve" smooth="yes"/>
      <point x="386" y="579"/>
      <point x="374" y="591"/>
      <point x="374" y="606" type="curve" smooth="yes"/>
      <point x="374" y="621"/>
      <point x="386" y="633"/>
      <point x="401" y="633" type="curve" smooth="yes"/>
      <point x="410" y="633"/>
      <point x="418" y="628"/>
      <point x="423" y="621" type="curve"/>
      <point x="448" y="632"/>
      <point x="466" y="642"/>
      <point x="480" y="653" type="curve"/>
      <point x="472" y="692"/>
      <point x="469" y="724"/>
      <point x="469" y="761" type="curve"/>
      <point x="146" y="724" type="line"/>
      <point x="139" y="584"/>
      <point x="109" y="441"/>
      <point x="102" y="315" type="curve"/>
      <point x="208" y="312"/>
      <point x="308" y="305"/>
      <point x="401" y="269" type="curve"/>
      <point x="401" y="252" type="line"/>
      <point x="320" y="278"/>
      <point x="233" y="289"/>
      <point x="101" y="289" type="curve"/>
      <point x="101" y="241"/>
      <point x="104" y="191"/>
    </contour>
    <contour>
      <point x="207" y="-47" type="curve" smooth="yes"/>
      <point x="256" y="-47"/>
      <point x="296" y="-7"/>
      <point x="296" y="42" type="curve" smooth="yes"/>
      <point x="296" y="91"/>
      <point x="257" y="130"/>
      <point x="207" y="130" type="curve" smooth="yes"/>
      <point x="156" y="130"/>
      <point x="117" y="91"/>
      <point x="117" y="42" type="curve" smooth="yes"/>
      <point x="117" y="-7"/>
      <point x="157" y="-47"/>
    </contour>
    <contour>
      <point x="207" y="1" type="curve" smooth="yes"/>
      <point x="185" y="1"/>
      <point x="168" y="18"/>
      <point x="168" y="40" type="curve" smooth="yes"/>
      <point x="168" y="61"/>
      <point x="185" y="78"/>
      <point x="207" y="78" type="curve" smooth="yes"/>
      <point x="228" y="78"/>
      <point x="245" y="61"/>
      <point x="245" y="40" type="curve" smooth="yes"/>
      <point x="245" y="18"/>
      <point x="228" y="1"/>
    </contour>
    <contour>
      <point x="325" y="145" type="line"/>
      <point x="527" y="145" type="line"/>
      <point x="527" y="149" type="line"/>
      <point x="455" y="161"/>
      <point x="390" y="201"/>
      <point x="325" y="205" type="curve"/>
    </contour>
    <contour>
      <point x="712" y="-47" type="curve" smooth="yes"/>
      <point x="761" y="-47"/>
      <point x="801" y="-7"/>
      <point x="801" y="42" type="curve" smooth="yes"/>
      <point x="801" y="91"/>
      <point x="762" y="130"/>
      <point x="712" y="130" type="curve" smooth="yes"/>
      <point x="661" y="130"/>
      <point x="622" y="91"/>
      <point x="622" y="42" type="curve" smooth="yes"/>
      <point x="622" y="-7"/>
      <point x="662" y="-47"/>
    </contour>
    <contour>
      <point x="712" y="1" type="curve" smooth="yes"/>
      <point x="690" y="1"/>
      <point x="673" y="18"/>
      <point x="673" y="40" type="curve" smooth="yes"/>
      <point x="673" y="61"/>
      <point x="690" y="78"/>
      <point x="712" y="78" type="curve" smooth="yes"/>
      <point x="733" y="78"/>
      <point x="750" y="61"/>
      <point x="750" y="40" type="curve" smooth="yes"/>
      <point x="750" y="18"/>
      <point x="733" y="1"/>
    </contour>
    <contour>
      <point x="833" y="47" type="line"/>
      <point x="944" y="101" type="line"/>
      <point x="890" y="163" type="line"/>
      <point x="868" y="148"/>
      <point x="840" y="136"/>
      <point x="814" y="131" type="curve"/>
    </contour>
  </outline>
</glyph>
<glyph name="blackLeftPointingIsoscelesRightTriangle" format="2">
  <advance width="490"/>
  <unicode hex="1F780"/>
  <outline>
    <contour>
      <point x="439" y="-32" type="line"/>
      <point x="439" y="746" type="line"/>
      <point x="51" y="357" type="line"/>
    </contour>
  </outline>
</glyph>
<glyph name="boldWhiteSquare" format="2">
  <advance width="834"/>
  <unicode hex="1F790"/>
  <outline>
    <contour>
      <point x="51" y="-4" type="line"/>
      <point x="783" y="-4" type="line"/>
      <point x="783" y="728" type="line"/>
      <point x="51" y="728" type="line"/>
    </contour>
    <contour>
      <point x="203" y="148" type="line"/>
      <point x="203" y="576" type="line"/>
      <point x="631" y="576" type="line"/>
      <point x="631" y="148" type="line"/>
    </contour>
  </outline>
</glyph>
<glyph name="boldGreekCross" format="2">
  <advance width="853"/>
  <unicode hex="1F7A4"/>
  <outline>
    <contour>
      <point x="51" y="302" type="line"/>
      <point x="802" y="302" type="line"/>
      <point x="802" y="416" type="line"/>
      <point x="51" y="416" type="line"/>
    </contour>
    <contour>
      <point x="370" y="-17" type="line"/>
      <point x="484" y="-17" type="line"/>
      <point x="484" y="734" type="line"/>
      <point x="370" y="734" type="line"/>
    </contour>
  </outline>
</glyph>
<glyph name="u1F7E0" format="2">
  <advance width="1000"/>
  <unicode hex="1F7E0"/>
  <outline>
    <contour>
      <point x="112" y="472" type="line"/>
      <point x="888" y="472" type="line"/>
      <point x="888" y="516" type="line"/>
      <point x="112" y="516" type="line"/>
    </contour>
    <contour>
      <point x="170" y="112" type="line"/>
      <point x="214" y="112" type="line"/>
      <point x="214" y="612" type="line"/>
      <point x="170" y="612" type="line"/>
    </contour>
    <contour>
      <point x="250" y="32" type="line"/>
      <point x="750" y="32" type="line"/>
      <point x="750" y="76" type="line"/>
      <point x="250" y="76" type="line"/>
    </contour>
    <contour>
      <point x="258" y="32" type="line"/>
      <point x="302" y="32" type="line"/>
      <point x="302" y="692" type="line"/>
      <point x="258" y="692" type="line"/>
    </contour>
    <contour>
      <point x="170" y="120" type="line"/>
      <point x="830" y="120" type="line"/>
      <point x="830" y="164" type="line"/>
      <point x="170" y="164" type="line"/>
    </contour>
    <contour>
      <point x="346" y="-26" type="line"/>
      <point x="390" y="-26" type="line"/>
      <point x="390" y="750" type="line"/>
      <point x="346" y="750" type="line"/>
    </contour>
    <contour>
      <point x="112" y="208" type="line"/>
      <point x="888" y="208" type="line"/>
      <point x="888" y="252" type="line"/>
      <point x="112" y="252" type="line"/>
    </contour>
    <contour>
      <point x="434" y="-26" type="line"/>
      <point x="478" y="-26" type="line"/>
      <point x="478" y="750" type="line"/>
      <point x="434" y="750" type="line"/>
    </contour>
    <contour>
      <point x="112" y="296" type="line"/>
      <point x="888" y="296" type="line"/>
      <point x="888" y="340" type="line"/>
      <point x="112" y="340" type="line"/>
    </contour>
    <contour>
      <point x="522" y="-26" type="line"/>
      <point x="566" y="-26" type="line"/>
      <point x="566" y="750" type="line"/>
      <point x="522" y="750" type="line"/>
    </contour>
    <contour>
      <point x="112" y="384" type="line"/>
      <point x="888" y="384" type="line"/>
      <point x="888" y="428" type="line"/>
      <point x="112" y="428" type="line"/>
    </contour>
    <contour>
      <point x="610" y="-26" type="line"/>
      <point x="654" y="-26" type="line"/>
      <point x="654" y="750" type="line"/>
      <point x="610" y="750" type="line"/>
    </contour>
    <contour>
      <point x="698" y="32" type="line"/>
      <point x="742" y="32" type="line"/>
      <point x="742" y="692" type="line"/>
      <point x="698" y="692" type="line"/>
    </contour>
    <contour>
      <point x="170" y="560" type="line"/>
      <point x="830" y="560" type="line"/>
      <point x="830" y="604" type="line"/>
      <point x="170" y="604" type="line"/>
    </contour>
    <contour>
      <point x="786" y="112" type="line"/>
      <point x="830" y="112" type="line"/>
      <point x="830" y="612" type="line"/>
      <point x="786" y="612" type="line"/>
    </contour>
    <contour>
      <point x="250" y="648" type="line"/>
      <point x="750" y="648" type="line"/>
      <point x="750" y="692" type="line"/>
      <point x="250" y="692" type="line"/>
    </contour>
    <contour>
      <point x="500" y="-63" type="curve" smooth="yes"/>
      <point x="736" y="-63"/>
      <point x="925" y="126"/>
      <point x="925" y="362" type="curve" smooth="yes"/>
      <point x="925" y="598"/>
      <point x="736" y="787"/>
      <point x="500" y="787" type="curve" smooth="yes"/>
      <point x="264" y="787"/>
      <point x="75" y="598"/>
      <point x="75" y="362" type="curve" smooth="yes"/>
      <point x="75" y="126"/>
      <point x="264" y="-63"/>
    </contour>
    <contour>
      <point x="500" y="-5" type="curve" smooth="yes"/>
      <point x="296" y="-5"/>
      <point x="133" y="158"/>
      <point x="133" y="362" type="curve" smooth="yes"/>
      <point x="133" y="566"/>
      <point x="296" y="729"/>
      <point x="500" y="729" type="curve" smooth="yes"/>
      <point x="704" y="729"/>
      <point x="867" y="566"/>
      <point x="867" y="362" type="curve" smooth="yes"/>
      <point x="867" y="158"/>
      <point x="704" y="-5"/>
    </contour>
  </outline>
</glyph>
<glyph name="u1F7E1" format="2">
  <advance width="1000"/>
  <unicode hex="1F7E1"/>
  <outline>
    <contour>
      <point x="742" y="604" type="line"/>
      <point x="786" y="604" type="line"/>
      <point x="786" y="648" type="line"/>
      <point x="742" y="648" type="line"/>
    </contour>
    <contour>
      <point x="214" y="76" type="line"/>
      <point x="258" y="76" type="line"/>
      <point x="258" y="120" type="line"/>
      <point x="214" y="120" type="line"/>
    </contour>
    <contour>
      <point x="302" y="32" type="line"/>
      <point x="346" y="32" type="line"/>
      <point x="346" y="76" type="line"/>
      <point x="302" y="76" type="line"/>
    </contour>
    <contour>
      <point x="126" y="208" type="line"/>
      <point x="170" y="208" type="line"/>
      <point x="170" y="252" type="line"/>
      <point x="126" y="252" type="line"/>
    </contour>
    <contour>
      <point x="390" y="-12" type="line"/>
      <point x="434" y="-12" type="line"/>
      <point x="434" y="32" type="line"/>
      <point x="390" y="32" type="line"/>
    </contour>
    <contour>
      <point x="214" y="164" type="line"/>
      <point x="258" y="164" type="line"/>
      <point x="258" y="208" type="line"/>
      <point x="214" y="208" type="line"/>
    </contour>
    <contour>
      <point x="302" y="120" type="line"/>
      <point x="346" y="120" type="line"/>
      <point x="346" y="164" type="line"/>
      <point x="302" y="164" type="line"/>
    </contour>
    <contour>
      <point x="126" y="296" type="line"/>
      <point x="170" y="296" type="line"/>
      <point x="170" y="340" type="line"/>
      <point x="126" y="340" type="line"/>
    </contour>
    <contour>
      <point x="390" y="76" type="line"/>
      <point x="434" y="76" type="line"/>
      <point x="434" y="120" type="line"/>
      <point x="390" y="120" type="line"/>
    </contour>
    <contour>
      <point x="214" y="252" type="line"/>
      <point x="258" y="252" type="line"/>
      <point x="258" y="296" type="line"/>
      <point x="214" y="296" type="line"/>
    </contour>
    <contour>
      <point x="302" y="208" type="line"/>
      <point x="346" y="208" type="line"/>
      <point x="346" y="252" type="line"/>
      <point x="302" y="252" type="line"/>
    </contour>
    <contour>
      <point x="126" y="384" type="line"/>
      <point x="170" y="384" type="line"/>
      <point x="170" y="428" type="line"/>
      <point x="126" y="428" type="line"/>
    </contour>
    <contour>
      <point x="478" y="32" type="line"/>
      <point x="522" y="32" type="line"/>
      <point x="522" y="76" type="line"/>
      <point x="478" y="76" type="line"/>
    </contour>
    <contour>
      <point x="390" y="164" type="line"/>
      <point x="434" y="164" type="line"/>
      <point x="434" y="208" type="line"/>
      <point x="390" y="208" type="line"/>
    </contour>
    <contour>
      <point x="214" y="340" type="line"/>
      <point x="258" y="340" type="line"/>
      <point x="258" y="384" type="line"/>
      <point x="214" y="384" type="line"/>
    </contour>
    <contour>
      <point x="566" y="-12" type="line"/>
      <point x="610" y="-12" type="line"/>
      <point x="610" y="32" type="line"/>
      <point x="566" y="32" type="line"/>
    </contour>
    <contour>
      <point x="302" y="296" type="line"/>
      <point x="346" y="296" type="line"/>
      <point x="346" y="340" type="line"/>
      <point x="302" y="340" type="line"/>
    </contour>
    <contour>
      <point x="126" y="472" type="line"/>
      <point x="170" y="472" type="line"/>
      <point x="170" y="516" type="line"/>
      <point x="126" y="516" type="line"/>
    </contour>
    <contour>
      <point x="478" y="120" type="line"/>
      <point x="522" y="120" type="line"/>
      <point x="522" y="164" type="line"/>
      <point x="478" y="164" type="line"/>
    </contour>
    <contour>
      <point x="390" y="252" type="line"/>
      <point x="434" y="252" type="line"/>
      <point x="434" y="296" type="line"/>
      <point x="390" y="296" type="line"/>
    </contour>
    <contour>
      <point x="214" y="428" type="line"/>
      <point x="258" y="428" type="line"/>
      <point x="258" y="472" type="line"/>
      <point x="214" y="472" type="line"/>
    </contour>
    <contour>
      <point x="566" y="76" type="line"/>
      <point x="610" y="76" type="line"/>
      <point x="610" y="120" type="line"/>
      <point x="566" y="120" type="line"/>
    </contour>
    <contour>
      <point x="302" y="384" type="line"/>
      <point x="346" y="384" type="line"/>
      <point x="346" y="428" type="line"/>
      <point x="302" y="428" type="line"/>
    </contour>
    <contour>
      <point x="654" y="32" type="line"/>
      <point x="698" y="32" type="line"/>
      <point x="698" y="76" type="line"/>
      <point x="654" y="76" type="line"/>
    </contour>
    <contour>
      <point x="478" y="208" type="line"/>
      <point x="522" y="208" type="line"/>
      <point x="522" y="252" type="line"/>
      <point x="478" y="252" type="line"/>
    </contour>
    <contour>
      <point x="390" y="340" type="line"/>
      <point x="434" y="340" type="line"/>
      <point x="434" y="384" type="line"/>
      <point x="390" y="384" type="line"/>
    </contour>
    <contour>
      <point x="214" y="516" type="line"/>
      <point x="258" y="516" type="line"/>
      <point x="258" y="560" type="line"/>
      <point x="214" y="560" type="line"/>
    </contour>
    <contour>
      <point x="566" y="164" type="line"/>
      <point x="610" y="164" type="line"/>
      <point x="610" y="208" type="line"/>
      <point x="566" y="208" type="line"/>
    </contour>
    <contour>
      <point x="302" y="472" type="line"/>
      <point x="346" y="472" type="line"/>
      <point x="346" y="516" type="line"/>
      <point x="302" y="516" type="line"/>
    </contour>
    <contour>
      <point x="654" y="120" type="line"/>
      <point x="698" y="120" type="line"/>
      <point x="698" y="164" type="line"/>
      <point x="654" y="164" type="line"/>
    </contour>
    <contour>
      <point x="478" y="296" type="line"/>
      <point x="522" y="296" type="line"/>
      <point x="522" y="340" type="line"/>
      <point x="478" y="340" type="line"/>
    </contour>
    <contour>
      <point x="390" y="428" type="line"/>
      <point x="434" y="428" type="line"/>
      <point x="434" y="472" type="line"/>
      <point x="390" y="472" type="line"/>
    </contour>
    <contour>
      <point x="214" y="604" type="line"/>
      <point x="258" y="604" type="line"/>
      <point x="258" y="648" type="line"/>
      <point x="214" y="648" type="line"/>
    </contour>
    <contour>
      <point x="742" y="76" type="line"/>
      <point x="786" y="76" type="line"/>
      <point x="786" y="120" type="line"/>
      <point x="742" y="120" type="line"/>
    </contour>
    <contour>
      <point x="566" y="252" type="line"/>
      <point x="610" y="252" type="line"/>
      <point x="610" y="296" type="line"/>
      <point x="566" y="296" type="line"/>
    </contour>
    <contour>
      <point x="302" y="560" type="line"/>
      <point x="346" y="560" type="line"/>
      <point x="346" y="604" type="line"/>
      <point x="302" y="604" type="line"/>
    </contour>
    <contour>
      <point x="654" y="208" type="line"/>
      <point x="698" y="208" type="line"/>
      <point x="698" y="252" type="line"/>
      <point x="654" y="252" type="line"/>
    </contour>
    <contour>
      <point x="478" y="384" type="line"/>
      <point x="522" y="384" type="line"/>
      <point x="522" y="428" type="line"/>
      <point x="478" y="428" type="line"/>
    </contour>
    <contour>
      <point x="390" y="516" type="line"/>
      <point x="434" y="516" type="line"/>
      <point x="434" y="560" type="line"/>
      <point x="390" y="560" type="line"/>
    </contour>
    <contour>
      <point x="742" y="164" type="line"/>
      <point x="786" y="164" type="line"/>
      <point x="786" y="208" type="line"/>
      <point x="742" y="208" type="line"/>
    </contour>
    <contour>
      <point x="566" y="340" type="line"/>
      <point x="610" y="340" type="line"/>
      <point x="610" y="384" type="line"/>
      <point x="566" y="384" type="line"/>
    </contour>
    <contour>
      <point x="302" y="648" type="line"/>
      <point x="346" y="648" type="line"/>
      <point x="346" y="692" type="line"/>
      <point x="302" y="692" type="line"/>
    </contour>
    <contour>
      <point x="654" y="296" type="line"/>
      <point x="698" y="296" type="line"/>
      <point x="698" y="340" type="line"/>
      <point x="654" y="340" type="line"/>
    </contour>
    <contour>
      <point x="478" y="472" type="line"/>
      <point x="522" y="472" type="line"/>
      <point x="522" y="516" type="line"/>
      <point x="478" y="516" type="line"/>
    </contour>
    <contour>
      <point x="390" y="604" type="line"/>
      <point x="434" y="604" type="line"/>
      <point x="434" y="648" type="line"/>
      <point x="390" y="648" type="line"/>
    </contour>
    <contour>
      <point x="742" y="252" type="line"/>
      <point x="786" y="252" type="line"/>
      <point x="786" y="296" type="line"/>
      <point x="742" y="296" type="line"/>
    </contour>
    <contour>
      <point x="566" y="428" type="line"/>
      <point x="610" y="428" type="line"/>
      <point x="610" y="472" type="line"/>
      <point x="566" y="472" type="line"/>
    </contour>
    <contour>
      <point x="830" y="208" type="line"/>
      <point x="874" y="208" type="line"/>
      <point x="874" y="252" type="line"/>
      <point x="830" y="252" type="line"/>
    </contour>
    <contour>
      <point x="654" y="384" type="line"/>
      <point x="698" y="384" type="line"/>
      <point x="698" y="428" type="line"/>
      <point x="654" y="428" type="line"/>
    </contour>
    <contour>
      <point x="478" y="560" type="line"/>
      <point x="522" y="560" type="line"/>
      <point x="522" y="604" type="line"/>
      <point x="478" y="604" type="line"/>
    </contour>
    <contour>
      <point x="390" y="692" type="line"/>
      <point x="434" y="692" type="line"/>
      <point x="434" y="736" type="line"/>
      <point x="390" y="736" type="line"/>
    </contour>
    <contour>
      <point x="742" y="340" type="line"/>
      <point x="786" y="340" type="line"/>
      <point x="786" y="384" type="line"/>
      <point x="742" y="384" type="line"/>
    </contour>
    <contour>
      <point x="566" y="516" type="line"/>
      <point x="610" y="516" type="line"/>
      <point x="610" y="560" type="line"/>
      <point x="566" y="560" type="line"/>
    </contour>
    <contour>
      <point x="830" y="296" type="line"/>
      <point x="874" y="296" type="line"/>
      <point x="874" y="340" type="line"/>
      <point x="830" y="340" type="line"/>
    </contour>
    <contour>
      <point x="654" y="472" type="line"/>
      <point x="698" y="472" type="line"/>
      <point x="698" y="516" type="line"/>
      <point x="654" y="516" type="line"/>
    </contour>
    <contour>
      <point x="478" y="648" type="line"/>
      <point x="522" y="648" type="line"/>
      <point x="522" y="692" type="line"/>
      <point x="478" y="692" type="line"/>
    </contour>
    <contour>
      <point x="742" y="428" type="line"/>
      <point x="786" y="428" type="line"/>
      <point x="786" y="472" type="line"/>
      <point x="742" y="472" type="line"/>
    </contour>
    <contour>
      <point x="566" y="604" type="line"/>
      <point x="610" y="604" type="line"/>
      <point x="610" y="648" type="line"/>
      <point x="566" y="648" type="line"/>
    </contour>
    <contour>
      <point x="830" y="384" type="line"/>
      <point x="874" y="384" type="line"/>
      <point x="874" y="428" type="line"/>
      <point x="830" y="428" type="line"/>
    </contour>
    <contour>
      <point x="654" y="560" type="line"/>
      <point x="698" y="560" type="line"/>
      <point x="698" y="604" type="line"/>
      <point x="654" y="604" type="line"/>
    </contour>
    <contour>
      <point x="742" y="516" type="line"/>
      <point x="786" y="516" type="line"/>
      <point x="786" y="560" type="line"/>
      <point x="742" y="560" type="line"/>
    </contour>
    <contour>
      <point x="566" y="692" type="line"/>
      <point x="610" y="692" type="line"/>
      <point x="610" y="736" type="line"/>
      <point x="566" y="736" type="line"/>
    </contour>
    <contour>
      <point x="830" y="472" type="line"/>
      <point x="874" y="472" type="line"/>
      <point x="874" y="516" type="line"/>
      <point x="830" y="516" type="line"/>
    </contour>
    <contour>
      <point x="654" y="648" type="line"/>
      <point x="698" y="648" type="line"/>
      <point x="698" y="692" type="line"/>
      <point x="654" y="692" type="line"/>
    </contour>
    <contour>
      <point x="500" y="-63" type="curve" smooth="yes"/>
      <point x="736" y="-63"/>
      <point x="925" y="126"/>
      <point x="925" y="362" type="curve" smooth="yes"/>
      <point x="925" y="598"/>
      <point x="736" y="787"/>
      <point x="500" y="787" type="curve" smooth="yes"/>
      <point x="264" y="787"/>
      <point x="75" y="598"/>
      <point x="75" y="362" type="curve" smooth="yes"/>
      <point x="75" y="126"/>
      <point x="264" y="-63"/>
    </contour>
    <contour>
      <point x="500" y="-5" type="curve" smooth="yes"/>
      <point x="296" y="-5"/>
      <point x="133" y="158"/>
      <point x="133" y="362" type="curve" smooth="yes"/>
      <point x="133" y="566"/>
      <point x="296" y="729"/>
      <point x="500" y="729" type="curve" smooth="yes"/>
      <point x="704" y="729"/>
      <point x="867" y="566"/>
      <point x="867" y="362" type="curve" smooth="yes"/>
      <point x="867" y="158"/>
      <point x="704" y="-5"/>
    </contour>
  </outline>
</glyph>
<glyph name="u1F7E3" format="2">
  <advance width="1000"/>
  <unicode hex="1F7E3"/>
  <outline>
    <contour>
      <point x="268" y="36" type="line"/>
      <point x="826" y="595" type="line"/>
      <point x="799" y="631" type="line"/>
      <point x="232" y="62" type="line"/>
    </contour>
    <contour>
      <point x="348" y="-9" type="line"/>
      <point x="870" y="515" type="line"/>
      <point x="848" y="555" type="line"/>
      <point x="305" y="11" type="line"/>
    </contour>
    <contour>
      <point x="112" y="253" type="line"/>
      <point x="607" y="750" type="line"/>
      <point x="545" y="750" type="line"/>
      <point x="112" y="315" type="line"/>
    </contour>
    <contour>
      <point x="201" y="93" type="line"/>
      <point x="768" y="662" type="line"/>
      <point x="732" y="688" type="line"/>
      <point x="174" y="129" type="line"/>
    </contour>
    <contour>
      <point x="112" y="378" type="line"/>
      <point x="483" y="750" type="line"/>
      <point x="421" y="750" type="line"/>
      <point x="112" y="440" type="line"/>
    </contour>
    <contour>
      <point x="517" y="-26" type="line"/>
      <point x="579" y="-26" type="line"/>
      <point x="888" y="284" type="line"/>
      <point x="888" y="346" type="line"/>
    </contour>
    <contour>
      <point x="393" y="-26" type="line"/>
      <point x="455" y="-26" type="line"/>
      <point x="888" y="409" type="line"/>
      <point x="888" y="471" type="line"/>
    </contour>
    <contour>
      <point x="152" y="169" type="line"/>
      <point x="695" y="713" type="line"/>
      <point x="652" y="733" type="line"/>
      <point x="130" y="209" type="line"/>
    </contour>
    <contour>
      <point x="500" y="-63" type="curve" smooth="yes"/>
      <point x="736" y="-63"/>
      <point x="925" y="126"/>
      <point x="925" y="362" type="curve" smooth="yes"/>
      <point x="925" y="598"/>
      <point x="736" y="787"/>
      <point x="500" y="787" type="curve" smooth="yes"/>
      <point x="264" y="787"/>
      <point x="75" y="598"/>
      <point x="75" y="362" type="curve" smooth="yes"/>
      <point x="75" y="126"/>
      <point x="264" y="-63"/>
    </contour>
    <contour>
      <point x="500" y="-5" type="curve" smooth="yes"/>
      <point x="296" y="-5"/>
      <point x="133" y="158"/>
      <point x="133" y="362" type="curve" smooth="yes"/>
      <point x="133" y="566"/>
      <point x="296" y="729"/>
      <point x="500" y="729" type="curve" smooth="yes"/>
      <point x="704" y="729"/>
      <point x="867" y="566"/>
      <point x="867" y="362" type="curve" smooth="yes"/>
      <point x="867" y="158"/>
      <point x="704" y="-5"/>
    </contour>
  </outline>
</glyph>
<glyph name="u1F7E5" format="2">
  <advance width="1000"/>
  <unicode hex="1F7E5"/>
  <outline>
    <contour>
      <point x="742" y="-26" type="line"/>
      <point x="786" y="-26" type="line"/>
      <point x="786" y="750" type="line"/>
      <point x="742" y="750" type="line"/>
    </contour>
    <contour>
      <point x="214" y="-26" type="line"/>
      <point x="258" y="-26" type="line"/>
      <point x="258" y="750" type="line"/>
      <point x="214" y="750" type="line"/>
    </contour>
    <contour>
      <point x="302" y="-26" type="line"/>
      <point x="346" y="-26" type="line"/>
      <point x="346" y="750" type="line"/>
      <point x="302" y="750" type="line"/>
    </contour>
    <contour>
      <point x="390" y="-26" type="line"/>
      <point x="434" y="-26" type="line"/>
      <point x="434" y="750" type="line"/>
      <point x="390" y="750" type="line"/>
    </contour>
    <contour>
      <point x="478" y="-26" type="line"/>
      <point x="522" y="-26" type="line"/>
      <point x="522" y="750" type="line"/>
      <point x="478" y="750" type="line"/>
    </contour>
    <contour>
      <point x="566" y="-26" type="line"/>
      <point x="610" y="-26" type="line"/>
      <point x="610" y="750" type="line"/>
      <point x="566" y="750" type="line"/>
    </contour>
    <contour>
      <point x="654" y="-26" type="line"/>
      <point x="698" y="-26" type="line"/>
      <point x="698" y="750" type="line"/>
      <point x="654" y="750" type="line"/>
    </contour>
    <contour>
      <point x="112" y="-26" type="line"/>
      <point x="888" y="-26" type="line"/>
      <point x="888" y="750" type="line"/>
      <point x="112" y="750" type="line"/>
    </contour>
    <contour>
      <point x="170" y="32" type="line"/>
      <point x="170" y="692" type="line"/>
      <point x="830" y="692" type="line"/>
      <point x="830" y="32" type="line"/>
    </contour>
  </outline>
</glyph>
<glyph name="leftarrowwithequilateralarrowhead" format="2">
  <advance width="874"/>
  <unicode hex="1F810"/>
  <outline>
    <contour>
      <point x="276" y="215" type="line"/>
      <point x="276" y="476" type="line"/>
      <point x="51" y="346" type="line"/>
    </contour>
    <contour>
      <point x="264" y="321" type="line"/>
      <point x="823" y="321" type="line"/>
      <point x="823" y="370" type="line"/>
      <point x="264" y="370" type="line"/>
    </contour>
  </outline>
</glyph>
<glyph name="rightTriangleArrowWithVeryHeavyShaft" format="2">
  <advance width="1011"/>
  <unicode hex="1F832"/>
  <outline>
    <contour>
      <point x="604" y="62" type="line"/>
      <point x="960" y="346" type="line"/>
      <point x="604" y="630" type="line"/>
      <point x="604" y="489" type="line"/>
      <point x="51" y="489" type="line"/>
      <point x="51" y="202" type="line"/>
      <point x="604" y="202" type="line"/>
    </contour>
  </outline>
</glyph>
<glyph name="downTriangleArrowWithVeryHeavyShaft" format="2">
  <advance width="670"/>
  <unicode hex="1F833"/>
  <outline>
    <contour>
      <point x="335" y="-45" type="line"/>
      <point x="619" y="312" type="line"/>
      <point x="479" y="312" type="line"/>
      <point x="479" y="865" type="line"/>
      <point x="192" y="865" type="line"/>
      <point x="192" y="312" type="line"/>
      <point x="51" y="312" type="line"/>
    </contour>
  </outline>
</glyph>
<glyph name="rightFingerPostArrow" format="2">
  <advance width="812"/>
  <unicode hex="1F836"/>
  <outline>
    <contour>
      <point x="51" y="128" type="line"/>
      <point x="504" y="128" type="line"/>
      <point x="761" y="362" type="line"/>
      <point x="504" y="596" type="line"/>
      <point x="51" y="596" type="line"/>
    </contour>
  </outline>
</glyph>
<glyph name="upHeavyArrow" format="2">
  <advance width="1028"/>
  <unicode hex="1F845"/>
  <outline>
    <contour>
      <point x="279" y="-120" type="line"/>
      <point x="747" y="-120" type="line"/>
      <point x="747" y="229" type="line"/>
      <point x="977" y="229" type="line"/>
      <point x="514" y="811" type="line"/>
      <point x="51" y="229" type="line"/>
      <point x="279" y="229" type="line"/>
    </contour>
  </outline>
</glyph>
<glyph name="downHeavyArrow" format="2">
  <advance width="1028"/>
  <unicode hex="1F847"/>
  <outline>
    <contour>
      <point x="514" y="-120" type="line"/>
      <point x="977" y="462" type="line"/>
      <point x="749" y="462" type="line"/>
      <point x="749" y="811" type="line"/>
      <point x="281" y="811" type="line"/>
      <point x="281" y="462" type="line"/>
      <point x="51" y="462" type="line"/>
    </contour>
  </outline>
</glyph>
<glyph name="upWhiteArrowWithinTriangleArrowhead" format="2">
  <advance width="828"/>
  <unicode hex="1F895"/>
  <outline>
    <contour>
      <point x="51" y="-293" type="line"/>
      <point x="375" y="-293" type="line"/>
      <point x="375" y="-187" type="line"/>
      <point x="270" y="-187" type="line"/>
      <point x="414" y="-7" type="line"/>
      <point x="558" y="-187" type="line"/>
      <point x="453" y="-187" type="line"/>
      <point x="453" y="-293" type="line"/>
      <point x="777" y="-293" type="line"/>
      <point x="414" y="162" type="line"/>
    </contour>
  </outline>
</glyph>
<glyph name="downWhiteArrowWithinTriangleArrowhead" format="2">
  <advance width="828"/>
  <unicode hex="1F897"/>
  <outline>
    <contour>
      <point x="414" y="434" type="line"/>
      <point x="777" y="889" type="line"/>
      <point x="453" y="889" type="line"/>
      <point x="453" y="783" type="line"/>
      <point x="558" y="783" type="line"/>
      <point x="414" y="603" type="line"/>
      <point x="270" y="783" type="line"/>
      <point x="375" y="783" type="line"/>
      <point x="375" y="889" type="line"/>
      <point x="51" y="889" type="line"/>
    </contour>
  </outline>
</glyph>
<glyph name="leftArrowWithNotchedTail" format="2">
  <advance width="786"/>
  <unicode hex="1F898"/>
  <outline>
    <contour>
      <point x="320" y="132" type="line"/>
      <point x="320" y="237" type="line"/>
      <point x="735" y="237" type="line"/>
      <point x="628" y="344" type="line"/>
      <point x="735" y="451" type="line"/>
      <point x="320" y="451" type="line"/>
      <point x="320" y="556" type="line"/>
      <point x="51" y="344" type="line"/>
    </contour>
  </outline>
</glyph>
<glyph name="u1FA0A" format="2">
  <advance width="1000"/>
  <unicode hex="1FA0A"/>
  <outline>
    <contour>
      <point x="99" y="367" type="curve" smooth="yes"/>
      <point x="99" y="305"/>
      <point x="104" y="256"/>
      <point x="114" y="220" type="curve" smooth="yes"/>
      <point x="124" y="184"/>
      <point x="139" y="166"/>
      <point x="157" y="166" type="curve" smooth="yes"/>
      <point x="369" y="169" type="line"/>
      <point x="651" y="77" type="line"/>
      <point x="650" y="73"/>
      <point x="649" y="67"/>
      <point x="649" y="59" type="curve" smooth="yes"/>
      <point x="649" y="22"/>
      <point x="677" y="-8"/>
      <point x="719" y="-8" type="curve" smooth="yes"/>
      <point x="756" y="-8"/>
      <point x="785" y="22"/>
      <point x="785" y="60" type="curve" smooth="yes"/>
      <point x="785" y="99"/>
      <point x="756" y="128"/>
      <point x="717" y="128" type="curve" smooth="yes"/>
      <point x="695" y="128"/>
      <point x="671" y="116"/>
      <point x="660" y="98" type="curve"/>
      <point x="461" y="221" type="line"/>
      <point x="731" y="200" type="line"/>
      <point x="731" y="198" type="line" smooth="yes"/>
      <point x="731" y="163"/>
      <point x="762" y="131"/>
      <point x="799" y="131" type="curve" smooth="yes"/>
      <point x="836" y="131"/>
      <point x="868" y="160"/>
      <point x="868" y="198" type="curve" smooth="yes"/>
      <point x="868" y="235"/>
      <point x="839" y="267"/>
      <point x="800" y="267" type="curve" smooth="yes"/>
      <point x="771" y="267"/>
      <point x="746" y="251"/>
      <point x="736" y="223" type="curve"/>
      <point x="482" y="313" type="line"/>
      <point x="765" y="355" type="line"/>
      <point x="770" y="324"/>
      <point x="797" y="299"/>
      <point x="832" y="299" type="curve" smooth="yes"/>
      <point x="871" y="299"/>
      <point x="900" y="330"/>
      <point x="900" y="367" type="curve" smooth="yes"/>
      <point x="900" y="405"/>
      <point x="870" y="435"/>
      <point x="832" y="435" type="curve" smooth="yes"/>
      <point x="797" y="435"/>
      <point x="770" y="410"/>
      <point x="765" y="379" type="curve"/>
      <point x="482" y="421" type="line"/>
      <point x="736" y="511" type="line"/>
      <point x="746" y="483"/>
      <point x="771" y="467"/>
      <point x="800" y="467" type="curve" smooth="yes"/>
      <point x="839" y="467"/>
      <point x="868" y="499"/>
      <point x="868" y="536" type="curve" smooth="yes"/>
      <point x="868" y="574"/>
      <point x="836" y="603"/>
      <point x="799" y="603" type="curve" smooth="yes"/>
      <point x="761" y="603"/>
      <point x="731" y="571"/>
      <point x="731" y="536" type="curve" smooth="yes"/>
      <point x="731" y="534" type="line"/>
      <point x="461" y="513" type="line"/>
      <point x="660" y="636" type="line"/>
      <point x="671" y="618"/>
      <point x="695" y="606"/>
      <point x="717" y="606" type="curve" smooth="yes"/>
      <point x="756" y="606"/>
      <point x="785" y="635"/>
      <point x="785" y="674" type="curve" smooth="yes"/>
      <point x="785" y="711"/>
      <point x="756" y="742"/>
      <point x="719" y="742" type="curve" smooth="yes"/>
      <point x="678" y="742"/>
      <point x="649" y="713"/>
      <point x="649" y="675" type="curve" smooth="yes"/>
      <point x="649" y="667"/>
      <point x="650" y="661"/>
      <point x="651" y="657" type="curve"/>
      <point x="369" y="565" type="line"/>
      <point x="157" y="568" type="line" smooth="yes"/>
      <point x="139" y="568"/>
      <point x="125" y="550"/>
      <point x="115" y="514" type="curve" smooth="yes"/>
      <point x="105" y="478"/>
      <point x="99" y="429"/>
    </contour>
    <contour>
      <point x="128" y="367" type="curve" smooth="yes"/>
      <point x="128" y="471"/>
      <point x="138" y="523"/>
      <point x="159" y="523" type="curve" smooth="yes"/>
      <point x="169" y="523"/>
      <point x="176" y="509"/>
      <point x="182" y="481" type="curve" smooth="yes"/>
      <point x="188" y="454"/>
      <point x="190" y="416"/>
      <point x="190" y="367" type="curve" smooth="yes"/>
      <point x="190" y="318"/>
      <point x="187" y="280"/>
      <point x="182" y="252" type="curve" smooth="yes"/>
      <point x="177" y="225"/>
      <point x="168" y="211"/>
      <point x="159" y="211" type="curve" smooth="yes"/>
      <point x="138" y="211"/>
      <point x="128" y="263"/>
    </contour>
    <contour>
      <point x="201" y="521" type="curve"/>
      <point x="232" y="521" type="line"/>
      <point x="243" y="488"/>
      <point x="252" y="422"/>
      <point x="252" y="367" type="curve" smooth="yes"/>
      <point x="252" y="310"/>
      <point x="243" y="246"/>
      <point x="232" y="213" type="curve"/>
      <point x="201" y="213" type="line"/>
      <point x="213" y="249"/>
      <point x="219" y="300"/>
      <point x="219" y="367" type="curve" smooth="yes"/>
      <point x="219" y="434"/>
      <point x="213" y="485"/>
    </contour>
    <contour>
      <point x="378" y="539" type="line"/>
      <point x="554" y="599" type="line"/>
      <point x="387" y="503" type="line"/>
    </contour>
    <contour>
      <point x="259" y="520" type="curve"/>
      <point x="292" y="520" type="line"/>
      <point x="303" y="486"/>
      <point x="312" y="421"/>
      <point x="312" y="367" type="curve" smooth="yes"/>
      <point x="312" y="315"/>
      <point x="303" y="247"/>
      <point x="292" y="214" type="curve"/>
      <point x="259" y="214" type="line"/>
      <point x="272" y="253"/>
      <point x="279" y="304"/>
      <point x="279" y="367" type="curve" smooth="yes"/>
      <point x="279" y="430"/>
      <point x="272" y="480"/>
    </contour>
    <contour>
      <point x="319" y="519" type="curve"/>
      <point x="352" y="519" type="line"/>
      <point x="362" y="488"/>
      <point x="372" y="420"/>
      <point x="372" y="367" type="curve" smooth="yes"/>
      <point x="372" y="312"/>
      <point x="362" y="247"/>
      <point x="352" y="215" type="curve"/>
      <point x="319" y="215" type="line"/>
      <point x="332" y="254"/>
      <point x="339" y="305"/>
      <point x="339" y="367" type="curve" smooth="yes"/>
      <point x="339" y="429"/>
      <point x="332" y="480"/>
    </contour>
    <contour>
      <point x="680" y="674" type="curve" smooth="yes"/>
      <point x="680" y="696"/>
      <point x="696" y="711"/>
      <point x="718" y="711" type="curve" smooth="yes"/>
      <point x="738" y="711"/>
      <point x="753" y="695"/>
      <point x="753" y="676" type="curve" smooth="yes"/>
      <point x="753" y="652"/>
      <point x="737" y="638"/>
      <point x="716" y="638" type="curve" smooth="yes"/>
      <point x="696" y="638"/>
      <point x="680" y="653"/>
    </contour>
    <contour>
      <point x="392" y="474" type="curve"/>
      <point x="628" y="501" type="line"/>
      <point x="397" y="431" type="line"/>
      <point x="396" y="447"/>
      <point x="394" y="461"/>
    </contour>
    <contour>
      <point x="399" y="400" type="curve"/>
      <point x="681" y="367" type="line"/>
      <point x="399" y="334" type="line"/>
      <point x="400" y="345"/>
      <point x="400" y="356"/>
      <point x="400" y="367" type="curve" smooth="yes"/>
      <point x="400" y="378"/>
      <point x="400" y="389"/>
    </contour>
    <contour>
      <point x="392" y="260" type="line"/>
      <point x="394" y="273"/>
      <point x="396" y="287"/>
      <point x="397" y="303" type="curve"/>
      <point x="628" y="233" type="line"/>
    </contour>
    <contour>
      <point x="762" y="534" type="curve" smooth="yes"/>
      <point x="762" y="556"/>
      <point x="778" y="571"/>
      <point x="800" y="571" type="curve" smooth="yes"/>
      <point x="820" y="571"/>
      <point x="835" y="555"/>
      <point x="835" y="536" type="curve" smooth="yes"/>
      <point x="835" y="512"/>
      <point x="819" y="498"/>
      <point x="798" y="498" type="curve" smooth="yes"/>
      <point x="778" y="498"/>
      <point x="762" y="513"/>
    </contour>
    <contour>
      <point x="378" y="195" type="line"/>
      <point x="387" y="231" type="line"/>
      <point x="554" y="135" type="line"/>
    </contour>
    <contour>
      <point x="795" y="366" type="curve" smooth="yes"/>
      <point x="795" y="388"/>
      <point x="811" y="403"/>
      <point x="833" y="403" type="curve" smooth="yes"/>
      <point x="853" y="403"/>
      <point x="868" y="387"/>
      <point x="868" y="368" type="curve" smooth="yes"/>
      <point x="868" y="347"/>
      <point x="853" y="331"/>
      <point x="833" y="331" type="curve" smooth="yes"/>
      <point x="811" y="331"/>
      <point x="795" y="347"/>
    </contour>
    <contour>
      <point x="762" y="200" type="curve" smooth="yes"/>
      <point x="762" y="221"/>
      <point x="778" y="236"/>
      <point x="798" y="236" type="curve" smooth="yes"/>
      <point x="819" y="236"/>
      <point x="835" y="223"/>
      <point x="835" y="198" type="curve" smooth="yes"/>
      <point x="835" y="179"/>
      <point x="820" y="163"/>
      <point x="800" y="163" type="curve" smooth="yes"/>
      <point x="778" y="163"/>
      <point x="762" y="177"/>
    </contour>
    <contour>
      <point x="680" y="60" type="curve" smooth="yes"/>
      <point x="680" y="81"/>
      <point x="696" y="96"/>
      <point x="716" y="96" type="curve" smooth="yes"/>
      <point x="737" y="96"/>
      <point x="753" y="82"/>
      <point x="753" y="58" type="curve" smooth="yes"/>
      <point x="753" y="39"/>
      <point x="738" y="23"/>
      <point x="718" y="23" type="curve" smooth="yes"/>
      <point x="696" y="23"/>
      <point x="680" y="38"/>
    </contour>
  </outline>
</glyph>
<glyph name="u1FA0B" format="2">
  <advance width="1000"/>
  <unicode hex="1FA0B"/>
  <outline>
    <contour>
      <point x="141" y="684" type="line"/>
      <point x="141" y="35" type="line"/>
      <point x="232" y="35" type="line"/>
      <point x="232" y="95" type="line"/>
      <point x="300" y="95" type="line"/>
      <point x="300" y="138" type="line"/>
      <point x="368" y="175" type="line"/>
      <point x="672" y="175" type="line"/>
      <point x="740" y="138" type="line"/>
      <point x="740" y="95" type="line"/>
      <point x="860" y="95" type="line"/>
      <point x="860" y="219" type="line"/>
      <point x="831" y="219" type="line"/>
      <point x="831" y="279" type="line"/>
      <point x="856" y="279" type="line"/>
      <point x="856" y="440" type="line"/>
      <point x="831" y="440" type="line"/>
      <point x="831" y="500" type="line"/>
      <point x="860" y="500" type="line"/>
      <point x="860" y="624" type="line"/>
      <point x="740" y="624" type="line"/>
      <point x="740" y="582" type="line"/>
      <point x="672" y="544" type="line"/>
      <point x="368" y="544" type="line"/>
      <point x="300" y="582" type="line"/>
      <point x="300" y="624" type="line"/>
      <point x="232" y="624" type="line"/>
      <point x="232" y="684" type="line"/>
    </contour>
    <contour>
      <point x="169" y="641" type="line"/>
      <point x="204" y="641" type="line"/>
      <point x="204" y="78" type="line"/>
      <point x="169" y="78" type="line"/>
    </contour>
    <contour>
      <point x="237" y="581" type="line"/>
      <point x="272" y="581" type="line"/>
      <point x="272" y="138" type="line"/>
      <point x="237" y="138" type="line"/>
    </contour>
    <contour>
      <point x="305" y="536" type="line"/>
      <point x="340" y="517" type="line"/>
      <point x="340" y="203" type="line"/>
      <point x="305" y="183" type="line"/>
    </contour>
    <contour>
      <point x="373" y="501" type="line"/>
      <point x="667" y="501" type="line"/>
      <point x="667" y="218" type="line"/>
      <point x="373" y="218" type="line"/>
    </contour>
    <contour>
      <point x="700" y="515" type="line"/>
      <point x="735" y="536" type="line"/>
      <point x="735" y="183" type="line"/>
      <point x="700" y="202" type="line"/>
    </contour>
    <contour>
      <point x="768" y="581" type="line"/>
      <point x="827" y="581" type="line"/>
      <point x="827" y="526" type="line"/>
      <point x="798" y="526" type="line"/>
      <point x="798" y="414" type="line"/>
      <point x="823" y="414" type="line"/>
      <point x="823" y="305" type="line"/>
      <point x="798" y="305" type="line"/>
      <point x="798" y="193" type="line"/>
      <point x="827" y="193" type="line"/>
      <point x="827" y="138" type="line"/>
      <point x="768" y="138" type="line"/>
    </contour>
  </outline>
</glyph>
<glyph name="u1FA0E" format="2">
  <advance width="1000"/>
  <unicode hex="1FA0E"/>
  <outline>
    <contour>
      <point x="122" y="692" type="line"/>
      <point x="122" y="64" type="line"/>
      <point x="159" y="64" type="line" smooth="yes"/>
      <point x="314" y="64"/>
      <point x="441" y="140"/>
      <point x="482" y="264" type="curve"/>
      <point x="511" y="219"/>
      <point x="548" y="196"/>
      <point x="595" y="196" type="curve" smooth="yes"/>
      <point x="665" y="196"/>
      <point x="720" y="243"/>
      <point x="745" y="323" type="curve"/>
      <point x="754" y="296"/>
      <point x="779" y="277"/>
      <point x="810" y="277" type="curve" smooth="yes"/>
      <point x="851" y="277"/>
      <point x="877" y="317"/>
      <point x="877" y="378" type="curve" smooth="yes"/>
      <point x="877" y="440"/>
      <point x="851" y="479"/>
      <point x="810" y="479" type="curve" smooth="yes"/>
      <point x="779" y="479"/>
      <point x="755" y="461"/>
      <point x="745" y="433" type="curve"/>
      <point x="720" y="514"/>
      <point x="665" y="560"/>
      <point x="595" y="560" type="curve" smooth="yes"/>
      <point x="548" y="560"/>
      <point x="511" y="537"/>
      <point x="482" y="492" type="curve"/>
      <point x="441" y="614"/>
      <point x="315" y="692"/>
      <point x="159" y="692" type="curve" smooth="yes"/>
    </contour>
    <contour>
      <point x="177" y="632" type="line"/>
      <point x="306" y="632"/>
      <point x="419" y="553"/>
      <point x="460" y="428" type="curve"/>
      <point x="498" y="428" type="line"/>
      <point x="522" y="481"/>
      <point x="555" y="507"/>
      <point x="597" y="507" type="curve" smooth="yes"/>
      <point x="659" y="507"/>
      <point x="702" y="469"/>
      <point x="728" y="393" type="curve"/>
      <point x="759" y="393" type="line"/>
      <point x="771" y="422"/>
      <point x="789" y="436"/>
      <point x="810" y="436" type="curve" smooth="yes"/>
      <point x="831" y="436"/>
      <point x="849" y="414"/>
      <point x="849" y="378" type="curve" smooth="yes"/>
      <point x="849" y="342"/>
      <point x="831" y="320"/>
      <point x="810" y="320" type="curve" smooth="yes"/>
      <point x="789" y="320"/>
      <point x="771" y="334"/>
      <point x="759" y="363" type="curve"/>
      <point x="728" y="363" type="line"/>
      <point x="702" y="287"/>
      <point x="659" y="249"/>
      <point x="597" y="249" type="curve" smooth="yes"/>
      <point x="555" y="249"/>
      <point x="522" y="275"/>
      <point x="498" y="328" type="curve"/>
      <point x="460" y="328" type="line"/>
      <point x="419" y="203"/>
      <point x="306" y="124"/>
      <point x="177" y="124" type="curve"/>
    </contour>
  </outline>
</glyph>
<glyph name="u1FA0F" format="2">
  <advance width="1000"/>
  <unicode hex="1FA0F"/>
  <outline>
    <contour>
      <point x="106" y="360" type="curve" smooth="yes"/>
      <point x="106" y="298"/>
      <point x="112" y="249"/>
      <point x="122" y="213" type="curve" smooth="yes"/>
      <point x="132" y="177"/>
      <point x="146" y="159"/>
      <point x="164" y="159" type="curve"/>
      <point x="367" y="173" type="line"/>
      <point x="445" y="99"/>
      <point x="515" y="63"/>
      <point x="576" y="63" type="curve" smooth="yes"/>
      <point x="660" y="63"/>
      <point x="713" y="109"/>
      <point x="713" y="185" type="curve" smooth="yes"/>
      <point x="713" y="229"/>
      <point x="697" y="267"/>
      <point x="665" y="299" type="curve"/>
      <point x="731" y="295" type="line" smooth="yes"/>
      <point x="756" y="293"/>
      <point x="771" y="311"/>
      <point x="776" y="343" type="curve"/>
      <point x="832" y="343" type="line"/>
      <point x="832" y="302" type="line"/>
      <point x="856" y="302" type="line"/>
      <point x="856" y="343" type="line"/>
      <point x="893" y="343" type="line"/>
      <point x="893" y="377" type="line"/>
      <point x="856" y="377" type="line"/>
      <point x="856" y="418" type="line"/>
      <point x="832" y="418" type="line"/>
      <point x="832" y="377" type="line"/>
      <point x="776" y="377" type="line"/>
      <point x="771" y="409"/>
      <point x="756" y="427"/>
      <point x="731" y="425" type="curve" smooth="yes"/>
      <point x="665" y="421" type="line"/>
      <point x="697" y="453"/>
      <point x="713" y="491"/>
      <point x="713" y="535" type="curve" smooth="yes"/>
      <point x="713" y="611"/>
      <point x="660" y="657"/>
      <point x="576" y="657" type="curve" smooth="yes"/>
      <point x="515" y="657"/>
      <point x="445" y="621"/>
      <point x="367" y="547" type="curve"/>
      <point x="164" y="561" type="line"/>
      <point x="146" y="561"/>
      <point x="132" y="543"/>
      <point x="122" y="507" type="curve" smooth="yes"/>
      <point x="112" y="471"/>
      <point x="106" y="422"/>
    </contour>
    <contour>
      <point x="212" y="514" type="curve"/>
      <point x="238" y="512" type="line"/>
      <point x="248" y="475"/>
      <point x="258" y="413"/>
      <point x="258" y="360" type="curve" smooth="yes"/>
      <point x="258" y="307"/>
      <point x="248" y="245"/>
      <point x="238" y="208" type="curve"/>
      <point x="212" y="206" type="line"/>
      <point x="224" y="241"/>
      <point x="230" y="293"/>
      <point x="230" y="360" type="curve" smooth="yes"/>
      <point x="230" y="427"/>
      <point x="224" y="479"/>
    </contour>
    <contour>
      <point x="289" y="507" type="curve"/>
      <point x="317" y="505" type="line"/>
      <point x="328" y="462"/>
      <point x="334" y="414"/>
      <point x="334" y="360" type="curve" smooth="yes"/>
      <point x="334" y="306"/>
      <point x="328" y="258"/>
      <point x="317" y="215" type="curve"/>
      <point x="289" y="213" type="line"/>
      <point x="297" y="233"/>
      <point x="306" y="301"/>
      <point x="306" y="360" type="curve" smooth="yes"/>
      <point x="306" y="419"/>
      <point x="297" y="487"/>
    </contour>
    <contour>
      <point x="387" y="513" type="curve"/>
      <point x="446" y="570"/>
      <point x="520" y="612"/>
      <point x="571" y="612" type="curve" smooth="yes"/>
      <point x="634" y="612"/>
      <point x="671" y="583"/>
      <point x="671" y="533" type="curve" smooth="yes"/>
      <point x="671" y="448"/>
      <point x="550" y="381"/>
      <point x="434" y="381" type="curve" smooth="yes"/>
      <point x="402" y="381" type="line"/>
      <point x="402" y="418"/>
      <point x="397" y="463"/>
    </contour>
    <contour>
      <point x="419" y="509" type="curve"/>
      <point x="426" y="464"/>
      <point x="430" y="430"/>
      <point x="430" y="406" type="curve"/>
      <point x="435" y="406" type="line" smooth="yes"/>
      <point x="534" y="406"/>
      <point x="639" y="458"/>
      <point x="639" y="523" type="curve" smooth="yes"/>
      <point x="639" y="562"/>
      <point x="609" y="581"/>
      <point x="562" y="581" type="curve" smooth="yes"/>
      <point x="523" y="581"/>
      <point x="475" y="557"/>
    </contour>
    <contour>
      <point x="562" y="360" type="curve"/>
      <point x="588" y="370"/>
      <point x="608" y="379"/>
      <point x="623" y="388" type="curve"/>
      <point x="718" y="388" type="line" smooth="yes"/>
      <point x="740" y="388"/>
      <point x="751" y="379"/>
      <point x="751" y="360" type="curve" smooth="yes"/>
      <point x="751" y="341"/>
      <point x="740" y="332"/>
      <point x="718" y="332" type="curve" smooth="yes"/>
      <point x="623" y="332" type="line"/>
      <point x="608" y="341"/>
      <point x="588" y="350"/>
    </contour>
    <contour>
      <point x="588" y="360" type="curve"/>
      <point x="600" y="357"/>
      <point x="617" y="352"/>
      <point x="631" y="347" type="curve"/>
      <point x="702" y="347" type="line" smooth="yes"/>
      <point x="712" y="347"/>
      <point x="725" y="348"/>
      <point x="725" y="360" type="curve" smooth="yes"/>
      <point x="725" y="372"/>
      <point x="712" y="373"/>
      <point x="702" y="373" type="curve" smooth="yes"/>
      <point x="631" y="373" type="line"/>
      <point x="617" y="368"/>
      <point x="600" y="363"/>
    </contour>
    <contour>
      <point x="387" y="207" type="curve"/>
      <point x="397" y="257"/>
      <point x="402" y="302"/>
      <point x="402" y="339" type="curve"/>
      <point x="434" y="339" type="line" smooth="yes"/>
      <point x="550" y="339"/>
      <point x="671" y="272"/>
      <point x="671" y="187" type="curve" smooth="yes"/>
      <point x="671" y="137"/>
      <point x="634" y="108"/>
      <point x="571" y="108" type="curve" smooth="yes"/>
      <point x="520" y="108"/>
      <point x="446" y="150"/>
    </contour>
    <contour>
      <point x="419" y="211" type="curve"/>
      <point x="475" y="163"/>
      <point x="523" y="139"/>
      <point x="562" y="139" type="curve" smooth="yes"/>
      <point x="609" y="139"/>
      <point x="639" y="158"/>
      <point x="639" y="197" type="curve" smooth="yes"/>
      <point x="639" y="262"/>
      <point x="534" y="314"/>
      <point x="435" y="314" type="curve" smooth="yes"/>
      <point x="430" y="314" type="line"/>
      <point x="430" y="290"/>
      <point x="426" y="256"/>
    </contour>
  </outline>
</glyph>
<glyph name="u1FA10" format="2">
  <advance width="1000"/>
  <unicode hex="1FA10"/>
  <outline>
    <contour>
      <point x="99" y="367" type="curve" smooth="yes"/>
      <point x="99" y="305"/>
      <point x="104" y="256"/>
      <point x="114" y="220" type="curve" smooth="yes"/>
      <point x="124" y="184"/>
      <point x="139" y="166"/>
      <point x="157" y="166" type="curve" smooth="yes"/>
      <point x="372" y="169" type="line"/>
      <point x="651" y="77" type="line"/>
      <point x="650" y="73"/>
      <point x="649" y="67"/>
      <point x="649" y="59" type="curve" smooth="yes"/>
      <point x="649" y="22"/>
      <point x="677" y="-8"/>
      <point x="719" y="-8" type="curve" smooth="yes"/>
      <point x="756" y="-8"/>
      <point x="785" y="22"/>
      <point x="785" y="60" type="curve" smooth="yes"/>
      <point x="785" y="99"/>
      <point x="756" y="128"/>
      <point x="717" y="128" type="curve" smooth="yes"/>
      <point x="695" y="128"/>
      <point x="671" y="116"/>
      <point x="660" y="98" type="curve"/>
      <point x="439" y="229" type="line"/>
      <point x="731" y="200" type="line"/>
      <point x="731" y="198" type="line" smooth="yes"/>
      <point x="731" y="163"/>
      <point x="762" y="131"/>
      <point x="799" y="131" type="curve" smooth="yes"/>
      <point x="836" y="131"/>
      <point x="868" y="160"/>
      <point x="868" y="198" type="curve" smooth="yes"/>
      <point x="868" y="235"/>
      <point x="839" y="267"/>
      <point x="800" y="267" type="curve" smooth="yes"/>
      <point x="771" y="267"/>
      <point x="746" y="251"/>
      <point x="736" y="223" type="curve"/>
      <point x="451" y="317" type="line"/>
      <point x="765" y="355" type="line"/>
      <point x="770" y="324"/>
      <point x="797" y="299"/>
      <point x="832" y="299" type="curve" smooth="yes"/>
      <point x="871" y="299"/>
      <point x="900" y="330"/>
      <point x="900" y="367" type="curve" smooth="yes"/>
      <point x="900" y="405"/>
      <point x="870" y="435"/>
      <point x="832" y="435" type="curve" smooth="yes"/>
      <point x="797" y="435"/>
      <point x="770" y="410"/>
      <point x="765" y="379" type="curve"/>
      <point x="451" y="417" type="line"/>
      <point x="736" y="511" type="line"/>
      <point x="746" y="483"/>
      <point x="771" y="467"/>
      <point x="800" y="467" type="curve" smooth="yes"/>
      <point x="839" y="467"/>
      <point x="868" y="499"/>
      <point x="868" y="536" type="curve" smooth="yes"/>
      <point x="868" y="574"/>
      <point x="836" y="603"/>
      <point x="799" y="603" type="curve" smooth="yes"/>
      <point x="761" y="603"/>
      <point x="731" y="571"/>
      <point x="731" y="536" type="curve" smooth="yes"/>
      <point x="731" y="534" type="line"/>
      <point x="439" y="505" type="line"/>
      <point x="660" y="636" type="line"/>
      <point x="671" y="618"/>
      <point x="695" y="606"/>
      <point x="717" y="606" type="curve" smooth="yes"/>
      <point x="756" y="606"/>
      <point x="785" y="635"/>
      <point x="785" y="674" type="curve" smooth="yes"/>
      <point x="785" y="711"/>
      <point x="756" y="742"/>
      <point x="719" y="742" type="curve" smooth="yes"/>
      <point x="678" y="742"/>
      <point x="649" y="713"/>
      <point x="649" y="675" type="curve" smooth="yes"/>
      <point x="649" y="667"/>
      <point x="650" y="661"/>
      <point x="651" y="657" type="curve"/>
      <point x="372" y="565" type="line"/>
      <point x="157" y="568" type="line" smooth="yes"/>
      <point x="139" y="568"/>
      <point x="125" y="550"/>
      <point x="115" y="514" type="curve" smooth="yes"/>
      <point x="105" y="478"/>
      <point x="99" y="429"/>
    </contour>
    <contour>
      <point x="189" y="535" type="curve"/>
      <point x="205" y="535" type="line"/>
      <point x="215" y="511"/>
      <point x="225" y="423"/>
      <point x="225" y="367" type="curve" smooth="yes"/>
      <point x="225" y="309"/>
      <point x="215" y="222"/>
      <point x="205" y="198" type="curve"/>
      <point x="189" y="198" type="line"/>
      <point x="201" y="233"/>
      <point x="207" y="303"/>
      <point x="207" y="367" type="curve" smooth="yes"/>
      <point x="207" y="432"/>
      <point x="201" y="499"/>
    </contour>
    <contour>
      <point x="247" y="534" type="curve"/>
      <point x="265" y="534" type="line"/>
      <point x="275" y="510"/>
      <point x="285" y="422"/>
      <point x="285" y="367" type="curve" smooth="yes"/>
      <point x="285" y="311"/>
      <point x="274" y="222"/>
      <point x="265" y="199" type="curve"/>
      <point x="247" y="199" type="line"/>
      <point x="260" y="242"/>
      <point x="267" y="311"/>
      <point x="267" y="367" type="curve" smooth="yes"/>
      <point x="267" y="437"/>
      <point x="260" y="493"/>
    </contour>
    <contour>
      <point x="307" y="533" type="curve"/>
      <point x="325" y="533" type="line"/>
      <point x="334" y="510"/>
      <point x="345" y="424"/>
      <point x="345" y="367" type="curve" smooth="yes"/>
      <point x="345" y="313"/>
      <point x="335" y="224"/>
      <point x="325" y="200" type="curve"/>
      <point x="307" y="200" type="line"/>
      <point x="321" y="241"/>
      <point x="327" y="309"/>
      <point x="327" y="367" type="curve" smooth="yes"/>
      <point x="327" y="436"/>
      <point x="320" y="492"/>
    </contour>
    <contour>
      <point x="701" y="692" type="curve" smooth="yes"/>
      <point x="701" y="706"/>
      <point x="712" y="717"/>
      <point x="726" y="717" type="curve" smooth="yes"/>
      <point x="740" y="717"/>
      <point x="751" y="706"/>
      <point x="751" y="692" type="curve" smooth="yes"/>
      <point x="751" y="678"/>
      <point x="740" y="667"/>
      <point x="726" y="667" type="curve" smooth="yes"/>
      <point x="712" y="667"/>
      <point x="701" y="678"/>
    </contour>
    <contour>
      <point x="782" y="552" type="curve" smooth="yes"/>
      <point x="782" y="566"/>
      <point x="793" y="577"/>
      <point x="807" y="577" type="curve" smooth="yes"/>
      <point x="821" y="577"/>
      <point x="832" y="566"/>
      <point x="832" y="552" type="curve" smooth="yes"/>
      <point x="832" y="538"/>
      <point x="821" y="527"/>
      <point x="807" y="527" type="curve" smooth="yes"/>
      <point x="793" y="527"/>
      <point x="782" y="538"/>
    </contour>
    <contour>
      <point x="814" y="385" type="curve" smooth="yes"/>
      <point x="814" y="399"/>
      <point x="825" y="410"/>
      <point x="839" y="410" type="curve" smooth="yes"/>
      <point x="853" y="410"/>
      <point x="864" y="399"/>
      <point x="864" y="385" type="curve" smooth="yes"/>
      <point x="864" y="371"/>
      <point x="853" y="360"/>
      <point x="839" y="360" type="curve" smooth="yes"/>
      <point x="825" y="360"/>
      <point x="814" y="371"/>
    </contour>
    <contour>
      <point x="782" y="217" type="curve" smooth="yes"/>
      <point x="782" y="231"/>
      <point x="793" y="242"/>
      <point x="807" y="242" type="curve" smooth="yes"/>
      <point x="821" y="242"/>
      <point x="832" y="231"/>
      <point x="832" y="217" type="curve" smooth="yes"/>
      <point x="832" y="203"/>
      <point x="821" y="192"/>
      <point x="807" y="192" type="curve" smooth="yes"/>
      <point x="793" y="192"/>
      <point x="782" y="203"/>
    </contour>
    <contour>
      <point x="701" y="78" type="curve" smooth="yes"/>
      <point x="701" y="92"/>
      <point x="712" y="103"/>
      <point x="726" y="103" type="curve" smooth="yes"/>
      <point x="740" y="103"/>
      <point x="751" y="92"/>
      <point x="751" y="78" type="curve" smooth="yes"/>
      <point x="751" y="64"/>
      <point x="740" y="53"/>
      <point x="726" y="53" type="curve" smooth="yes"/>
      <point x="712" y="53"/>
      <point x="701" y="64"/>
    </contour>
  </outline>
</glyph>
<glyph name="u1FA11" format="2">
  <advance width="1000"/>
  <unicode hex="1FA11"/>
  <outline>
    <contour>
      <point x="141" y="684" type="line"/>
      <point x="141" y="35" type="line"/>
      <point x="232" y="35" type="line"/>
      <point x="232" y="95" type="line"/>
      <point x="300" y="95" type="line"/>
      <point x="300" y="138" type="line"/>
      <point x="368" y="175" type="line"/>
      <point x="672" y="175" type="line"/>
      <point x="740" y="138" type="line"/>
      <point x="740" y="95" type="line"/>
      <point x="860" y="95" type="line"/>
      <point x="860" y="219" type="line"/>
      <point x="831" y="219" type="line"/>
      <point x="831" y="279" type="line"/>
      <point x="856" y="279" type="line"/>
      <point x="856" y="440" type="line"/>
      <point x="831" y="440" type="line"/>
      <point x="831" y="500" type="line"/>
      <point x="860" y="500" type="line"/>
      <point x="860" y="624" type="line"/>
      <point x="740" y="624" type="line"/>
      <point x="740" y="582" type="line"/>
      <point x="672" y="544" type="line"/>
      <point x="368" y="544" type="line"/>
      <point x="300" y="582" type="line"/>
      <point x="300" y="624" type="line"/>
      <point x="232" y="624" type="line"/>
      <point x="232" y="684" type="line"/>
    </contour>
    <contour>
      <point x="174" y="654" type="line"/>
      <point x="195" y="654" type="line"/>
      <point x="195" y="65" type="line"/>
      <point x="174" y="65" type="line"/>
    </contour>
    <contour>
      <point x="242" y="594" type="line"/>
      <point x="263" y="594" type="line"/>
      <point x="263" y="125" type="line"/>
      <point x="242" y="125" type="line"/>
    </contour>
    <contour>
      <point x="310" y="549" type="line"/>
      <point x="331" y="537" type="line"/>
      <point x="331" y="182" type="line"/>
      <point x="310" y="170" type="line"/>
    </contour>
    <contour>
      <point x="705" y="534" type="line"/>
      <point x="726" y="546" type="line"/>
      <point x="726" y="173" type="line"/>
      <point x="705" y="185" type="line"/>
    </contour>
    <contour>
      <point x="763" y="594" type="line"/>
      <point x="784" y="594" type="line"/>
      <point x="784" y="125" type="line"/>
      <point x="763" y="125" type="line"/>
    </contour>
  </outline>
</glyph>
<glyph name="u1FA12" format="2">
  <advance width="1000"/>
  <unicode hex="1FA12"/>
  <outline>
    <contour>
      <point x="105" y="693" type="line"/>
      <point x="105" y="668" type="line"/>
      <point x="134" y="663"/>
      <point x="148" y="638"/>
      <point x="148" y="592" type="curve" smooth="yes"/>
      <point x="148" y="405" type="line" smooth="yes"/>
      <point x="148" y="376"/>
      <point x="157" y="356"/>
      <point x="175" y="346" type="curve"/>
      <point x="157" y="336"/>
      <point x="148" y="316"/>
      <point x="148" y="287" type="curve" smooth="yes"/>
      <point x="148" y="100" type="line" smooth="yes"/>
      <point x="148" y="54"/>
      <point x="134" y="29"/>
      <point x="105" y="24" type="curve"/>
      <point x="105" y="-1" type="line"/>
      <point x="202" y="-1" type="line"/>
      <point x="221" y="20"/>
      <point x="235" y="61"/>
      <point x="235" y="108" type="curve" smooth="yes"/>
      <point x="235" y="252" type="line" smooth="yes"/>
      <point x="235" y="283"/>
      <point x="237" y="299"/>
      <point x="258" y="299" type="curve"/>
      <point x="263" y="222"/>
      <point x="280" y="184"/>
      <point x="307" y="184" type="curve" smooth="yes"/>
      <point x="311" y="184"/>
      <point x="315" y="185"/>
      <point x="319" y="187" type="curve" smooth="yes"/>
      <point x="409" y="222" type="line"/>
      <point x="438" y="175"/>
      <point x="498" y="146"/>
      <point x="561" y="146" type="curve" smooth="yes"/>
      <point x="647" y="146"/>
      <point x="730" y="211"/>
      <point x="790" y="318" type="curve"/>
      <point x="800" y="301"/>
      <point x="818" y="290"/>
      <point x="839" y="290" type="curve" smooth="yes"/>
      <point x="870" y="290"/>
      <point x="895" y="315"/>
      <point x="895" y="346" type="curve" smooth="yes"/>
      <point x="895" y="377"/>
      <point x="870" y="402"/>
      <point x="839" y="402" type="curve" smooth="yes"/>
      <point x="818" y="402"/>
      <point x="800" y="391"/>
      <point x="790" y="374" type="curve"/>
      <point x="730" y="481"/>
      <point x="647" y="546"/>
      <point x="561" y="546" type="curve" smooth="yes"/>
      <point x="498" y="546"/>
      <point x="438" y="517"/>
      <point x="409" y="470" type="curve"/>
      <point x="319" y="505" type="line" smooth="yes"/>
      <point x="315" y="507"/>
      <point x="311" y="508"/>
      <point x="307" y="508" type="curve" smooth="yes"/>
      <point x="280" y="508"/>
      <point x="263" y="470"/>
      <point x="258" y="393" type="curve"/>
      <point x="237" y="393"/>
      <point x="235" y="409"/>
      <point x="235" y="440" type="curve" smooth="yes"/>
      <point x="235" y="584" type="line" smooth="yes"/>
      <point x="235" y="631"/>
      <point x="221" y="672"/>
      <point x="202" y="693" type="curve"/>
    </contour>
    <contour>
      <point x="290" y="346" type="curve" smooth="yes"/>
      <point x="290" y="383"/>
      <point x="292" y="409"/>
      <point x="295" y="426" type="curve" smooth="yes"/>
      <point x="298" y="443"/>
      <point x="302" y="452"/>
      <point x="307" y="452" type="curve" smooth="yes"/>
      <point x="312" y="452"/>
      <point x="316" y="443"/>
      <point x="320" y="424" type="curve" smooth="yes"/>
      <point x="324" y="405"/>
      <point x="325" y="379"/>
      <point x="325" y="346" type="curve" smooth="yes"/>
      <point x="325" y="313"/>
      <point x="324" y="287"/>
      <point x="320" y="268" type="curve" smooth="yes"/>
      <point x="316" y="249"/>
      <point x="312" y="240"/>
      <point x="307" y="240" type="curve" smooth="yes"/>
      <point x="302" y="240"/>
      <point x="298" y="249"/>
      <point x="295" y="266" type="curve" smooth="yes"/>
      <point x="292" y="283"/>
      <point x="290" y="309"/>
    </contour>
    <contour>
      <point x="347" y="443" type="curve"/>
      <point x="384" y="428" type="line"/>
      <point x="379" y="399"/>
      <point x="376" y="374"/>
      <point x="376" y="346" type="curve" smooth="yes"/>
      <point x="376" y="318"/>
      <point x="379" y="293"/>
      <point x="384" y="264" type="curve"/>
      <point x="347" y="249" type="line"/>
      <point x="354" y="269"/>
      <point x="357" y="302"/>
      <point x="357" y="346" type="curve" smooth="yes"/>
      <point x="357" y="390"/>
      <point x="354" y="423"/>
    </contour>
    <contour>
      <point x="446" y="363" type="line"/>
      <point x="624" y="363" type="line"/>
      <point x="624" y="443" type="line"/>
      <point x="656" y="443" type="line"/>
      <point x="656" y="363" type="line"/>
      <point x="736" y="363" type="line"/>
      <point x="736" y="329" type="line"/>
      <point x="656" y="329" type="line"/>
      <point x="656" y="249" type="line"/>
      <point x="624" y="249" type="line"/>
      <point x="624" y="329" type="line"/>
      <point x="446" y="329" type="line"/>
    </contour>
  </outline>
</glyph>
<glyph name="u1FA13" format="2">
  <advance width="1000"/>
  <unicode hex="1FA13"/>
  <outline>
    <contour>
      <point x="116" y="548" type="curve"/>
      <point x="116" y="44" type="line"/>
      <point x="125" y="44" type="line" smooth="yes"/>
      <point x="230" y="44"/>
      <point x="328" y="53"/>
      <point x="420" y="72" type="curve" smooth="yes"/>
      <point x="604" y="110"/>
      <point x="728" y="224"/>
      <point x="763" y="347" type="curve"/>
      <point x="814" y="347"/>
      <point x="861" y="373"/>
      <point x="883" y="413" type="curve"/>
      <point x="883" y="448" type="line"/>
      <point x="874" y="447"/>
      <point x="861" y="446"/>
      <point x="849" y="446" type="curve" smooth="yes"/>
      <point x="830" y="446"/>
      <point x="796" y="449"/>
      <point x="784" y="454" type="curve"/>
      <point x="784" y="460" type="line"/>
      <point x="817" y="467"/>
      <point x="841" y="489"/>
      <point x="854" y="524" type="curve"/>
      <point x="854" y="548" type="line"/>
      <point x="833" y="543"/>
      <point x="812" y="540"/>
      <point x="791" y="540" type="curve" smooth="yes"/>
      <point x="770" y="540"/>
      <point x="749" y="543"/>
      <point x="730" y="549" type="curve"/>
      <point x="699" y="605"/>
      <point x="679" y="612"/>
      <point x="621" y="628" type="curve" smooth="yes"/>
      <point x="592" y="636"/>
      <point x="570" y="646"/>
      <point x="556" y="657" type="curve" smooth="yes"/>
      <point x="542" y="668"/>
      <point x="518" y="681"/>
      <point x="483" y="693" type="curve" smooth="yes"/>
      <point x="449" y="705"/>
      <point x="422" y="715"/>
      <point x="405" y="724" type="curve"/>
      <point x="334" y="679" type="line" smooth="yes"/>
      <point x="313" y="666"/>
      <point x="306" y="645"/>
      <point x="306" y="610" type="curve" smooth="yes"/>
      <point x="306" y="594"/>
      <point x="319" y="576"/>
      <point x="345" y="556" type="curve" smooth="yes"/>
      <point x="372" y="536"/>
      <point x="390" y="518"/>
      <point x="401" y="502" type="curve"/>
      <point x="404" y="471"/>
      <point x="407" y="449"/>
      <point x="411" y="436" type="curve" smooth="yes"/>
      <point x="419" y="409"/>
      <point x="444" y="390"/>
      <point x="455" y="388" type="curve"/>
      <point x="455" y="384" type="line"/>
      <point x="451" y="383"/>
      <point x="442" y="382"/>
      <point x="437" y="382" type="curve" smooth="yes"/>
      <point x="409" y="382"/>
      <point x="386" y="398"/>
      <point x="343" y="441" type="curve" smooth="yes"/>
      <point x="307" y="477"/>
      <point x="282" y="499"/>
      <point x="268" y="509" type="curve" smooth="yes"/>
      <point x="240" y="529"/>
      <point x="181" y="548"/>
    </contour>
    <contour>
      <point x="395" y="626" type="curve"/>
      <point x="396" y="634"/>
      <point x="406" y="648"/>
      <point x="417" y="653" type="curve"/>
      <point x="444" y="646"/>
      <point x="463" y="622"/>
      <point x="465" y="585" type="curve"/>
      <point x="460" y="581" type="line"/>
      <point x="441" y="608"/>
      <point x="413" y="622"/>
    </contour>
    <contour>
      <point x="610" y="526" type="curve" smooth="yes"/>
      <point x="610" y="542"/>
      <point x="612" y="552"/>
      <point x="616" y="557" type="curve"/>
      <point x="620" y="558" type="line"/>
      <point x="627" y="558" type="line" smooth="yes"/>
      <point x="641" y="558"/>
      <point x="650" y="543"/>
      <point x="650" y="521" type="curve" smooth="yes"/>
      <point x="650" y="513"/>
      <point x="648" y="504"/>
      <point x="646" y="496" type="curve" smooth="yes"/>
      <point x="638" y="468" type="line"/>
      <point x="629" y="468" type="line"/>
      <point x="630" y="476" type="line" smooth="yes"/>
      <point x="630" y="486"/>
      <point x="626" y="494"/>
      <point x="620" y="501" type="curve" smooth="yes"/>
      <point x="614" y="508"/>
      <point x="610" y="517"/>
    </contour>
    <contour>
      <point x="183" y="178" type="line"/>
      <point x="220" y="173"/>
      <point x="264" y="171"/>
      <point x="314" y="171" type="curve" smooth="yes"/>
      <point x="517" y="171"/>
      <point x="593" y="213"/>
      <point x="664" y="296" type="curve"/>
      <point x="670" y="287" type="line"/>
      <point x="650" y="255"/>
      <point x="618" y="225"/>
      <point x="575" y="195" type="curve" smooth="yes"/>
      <point x="490" y="135"/>
      <point x="339" y="112"/>
      <point x="183" y="112" type="curve"/>
    </contour>
  </outline>
</glyph>
<glyph name="u1FA14" format="2">
  <advance width="1000"/>
  <unicode hex="1FA14"/>
  <outline>
    <contour>
      <point x="122" y="692" type="line"/>
      <point x="122" y="64" type="line"/>
      <point x="159" y="64" type="line" smooth="yes"/>
      <point x="314" y="64"/>
      <point x="441" y="140"/>
      <point x="482" y="264" type="curve"/>
      <point x="511" y="219"/>
      <point x="548" y="196"/>
      <point x="595" y="196" type="curve" smooth="yes"/>
      <point x="665" y="196"/>
      <point x="720" y="243"/>
      <point x="745" y="323" type="curve"/>
      <point x="754" y="296"/>
      <point x="779" y="277"/>
      <point x="810" y="277" type="curve" smooth="yes"/>
      <point x="851" y="277"/>
      <point x="877" y="317"/>
      <point x="877" y="378" type="curve" smooth="yes"/>
      <point x="877" y="440"/>
      <point x="851" y="479"/>
      <point x="810" y="479" type="curve" smooth="yes"/>
      <point x="779" y="479"/>
      <point x="755" y="461"/>
      <point x="745" y="433" type="curve"/>
      <point x="720" y="514"/>
      <point x="665" y="560"/>
      <point x="595" y="560" type="curve" smooth="yes"/>
      <point x="548" y="560"/>
      <point x="511" y="537"/>
      <point x="482" y="492" type="curve"/>
      <point x="441" y="614"/>
      <point x="315" y="692"/>
      <point x="159" y="692" type="curve" smooth="yes"/>
    </contour>
    <contour>
      <point x="184" y="640" type="line"/>
      <point x="208" y="640" type="line" smooth="yes"/>
      <point x="309" y="640"/>
      <point x="393" y="590"/>
      <point x="420" y="508" type="curve"/>
      <point x="377" y="567"/>
      <point x="311" y="602"/>
      <point x="198" y="606" type="curve" smooth="yes"/>
      <point x="184" y="606" type="line"/>
    </contour>
    <contour>
      <point x="518" y="472" type="curve"/>
      <point x="527" y="498"/>
      <point x="562" y="523"/>
      <point x="600" y="523" type="curve" smooth="yes"/>
      <point x="658" y="523"/>
      <point x="705" y="474"/>
      <point x="707" y="439" type="curve"/>
      <point x="681" y="480"/>
      <point x="647" y="498"/>
      <point x="601" y="498" type="curve" smooth="yes"/>
      <point x="564" y="498"/>
      <point x="543" y="490"/>
    </contour>
    <contour>
      <point x="766" y="433" type="curve"/>
      <point x="768" y="445"/>
      <point x="786" y="458"/>
      <point x="805" y="458" type="curve" smooth="yes"/>
      <point x="833" y="458"/>
      <point x="855" y="432"/>
      <point x="855" y="417" type="curve"/>
      <point x="843" y="436"/>
      <point x="827" y="446"/>
      <point x="806" y="446" type="curve" smooth="yes"/>
      <point x="787" y="446"/>
      <point x="773" y="442"/>
    </contour>
  </outline>
</glyph>
<glyph name="u1FA17" format="2">
  <advance width="1000"/>
  <unicode hex="1FA17"/>
  <outline>
    <contour>
      <point x="141" y="684" type="line"/>
      <point x="141" y="35" type="line"/>
      <point x="232" y="35" type="line"/>
      <point x="232" y="95" type="line"/>
      <point x="300" y="95" type="line"/>
      <point x="300" y="138" type="line"/>
      <point x="368" y="175" type="line"/>
      <point x="672" y="175" type="line"/>
      <point x="740" y="138" type="line"/>
      <point x="740" y="95" type="line"/>
      <point x="860" y="95" type="line"/>
      <point x="860" y="219" type="line"/>
      <point x="831" y="219" type="line"/>
      <point x="831" y="279" type="line"/>
      <point x="856" y="279" type="line"/>
      <point x="856" y="440" type="line"/>
      <point x="831" y="440" type="line"/>
      <point x="831" y="500" type="line"/>
      <point x="860" y="500" type="line"/>
      <point x="860" y="624" type="line"/>
      <point x="740" y="624" type="line"/>
      <point x="740" y="582" type="line"/>
      <point x="672" y="544" type="line"/>
      <point x="368" y="544" type="line"/>
      <point x="300" y="582" type="line"/>
      <point x="300" y="624" type="line"/>
      <point x="232" y="624" type="line"/>
      <point x="232" y="684" type="line"/>
    </contour>
    <contour>
      <point x="174" y="654" type="line"/>
      <point x="195" y="654" type="line"/>
      <point x="195" y="360" type="line"/>
      <point x="174" y="360" type="line"/>
    </contour>
    <contour>
      <point x="242" y="594" type="line"/>
      <point x="263" y="594" type="line"/>
      <point x="263" y="360" type="line"/>
      <point x="242" y="360" type="line"/>
    </contour>
    <contour>
      <point x="310" y="549" type="line"/>
      <point x="331" y="537" type="line"/>
      <point x="331" y="360" type="line"/>
      <point x="310" y="360" type="line"/>
    </contour>
    <contour>
      <point x="169" y="360" type="line"/>
      <point x="204" y="360" type="line"/>
      <point x="204" y="78" type="line"/>
      <point x="169" y="78" type="line"/>
    </contour>
    <contour>
      <point x="237" y="360" type="line"/>
      <point x="272" y="360" type="line"/>
      <point x="272" y="138" type="line"/>
      <point x="237" y="138" type="line"/>
    </contour>
    <contour>
      <point x="305" y="360" type="line"/>
      <point x="340" y="360" type="line"/>
      <point x="340" y="203" type="line"/>
      <point x="305" y="183" type="line"/>
    </contour>
    <contour>
      <point x="373" y="360" type="line"/>
      <point x="667" y="360" type="line"/>
      <point x="667" y="218" type="line"/>
      <point x="373" y="218" type="line"/>
    </contour>
    <contour>
      <point x="705" y="534" type="line"/>
      <point x="726" y="546" type="line"/>
      <point x="726" y="360" type="line"/>
      <point x="705" y="360" type="line"/>
    </contour>
    <contour>
      <point x="763" y="594" type="line"/>
      <point x="784" y="594" type="line"/>
      <point x="784" y="360" type="line"/>
      <point x="763" y="360" type="line"/>
    </contour>
    <contour>
      <point x="700" y="360" type="line"/>
      <point x="735" y="360" type="line"/>
      <point x="735" y="183" type="line"/>
      <point x="700" y="202" type="line"/>
    </contour>
    <contour>
      <point x="768" y="360" type="line"/>
      <point x="823" y="360" type="line"/>
      <point x="823" y="305" type="line"/>
      <point x="798" y="305" type="line"/>
      <point x="798" y="193" type="line"/>
      <point x="827" y="193" type="line"/>
      <point x="827" y="138" type="line"/>
      <point x="768" y="138" type="line"/>
    </contour>
  </outline>
</glyph>
<glyph name="u1FA1E" format="2">
  <advance width="1000"/>
  <unicode hex="1FA1E"/>
  <outline>
    <contour>
      <point x="500" y="753" type="curve" smooth="yes"/>
      <point x="438" y="753"/>
      <point x="390" y="748"/>
      <point x="353" y="738" type="curve" smooth="yes"/>
      <point x="317" y="728"/>
      <point x="299" y="713"/>
      <point x="299" y="695" type="curve"/>
      <point x="313" y="492" type="line"/>
      <point x="232" y="405"/>
      <point x="203" y="340"/>
      <point x="203" y="283" type="curve" smooth="yes"/>
      <point x="203" y="199"/>
      <point x="249" y="146"/>
      <point x="325" y="146" type="curve" smooth="yes"/>
      <point x="370" y="146"/>
      <point x="408" y="162"/>
      <point x="439" y="194" type="curve"/>
      <point x="435" y="130" type="line" smooth="yes"/>
      <point x="433" y="103"/>
      <point x="451" y="88"/>
      <point x="483" y="83" type="curve"/>
      <point x="483" y="27" type="line"/>
      <point x="442" y="27" type="line"/>
      <point x="442" y="3" type="line"/>
      <point x="483" y="3" type="line"/>
      <point x="483" y="-34" type="line"/>
      <point x="517" y="-34" type="line"/>
      <point x="517" y="3" type="line"/>
      <point x="558" y="3" type="line"/>
      <point x="558" y="27" type="line"/>
      <point x="517" y="27" type="line"/>
      <point x="517" y="83" type="line"/>
      <point x="549" y="88"/>
      <point x="567" y="103"/>
      <point x="565" y="128" type="curve" smooth="yes"/>
      <point x="561" y="194" type="line"/>
      <point x="593" y="162"/>
      <point x="631" y="146"/>
      <point x="675" y="146" type="curve" smooth="yes"/>
      <point x="751" y="146"/>
      <point x="797" y="199"/>
      <point x="797" y="283" type="curve" smooth="yes"/>
      <point x="797" y="344"/>
      <point x="761" y="414"/>
      <point x="687" y="492" type="curve"/>
      <point x="701" y="695" type="line"/>
      <point x="701" y="713"/>
      <point x="683" y="727"/>
      <point x="647" y="737" type="curve" smooth="yes"/>
      <point x="611" y="747"/>
      <point x="562" y="753"/>
    </contour>
    <contour>
      <point x="500" y="724" type="curve" smooth="yes"/>
      <point x="605" y="724"/>
      <point x="658" y="714"/>
      <point x="658" y="693" type="curve" smooth="yes"/>
      <point x="658" y="684"/>
      <point x="644" y="676"/>
      <point x="616" y="670" type="curve" smooth="yes"/>
      <point x="588" y="664"/>
      <point x="550" y="662"/>
      <point x="500" y="662" type="curve" smooth="yes"/>
      <point x="450" y="662"/>
      <point x="411" y="665"/>
      <point x="383" y="670" type="curve" smooth="yes"/>
      <point x="356" y="675"/>
      <point x="342" y="684"/>
      <point x="342" y="693" type="curve" smooth="yes"/>
      <point x="342" y="714"/>
      <point x="395" y="724"/>
    </contour>
    <contour>
      <point x="652" y="651" type="curve"/>
      <point x="649" y="596" type="line"/>
      <point x="612" y="585"/>
      <point x="553" y="576"/>
      <point x="500" y="576" type="curve" smooth="yes"/>
      <point x="447" y="576"/>
      <point x="397" y="583"/>
      <point x="351" y="596" type="curve"/>
      <point x="348" y="651" type="line"/>
      <point x="384" y="639"/>
      <point x="434" y="633"/>
      <point x="500" y="633" type="curve" smooth="yes"/>
      <point x="566" y="633"/>
      <point x="617" y="639"/>
    </contour>
    <contour>
      <point x="647" y="564" type="curve"/>
      <point x="642" y="506" type="line"/>
      <point x="599" y="495"/>
      <point x="552" y="489"/>
      <point x="500" y="489" type="curve" smooth="yes"/>
      <point x="449" y="489"/>
      <point x="402" y="495"/>
      <point x="358" y="506" type="curve"/>
      <point x="353" y="564" type="line"/>
      <point x="375" y="556"/>
      <point x="445" y="547"/>
      <point x="500" y="547" type="curve" smooth="yes"/>
      <point x="559" y="547"/>
      <point x="627" y="556"/>
    </contour>
    <contour>
      <point x="653" y="472" type="curve"/>
      <point x="710" y="413"/>
      <point x="752" y="339"/>
      <point x="752" y="288" type="curve" smooth="yes"/>
      <point x="752" y="225"/>
      <point x="723" y="188"/>
      <point x="673" y="188" type="curve" smooth="yes"/>
      <point x="588" y="188"/>
      <point x="521" y="309"/>
      <point x="521" y="425" type="curve" smooth="yes"/>
      <point x="521" y="457" type="line"/>
      <point x="558" y="457"/>
      <point x="603" y="462"/>
    </contour>
    <contour>
      <point x="500" y="297" type="curve"/>
      <point x="510" y="271"/>
      <point x="519" y="251"/>
      <point x="528" y="236" type="curve"/>
      <point x="528" y="141" type="line" smooth="yes"/>
      <point x="528" y="119"/>
      <point x="519" y="108"/>
      <point x="500" y="108" type="curve" smooth="yes"/>
      <point x="482" y="108"/>
      <point x="472" y="117"/>
      <point x="472" y="141" type="curve" smooth="yes"/>
      <point x="472" y="236" type="line"/>
      <point x="482" y="251"/>
      <point x="492" y="272"/>
    </contour>
    <contour>
      <point x="347" y="472" type="curve"/>
      <point x="390" y="464"/>
      <point x="447" y="457"/>
      <point x="479" y="457" type="curve"/>
      <point x="479" y="421" type="line" smooth="yes"/>
      <point x="479" y="311"/>
      <point x="413" y="188"/>
      <point x="327" y="188" type="curve" smooth="yes"/>
      <point x="275" y="188"/>
      <point x="248" y="228"/>
      <point x="248" y="288" type="curve" smooth="yes"/>
      <point x="248" y="339"/>
      <point x="288" y="411"/>
    </contour>
  </outline>
</glyph>
<glyph name="u1FA20" format="2">
  <advance width="1000"/>
  <unicode hex="1FA20"/>
  <outline>
    <contour>
      <point x="825" y="719" type="line"/>
      <point x="176" y="719" type="line"/>
      <point x="176" y="628" type="line"/>
      <point x="236" y="628" type="line"/>
      <point x="236" y="560" type="line"/>
      <point x="279" y="560" type="line"/>
      <point x="316" y="492" type="line"/>
      <point x="316" y="188" type="line"/>
      <point x="279" y="120" type="line"/>
      <point x="236" y="120" type="line"/>
      <point x="236" y="0" type="line"/>
      <point x="360" y="0" type="line"/>
      <point x="360" y="29" type="line"/>
      <point x="420" y="29" type="line"/>
      <point x="420" y="4" type="line"/>
      <point x="581" y="4" type="line"/>
      <point x="581" y="29" type="line"/>
      <point x="641" y="29" type="line"/>
      <point x="641" y="0" type="line"/>
      <point x="765" y="0" type="line"/>
      <point x="765" y="120" type="line"/>
      <point x="723" y="120" type="line"/>
      <point x="685" y="188" type="line"/>
      <point x="685" y="492" type="line"/>
      <point x="723" y="560" type="line"/>
      <point x="765" y="560" type="line"/>
      <point x="765" y="628" type="line"/>
      <point x="825" y="628" type="line"/>
    </contour>
    <contour>
      <point x="782" y="691" type="line"/>
      <point x="782" y="656" type="line"/>
      <point x="219" y="656" type="line"/>
      <point x="219" y="691" type="line"/>
    </contour>
    <contour>
      <point x="722" y="623" type="line"/>
      <point x="722" y="588" type="line"/>
      <point x="279" y="588" type="line"/>
      <point x="279" y="623" type="line"/>
    </contour>
    <contour>
      <point x="677" y="555" type="line"/>
      <point x="658" y="520" type="line"/>
      <point x="344" y="520" type="line"/>
      <point x="324" y="555" type="line"/>
    </contour>
    <contour>
      <point x="642" y="487" type="line"/>
      <point x="642" y="193" type="line"/>
      <point x="359" y="193" type="line"/>
      <point x="359" y="487" type="line"/>
    </contour>
    <contour>
      <point x="656" y="160" type="line"/>
      <point x="677" y="125" type="line"/>
      <point x="324" y="125" type="line"/>
      <point x="343" y="160" type="line"/>
    </contour>
    <contour>
      <point x="722" y="92" type="line"/>
      <point x="722" y="33" type="line"/>
      <point x="667" y="33" type="line"/>
      <point x="667" y="62" type="line"/>
      <point x="555" y="62" type="line"/>
      <point x="555" y="37" type="line"/>
      <point x="446" y="37" type="line"/>
      <point x="446" y="62" type="line"/>
      <point x="334" y="62" type="line"/>
      <point x="334" y="33" type="line"/>
      <point x="279" y="33" type="line"/>
      <point x="279" y="92" type="line"/>
    </contour>
  </outline>
</glyph>
<glyph name="u1FA22" format="2">
  <advance width="1000"/>
  <unicode hex="1FA22"/>
  <outline>
    <contour>
      <point x="664" y="767" type="curve"/>
      <point x="160" y="767" type="line"/>
      <point x="160" y="758" type="line" smooth="yes"/>
      <point x="160" y="653"/>
      <point x="169" y="555"/>
      <point x="188" y="463" type="curve" smooth="yes"/>
      <point x="226" y="279"/>
      <point x="340" y="155"/>
      <point x="463" y="120" type="curve"/>
      <point x="463" y="69"/>
      <point x="489" y="22"/>
      <point x="529" y="0" type="curve"/>
      <point x="564" y="0" type="line"/>
      <point x="563" y="9"/>
      <point x="562" y="22"/>
      <point x="562" y="34" type="curve" smooth="yes"/>
      <point x="562" y="53"/>
      <point x="565" y="87"/>
      <point x="570" y="99" type="curve"/>
      <point x="576" y="99" type="line"/>
      <point x="583" y="66"/>
      <point x="605" y="42"/>
      <point x="640" y="29" type="curve"/>
      <point x="664" y="29" type="line"/>
      <point x="659" y="50"/>
      <point x="656" y="71"/>
      <point x="656" y="92" type="curve" smooth="yes"/>
      <point x="656" y="113"/>
      <point x="659" y="134"/>
      <point x="665" y="153" type="curve"/>
      <point x="721" y="184"/>
      <point x="728" y="204"/>
      <point x="744" y="262" type="curve" smooth="yes"/>
      <point x="752" y="291"/>
      <point x="762" y="313"/>
      <point x="773" y="327" type="curve" smooth="yes"/>
      <point x="784" y="341"/>
      <point x="797" y="365"/>
      <point x="809" y="400" type="curve" smooth="yes"/>
      <point x="821" y="434"/>
      <point x="831" y="461"/>
      <point x="840" y="478" type="curve"/>
      <point x="795" y="549" type="line" smooth="yes"/>
      <point x="782" y="570"/>
      <point x="761" y="577"/>
      <point x="726" y="577" type="curve" smooth="yes"/>
      <point x="710" y="577"/>
      <point x="692" y="564"/>
      <point x="672" y="538" type="curve" smooth="yes"/>
      <point x="652" y="511"/>
      <point x="634" y="493"/>
      <point x="618" y="482" type="curve"/>
      <point x="587" y="479"/>
      <point x="565" y="476"/>
      <point x="552" y="472" type="curve" smooth="yes"/>
      <point x="525" y="464"/>
      <point x="506" y="439"/>
      <point x="504" y="428" type="curve"/>
      <point x="500" y="428" type="line"/>
      <point x="499" y="432"/>
      <point x="498" y="441"/>
      <point x="498" y="446" type="curve" smooth="yes"/>
      <point x="498" y="474"/>
      <point x="514" y="497"/>
      <point x="557" y="540" type="curve" smooth="yes"/>
      <point x="593" y="576"/>
      <point x="615" y="601"/>
      <point x="625" y="615" type="curve" smooth="yes"/>
      <point x="645" y="643"/>
      <point x="664" y="702"/>
    </contour>
    <contour>
      <point x="742" y="488" type="curve"/>
      <point x="738" y="470"/>
      <point x="724" y="442"/>
      <point x="697" y="423" type="curve"/>
      <point x="701" y="418" type="line"/>
      <point x="738" y="420"/>
      <point x="762" y="438"/>
      <point x="769" y="466" type="curve"/>
      <point x="764" y="477"/>
      <point x="750" y="487"/>
    </contour>
    <contour>
      <point x="607" y="713" type="line"/>
      <point x="607" y="709" type="line" smooth="yes"/>
      <point x="607" y="658"/>
      <point x="580" y="624"/>
      <point x="521" y="560" type="curve" smooth="yes"/>
      <point x="480" y="515" type="line" smooth="yes"/>
      <point x="466" y="499"/>
      <point x="459" y="476"/>
      <point x="457" y="451" type="curve"/>
      <point x="472" y="397" type="line"/>
      <point x="519" y="397" type="line"/>
      <point x="520" y="407"/>
      <point x="533" y="425"/>
      <point x="552" y="432" type="curve" smooth="yes"/>
      <point x="571" y="439"/>
      <point x="626" y="450"/>
      <point x="631" y="450" type="curve"/>
      <point x="645" y="462"/>
      <point x="671" y="489"/>
      <point x="683" y="506" type="curve" smooth="yes"/>
      <point x="701" y="533"/>
      <point x="713" y="537"/>
      <point x="726" y="537" type="curve" smooth="yes"/>
      <point x="761" y="537"/>
      <point x="763" y="535"/>
      <point x="788" y="488" type="curve" smooth="yes"/>
      <point x="797" y="471" type="line"/>
      <point x="790" y="459"/>
      <point x="780" y="434"/>
      <point x="768" y="401" type="curve" smooth="yes"/>
      <point x="756" y="368"/>
      <point x="744" y="345"/>
      <point x="736" y="336" type="curve" smooth="yes"/>
      <point x="727" y="326"/>
      <point x="720" y="314"/>
      <point x="715" y="298" type="curve" smooth="yes"/>
      <point x="698" y="245"/>
      <point x="690" y="222"/>
      <point x="670" y="205" type="curve" smooth="yes"/>
      <point x="658" y="195"/>
      <point x="649" y="188"/>
      <point x="645" y="185" type="curve" smooth="yes"/>
      <point x="636" y="178"/>
      <point x="626" y="144"/>
      <point x="626" y="105" type="curve" smooth="yes"/>
      <point x="626" y="90"/>
      <point x="627" y="78"/>
      <point x="630" y="67" type="curve"/>
      <point x="609" y="84"/>
      <point x="603" y="98"/>
      <point x="603" y="130" type="curve" smooth="yes"/>
      <point x="603" y="140" type="line"/>
      <point x="557" y="140" type="line"/>
      <point x="545" y="125"/>
      <point x="535" y="88"/>
      <point x="535" y="54" type="curve" smooth="yes"/>
      <point x="535" y="47"/>
      <point x="535" y="41"/>
      <point x="536" y="34" type="curve"/>
      <point x="516" y="54"/>
      <point x="506" y="78"/>
      <point x="506" y="105" type="curve" smooth="yes"/>
      <point x="506" y="116"/>
      <point x="507" y="127"/>
      <point x="509" y="140" type="curve"/>
      <point x="358" y="183"/>
      <point x="222" y="333"/>
      <point x="222" y="686" type="curve" smooth="yes"/>
      <point x="222" y="713" type="line"/>
    </contour>
    <contour>
      <point x="642" y="273" type="curve" smooth="yes"/>
      <point x="633" y="273"/>
      <point x="624" y="269"/>
      <point x="617" y="263" type="curve" smooth="yes"/>
      <point x="610" y="257"/>
      <point x="602" y="253"/>
      <point x="592" y="253" type="curve" smooth="yes"/>
      <point x="584" y="254" type="line"/>
      <point x="584" y="245" type="line"/>
      <point x="612" y="237" type="line" smooth="yes"/>
      <point x="620" y="235"/>
      <point x="629" y="233"/>
      <point x="637" y="233" type="curve" smooth="yes"/>
      <point x="659" y="233"/>
      <point x="674" y="242"/>
      <point x="674" y="256" type="curve" smooth="yes"/>
      <point x="674" y="263" type="line"/>
      <point x="673" y="267" type="line"/>
      <point x="668" y="271"/>
      <point x="658" y="273"/>
    </contour>
    <contour>
      <point x="314" y="700" type="curve"/>
      <point x="248" y="700" type="line"/>
      <point x="248" y="621"/>
      <point x="254" y="547"/>
      <point x="267" y="476" type="curve" smooth="yes"/>
      <point x="293" y="335"/>
      <point x="361" y="252"/>
      <point x="423" y="213" type="curve"/>
      <point x="432" y="219" type="line"/>
      <point x="349" y="289"/>
      <point x="307" y="364"/>
      <point x="307" y="569" type="curve" smooth="yes"/>
      <point x="307" y="619"/>
      <point x="309" y="663"/>
    </contour>
  </outline>
</glyph>
<glyph name="u1FA23" format="2">
  <advance width="1000"/>
  <unicode hex="1FA23"/>
  <outline>
    <contour>
      <point x="814" y="755" type="line"/>
      <point x="186" y="755" type="line"/>
      <point x="186" y="718" type="line" smooth="yes"/>
      <point x="186" y="563"/>
      <point x="262" y="436"/>
      <point x="386" y="395" type="curve"/>
      <point x="341" y="366"/>
      <point x="318" y="329"/>
      <point x="318" y="282" type="curve" smooth="yes"/>
      <point x="318" y="212"/>
      <point x="365" y="157"/>
      <point x="445" y="132" type="curve"/>
      <point x="418" y="123"/>
      <point x="399" y="98"/>
      <point x="399" y="67" type="curve" smooth="yes"/>
      <point x="399" y="26"/>
      <point x="439" y="0"/>
      <point x="500" y="0" type="curve" smooth="yes"/>
      <point x="562" y="0"/>
      <point x="601" y="26"/>
      <point x="601" y="67" type="curve" smooth="yes"/>
      <point x="601" y="98"/>
      <point x="583" y="122"/>
      <point x="555" y="132" type="curve"/>
      <point x="636" y="157"/>
      <point x="682" y="212"/>
      <point x="682" y="282" type="curve" smooth="yes"/>
      <point x="682" y="329"/>
      <point x="659" y="366"/>
      <point x="614" y="395" type="curve"/>
      <point x="736" y="436"/>
      <point x="814" y="562"/>
      <point x="814" y="718" type="curve" smooth="yes"/>
    </contour>
    <contour>
      <point x="754" y="700" type="line"/>
      <point x="754" y="571"/>
      <point x="675" y="458"/>
      <point x="550" y="417" type="curve"/>
      <point x="550" y="379" type="line"/>
      <point x="603" y="355"/>
      <point x="629" y="322"/>
      <point x="629" y="280" type="curve" smooth="yes"/>
      <point x="629" y="218"/>
      <point x="591" y="175"/>
      <point x="515" y="149" type="curve"/>
      <point x="515" y="118" type="line"/>
      <point x="544" y="106"/>
      <point x="558" y="88"/>
      <point x="558" y="67" type="curve" smooth="yes"/>
      <point x="558" y="46"/>
      <point x="536" y="28"/>
      <point x="500" y="28" type="curve" smooth="yes"/>
      <point x="464" y="28"/>
      <point x="442" y="46"/>
      <point x="442" y="67" type="curve" smooth="yes"/>
      <point x="442" y="88"/>
      <point x="456" y="106"/>
      <point x="485" y="118" type="curve"/>
      <point x="485" y="149" type="line"/>
      <point x="409" y="175"/>
      <point x="371" y="218"/>
      <point x="371" y="280" type="curve" smooth="yes"/>
      <point x="371" y="322"/>
      <point x="397" y="355"/>
      <point x="450" y="379" type="curve"/>
      <point x="450" y="417" type="line"/>
      <point x="325" y="458"/>
      <point x="246" y="571"/>
      <point x="246" y="700" type="curve"/>
    </contour>
  </outline>
</glyph>
<glyph name="u1FA26" format="2">
  <advance width="1000"/>
  <unicode hex="1FA26"/>
  <outline>
    <contour>
      <point x="825" y="719" type="line"/>
      <point x="176" y="719" type="line"/>
      <point x="176" y="628" type="line"/>
      <point x="236" y="628" type="line"/>
      <point x="236" y="560" type="line"/>
      <point x="279" y="560" type="line"/>
      <point x="316" y="492" type="line"/>
      <point x="316" y="188" type="line"/>
      <point x="279" y="120" type="line"/>
      <point x="236" y="120" type="line"/>
      <point x="236" y="0" type="line"/>
      <point x="360" y="0" type="line"/>
      <point x="360" y="29" type="line"/>
      <point x="420" y="29" type="line"/>
      <point x="420" y="4" type="line"/>
      <point x="581" y="4" type="line"/>
      <point x="581" y="29" type="line"/>
      <point x="641" y="29" type="line"/>
      <point x="641" y="0" type="line"/>
      <point x="765" y="0" type="line"/>
      <point x="765" y="120" type="line"/>
      <point x="723" y="120" type="line"/>
      <point x="685" y="188" type="line"/>
      <point x="685" y="492" type="line"/>
      <point x="723" y="560" type="line"/>
      <point x="765" y="560" type="line"/>
      <point x="765" y="628" type="line"/>
      <point x="825" y="628" type="line"/>
    </contour>
    <contour>
      <point x="795" y="686" type="line"/>
      <point x="795" y="665" type="line"/>
      <point x="206" y="665" type="line"/>
      <point x="206" y="686" type="line"/>
    </contour>
    <contour>
      <point x="735" y="618" type="line"/>
      <point x="735" y="597" type="line"/>
      <point x="266" y="597" type="line"/>
      <point x="266" y="618" type="line"/>
    </contour>
    <contour>
      <point x="690" y="550" type="line"/>
      <point x="678" y="529" type="line"/>
      <point x="323" y="529" type="line"/>
      <point x="311" y="550" type="line"/>
    </contour>
    <contour>
      <point x="675" y="155" type="line"/>
      <point x="687" y="134" type="line"/>
      <point x="314" y="134" type="line"/>
      <point x="326" y="155" type="line"/>
    </contour>
    <contour>
      <point x="735" y="97" type="line"/>
      <point x="735" y="76" type="line"/>
      <point x="266" y="76" type="line"/>
      <point x="266" y="97" type="line"/>
    </contour>
  </outline>
</glyph>
<glyph name="u1FA27" format="2">
  <advance width="1000"/>
  <unicode hex="1FA27"/>
  <outline>
    <contour>
      <point x="847" y="741" type="line"/>
      <point x="822" y="741" type="line"/>
      <point x="817" y="712"/>
      <point x="792" y="698"/>
      <point x="746" y="698" type="curve" smooth="yes"/>
      <point x="559" y="698" type="line" smooth="yes"/>
      <point x="530" y="698"/>
      <point x="510" y="689"/>
      <point x="500" y="671" type="curve"/>
      <point x="490" y="689"/>
      <point x="470" y="698"/>
      <point x="441" y="698" type="curve" smooth="yes"/>
      <point x="254" y="698" type="line" smooth="yes"/>
      <point x="208" y="698"/>
      <point x="183" y="712"/>
      <point x="178" y="741" type="curve"/>
      <point x="153" y="741" type="line"/>
      <point x="153" y="644" type="line"/>
      <point x="174" y="625"/>
      <point x="215" y="611"/>
      <point x="262" y="611" type="curve" smooth="yes"/>
      <point x="406" y="611" type="line" smooth="yes"/>
      <point x="437" y="611"/>
      <point x="453" y="609"/>
      <point x="453" y="588" type="curve"/>
      <point x="376" y="583"/>
      <point x="338" y="566"/>
      <point x="338" y="539" type="curve" smooth="yes"/>
      <point x="338" y="535"/>
      <point x="339" y="531"/>
      <point x="341" y="527" type="curve" smooth="yes"/>
      <point x="376" y="437" type="line"/>
      <point x="329" y="408"/>
      <point x="300" y="348"/>
      <point x="300" y="285" type="curve" smooth="yes"/>
      <point x="300" y="199"/>
      <point x="365" y="116"/>
      <point x="472" y="56" type="curve"/>
      <point x="455" y="46"/>
      <point x="444" y="28"/>
      <point x="444" y="7" type="curve" smooth="yes"/>
      <point x="444" y="-24"/>
      <point x="469" y="-49"/>
      <point x="500" y="-49" type="curve" smooth="yes"/>
      <point x="531" y="-49"/>
      <point x="556" y="-24"/>
      <point x="556" y="7" type="curve" smooth="yes"/>
      <point x="556" y="28"/>
      <point x="545" y="46"/>
      <point x="528" y="56" type="curve"/>
      <point x="635" y="116"/>
      <point x="700" y="199"/>
      <point x="700" y="285" type="curve" smooth="yes"/>
      <point x="700" y="348"/>
      <point x="671" y="408"/>
      <point x="624" y="437" type="curve"/>
      <point x="659" y="527" type="line" smooth="yes"/>
      <point x="661" y="531"/>
      <point x="662" y="535"/>
      <point x="662" y="539" type="curve" smooth="yes"/>
      <point x="662" y="566"/>
      <point x="624" y="583"/>
      <point x="547" y="588" type="curve"/>
      <point x="547" y="609"/>
      <point x="563" y="611"/>
      <point x="594" y="611" type="curve" smooth="yes"/>
      <point x="738" y="611" type="line" smooth="yes"/>
      <point x="785" y="611"/>
      <point x="826" y="625"/>
      <point x="847" y="644" type="curve"/>
    </contour>
    <contour>
      <point x="500" y="556" type="curve" smooth="yes"/>
      <point x="537" y="556"/>
      <point x="563" y="554"/>
      <point x="580" y="551" type="curve" smooth="yes"/>
      <point x="597" y="548"/>
      <point x="606" y="544"/>
      <point x="606" y="539" type="curve" smooth="yes"/>
      <point x="606" y="534"/>
      <point x="597" y="530"/>
      <point x="578" y="526" type="curve" smooth="yes"/>
      <point x="559" y="522"/>
      <point x="533" y="521"/>
      <point x="500" y="521" type="curve" smooth="yes"/>
      <point x="467" y="521"/>
      <point x="441" y="522"/>
      <point x="422" y="526" type="curve" smooth="yes"/>
      <point x="403" y="530"/>
      <point x="394" y="534"/>
      <point x="394" y="539" type="curve" smooth="yes"/>
      <point x="394" y="544"/>
      <point x="403" y="548"/>
      <point x="420" y="551" type="curve" smooth="yes"/>
      <point x="437" y="554"/>
      <point x="463" y="556"/>
    </contour>
    <contour>
      <point x="597" y="499" type="curve"/>
      <point x="582" y="462" type="line"/>
      <point x="553" y="467"/>
      <point x="528" y="470"/>
      <point x="500" y="470" type="curve" smooth="yes"/>
      <point x="472" y="470"/>
      <point x="447" y="467"/>
      <point x="418" y="462" type="curve"/>
      <point x="403" y="499" type="line"/>
      <point x="423" y="492"/>
      <point x="456" y="489"/>
      <point x="500" y="489" type="curve" smooth="yes"/>
      <point x="544" y="489"/>
      <point x="577" y="492"/>
    </contour>
    <contour>
      <point x="517" y="400" type="line"/>
      <point x="517" y="222" type="line"/>
      <point x="597" y="222" type="line"/>
      <point x="597" y="190" type="line"/>
      <point x="517" y="190" type="line"/>
      <point x="517" y="110" type="line"/>
      <point x="483" y="110" type="line"/>
      <point x="483" y="190" type="line"/>
      <point x="403" y="190" type="line"/>
      <point x="403" y="222" type="line"/>
      <point x="483" y="222" type="line"/>
      <point x="483" y="400" type="line"/>
    </contour>
  </outline>
</glyph>
<glyph name="u1FA29" format="2">
  <advance width="1000"/>
  <unicode hex="1FA29"/>
  <outline>
    <contour>
      <point x="814" y="755" type="line"/>
      <point x="186" y="755" type="line"/>
      <point x="186" y="718" type="line" smooth="yes"/>
      <point x="186" y="563"/>
      <point x="262" y="436"/>
      <point x="386" y="395" type="curve"/>
      <point x="341" y="366"/>
      <point x="318" y="329"/>
      <point x="318" y="282" type="curve" smooth="yes"/>
      <point x="318" y="212"/>
      <point x="365" y="157"/>
      <point x="445" y="132" type="curve"/>
      <point x="418" y="123"/>
      <point x="399" y="98"/>
      <point x="399" y="67" type="curve" smooth="yes"/>
      <point x="399" y="26"/>
      <point x="439" y="0"/>
      <point x="500" y="0" type="curve" smooth="yes"/>
      <point x="562" y="0"/>
      <point x="601" y="26"/>
      <point x="601" y="67" type="curve" smooth="yes"/>
      <point x="601" y="98"/>
      <point x="583" y="122"/>
      <point x="555" y="132" type="curve"/>
      <point x="636" y="157"/>
      <point x="682" y="212"/>
      <point x="682" y="282" type="curve" smooth="yes"/>
      <point x="682" y="329"/>
      <point x="659" y="366"/>
      <point x="614" y="395" type="curve"/>
      <point x="736" y="436"/>
      <point x="814" y="562"/>
      <point x="814" y="718" type="curve" smooth="yes"/>
    </contour>
    <contour>
      <point x="762" y="693" type="line"/>
      <point x="762" y="669" type="line" smooth="yes"/>
      <point x="762" y="568"/>
      <point x="712" y="484"/>
      <point x="630" y="457" type="curve"/>
      <point x="689" y="500"/>
      <point x="724" y="566"/>
      <point x="728" y="679" type="curve" smooth="yes"/>
      <point x="728" y="693" type="line"/>
    </contour>
    <contour>
      <point x="594" y="359" type="curve"/>
      <point x="620" y="350"/>
      <point x="645" y="315"/>
      <point x="645" y="277" type="curve" smooth="yes"/>
      <point x="645" y="219"/>
      <point x="596" y="172"/>
      <point x="561" y="170" type="curve"/>
      <point x="602" y="196"/>
      <point x="620" y="230"/>
      <point x="620" y="276" type="curve" smooth="yes"/>
      <point x="620" y="313"/>
      <point x="612" y="334"/>
    </contour>
    <contour>
      <point x="555" y="111" type="curve"/>
      <point x="567" y="109"/>
      <point x="580" y="91"/>
      <point x="580" y="72" type="curve" smooth="yes"/>
      <point x="580" y="44"/>
      <point x="554" y="22"/>
      <point x="539" y="22" type="curve"/>
      <point x="558" y="34"/>
      <point x="568" y="50"/>
      <point x="568" y="71" type="curve" smooth="yes"/>
      <point x="568" y="90"/>
      <point x="564" y="104"/>
    </contour>
  </outline>
</glyph>
<glyph name="u1FA2B" format="2">
  <advance width="1000"/>
  <unicode hex="1FA2B"/>
  <outline>
    <contour>
      <point x="500" y="767" type="curve" smooth="yes"/>
      <point x="438" y="767"/>
      <point x="389" y="762"/>
      <point x="353" y="752" type="curve" smooth="yes"/>
      <point x="317" y="742"/>
      <point x="299" y="727"/>
      <point x="299" y="709" type="curve" smooth="yes"/>
      <point x="302" y="497" type="line"/>
      <point x="210" y="215" type="line"/>
      <point x="206" y="216"/>
      <point x="200" y="217"/>
      <point x="192" y="217" type="curve" smooth="yes"/>
      <point x="155" y="217"/>
      <point x="125" y="189"/>
      <point x="125" y="147" type="curve" smooth="yes"/>
      <point x="125" y="110"/>
      <point x="155" y="81"/>
      <point x="193" y="81" type="curve" smooth="yes"/>
      <point x="232" y="81"/>
      <point x="261" y="110"/>
      <point x="261" y="149" type="curve" smooth="yes"/>
      <point x="261" y="171"/>
      <point x="249" y="195"/>
      <point x="231" y="206" type="curve"/>
      <point x="354" y="405" type="line"/>
      <point x="333" y="135" type="line"/>
      <point x="331" y="135" type="line" smooth="yes"/>
      <point x="296" y="135"/>
      <point x="264" y="104"/>
      <point x="264" y="67" type="curve" smooth="yes"/>
      <point x="264" y="30"/>
      <point x="293" y="-2"/>
      <point x="331" y="-2" type="curve" smooth="yes"/>
      <point x="368" y="-2"/>
      <point x="400" y="27"/>
      <point x="400" y="66" type="curve" smooth="yes"/>
      <point x="400" y="95"/>
      <point x="384" y="120"/>
      <point x="356" y="130" type="curve"/>
      <point x="446" y="384" type="line"/>
      <point x="488" y="101" type="line"/>
      <point x="457" y="96"/>
      <point x="432" y="69"/>
      <point x="432" y="34" type="curve" smooth="yes"/>
      <point x="432" y="-5"/>
      <point x="463" y="-34"/>
      <point x="500" y="-34" type="curve" smooth="yes"/>
      <point x="538" y="-34"/>
      <point x="568" y="-4"/>
      <point x="568" y="34" type="curve" smooth="yes"/>
      <point x="568" y="69"/>
      <point x="543" y="96"/>
      <point x="512" y="101" type="curve"/>
      <point x="550" y="415" type="line"/>
      <point x="644" y="130" type="line"/>
      <point x="616" y="120"/>
      <point x="600" y="95"/>
      <point x="600" y="66" type="curve" smooth="yes"/>
      <point x="600" y="27"/>
      <point x="632" y="-2"/>
      <point x="669" y="-2" type="curve" smooth="yes"/>
      <point x="707" y="-2"/>
      <point x="736" y="30"/>
      <point x="736" y="67" type="curve" smooth="yes"/>
      <point x="736" y="105"/>
      <point x="704" y="135"/>
      <point x="669" y="135" type="curve" smooth="yes"/>
      <point x="667" y="135" type="line"/>
      <point x="638" y="427" type="line"/>
      <point x="769" y="206" type="line"/>
      <point x="751" y="195"/>
      <point x="739" y="171"/>
      <point x="739" y="149" type="curve" smooth="yes"/>
      <point x="739" y="110"/>
      <point x="768" y="81"/>
      <point x="807" y="81" type="curve" smooth="yes"/>
      <point x="844" y="81"/>
      <point x="875" y="110"/>
      <point x="875" y="147" type="curve" smooth="yes"/>
      <point x="875" y="188"/>
      <point x="846" y="217"/>
      <point x="808" y="217" type="curve" smooth="yes"/>
      <point x="800" y="217"/>
      <point x="794" y="216"/>
      <point x="790" y="215" type="curve"/>
      <point x="698" y="494" type="line"/>
      <point x="701" y="709" type="line" smooth="yes"/>
      <point x="701" y="727"/>
      <point x="683" y="741"/>
      <point x="647" y="751" type="curve" smooth="yes"/>
      <point x="611" y="761"/>
      <point x="562" y="767"/>
    </contour>
    <contour>
      <point x="668" y="677" type="curve"/>
      <point x="668" y="661" type="line"/>
      <point x="644" y="651"/>
      <point x="556" y="641"/>
      <point x="500" y="641" type="curve"/>
      <point x="500" y="659" type="line"/>
      <point x="565" y="659"/>
      <point x="632" y="665"/>
    </contour>
    <contour>
      <point x="667" y="619" type="curve"/>
      <point x="667" y="601" type="line"/>
      <point x="643" y="591"/>
      <point x="555" y="581"/>
      <point x="500" y="581" type="curve"/>
      <point x="500" y="599" type="line"/>
      <point x="570" y="599"/>
      <point x="626" y="606"/>
    </contour>
    <contour>
      <point x="500" y="738" type="curve"/>
      <point x="500" y="676" type="line"/>
      <point x="451" y="676"/>
      <point x="413" y="679"/>
      <point x="385" y="684" type="curve" smooth="yes"/>
      <point x="358" y="689"/>
      <point x="344" y="698"/>
      <point x="344" y="707" type="curve" smooth="yes"/>
      <point x="344" y="728"/>
      <point x="396" y="738"/>
    </contour>
    <contour>
      <point x="666" y="559" type="curve"/>
      <point x="666" y="541" type="line"/>
      <point x="643" y="532"/>
      <point x="557" y="521"/>
      <point x="500" y="521" type="curve"/>
      <point x="500" y="539" type="line"/>
      <point x="569" y="539"/>
      <point x="625" y="546"/>
    </contour>
    <contour>
      <point x="346" y="665" type="line"/>
      <point x="382" y="653"/>
      <point x="433" y="647"/>
      <point x="500" y="647" type="curve"/>
      <point x="500" y="614" type="line"/>
      <point x="443" y="614"/>
      <point x="379" y="623"/>
      <point x="346" y="634" type="curve"/>
    </contour>
    <contour>
      <point x="347" y="607" type="line"/>
      <point x="386" y="594"/>
      <point x="437" y="587"/>
      <point x="500" y="587" type="curve"/>
      <point x="500" y="554" type="line"/>
      <point x="448" y="554"/>
      <point x="380" y="563"/>
      <point x="347" y="574" type="curve"/>
    </contour>
    <contour>
      <point x="825" y="165" type="curve" smooth="yes"/>
      <point x="839" y="165"/>
      <point x="850" y="154"/>
      <point x="850" y="140" type="curve" smooth="yes"/>
      <point x="850" y="126"/>
      <point x="839" y="115"/>
      <point x="825" y="115" type="curve" smooth="yes"/>
      <point x="811" y="115"/>
      <point x="800" y="126"/>
      <point x="800" y="140" type="curve" smooth="yes"/>
      <point x="800" y="154"/>
      <point x="811" y="165"/>
    </contour>
    <contour>
      <point x="348" y="547" type="line"/>
      <point x="387" y="534"/>
      <point x="438" y="527"/>
      <point x="500" y="527" type="curve"/>
      <point x="500" y="494" type="line"/>
      <point x="445" y="494"/>
      <point x="380" y="504"/>
      <point x="348" y="514" type="curve"/>
    </contour>
    <contour>
      <point x="467" y="467" type="line"/>
      <point x="478" y="466"/>
      <point x="489" y="466"/>
      <point x="500" y="466" type="curve"/>
      <point x="500" y="185" type="line"/>
    </contour>
    <contour>
      <point x="393" y="474" type="line"/>
      <point x="406" y="472"/>
      <point x="420" y="470"/>
      <point x="436" y="469" type="curve"/>
      <point x="366" y="238" type="line"/>
    </contour>
    <contour>
      <point x="685" y="84" type="curve" smooth="yes"/>
      <point x="699" y="84"/>
      <point x="710" y="73"/>
      <point x="710" y="59" type="curve" smooth="yes"/>
      <point x="710" y="45"/>
      <point x="699" y="34"/>
      <point x="685" y="34" type="curve" smooth="yes"/>
      <point x="671" y="34"/>
      <point x="660" y="45"/>
      <point x="660" y="59" type="curve" smooth="yes"/>
      <point x="660" y="73"/>
      <point x="671" y="84"/>
    </contour>
    <contour>
      <point x="328" y="488" type="line"/>
      <point x="364" y="479" type="line"/>
      <point x="268" y="312" type="line"/>
    </contour>
    <contour>
      <point x="499" y="71" type="curve"/>
      <point x="501" y="-2" type="line"/>
      <point x="480" y="-2"/>
      <point x="464" y="13"/>
      <point x="464" y="33" type="curve" smooth="yes"/>
      <point x="464" y="55"/>
      <point x="480" y="71"/>
    </contour>
    <contour>
      <point x="333" y="104" type="curve" smooth="yes"/>
      <point x="354" y="104"/>
      <point x="369" y="88"/>
      <point x="369" y="68" type="curve" smooth="yes"/>
      <point x="369" y="47"/>
      <point x="356" y="31"/>
      <point x="331" y="31" type="curve" smooth="yes"/>
      <point x="312" y="31"/>
      <point x="296" y="46"/>
      <point x="296" y="66" type="curve" smooth="yes"/>
      <point x="296" y="88"/>
      <point x="310" y="104"/>
    </contour>
    <contour>
      <point x="193" y="186" type="curve" smooth="yes"/>
      <point x="214" y="186"/>
      <point x="229" y="170"/>
      <point x="229" y="150" type="curve" smooth="yes"/>
      <point x="229" y="129"/>
      <point x="215" y="113"/>
      <point x="191" y="113" type="curve" smooth="yes"/>
      <point x="172" y="113"/>
      <point x="156" y="128"/>
      <point x="156" y="148" type="curve" smooth="yes"/>
      <point x="156" y="170"/>
      <point x="171" y="186"/>
    </contour>
  </outline>
</glyph>
<glyph name="u1FA2C" format="2">
  <advance width="1000"/>
  <unicode hex="1FA2C"/>
  <outline>
    <contour>
      <point x="825" y="719" type="line"/>
      <point x="176" y="719" type="line"/>
      <point x="176" y="628" type="line"/>
      <point x="236" y="628" type="line"/>
      <point x="236" y="560" type="line"/>
      <point x="279" y="560" type="line"/>
      <point x="316" y="492" type="line"/>
      <point x="316" y="188" type="line"/>
      <point x="279" y="120" type="line"/>
      <point x="236" y="120" type="line"/>
      <point x="236" y="0" type="line"/>
      <point x="360" y="0" type="line"/>
      <point x="360" y="29" type="line"/>
      <point x="420" y="29" type="line"/>
      <point x="420" y="4" type="line"/>
      <point x="581" y="4" type="line"/>
      <point x="581" y="29" type="line"/>
      <point x="641" y="29" type="line"/>
      <point x="641" y="0" type="line"/>
      <point x="765" y="0" type="line"/>
      <point x="765" y="120" type="line"/>
      <point x="723" y="120" type="line"/>
      <point x="685" y="188" type="line"/>
      <point x="685" y="492" type="line"/>
      <point x="723" y="560" type="line"/>
      <point x="765" y="560" type="line"/>
      <point x="765" y="628" type="line"/>
      <point x="825" y="628" type="line"/>
    </contour>
    <contour>
      <point x="795" y="686" type="line"/>
      <point x="795" y="665" type="line"/>
      <point x="501" y="665" type="line"/>
      <point x="501" y="686" type="line"/>
    </contour>
    <contour>
      <point x="735" y="618" type="line"/>
      <point x="735" y="597" type="line"/>
      <point x="501" y="597" type="line"/>
      <point x="501" y="618" type="line"/>
    </contour>
    <contour>
      <point x="690" y="550" type="line"/>
      <point x="678" y="529" type="line"/>
      <point x="501" y="529" type="line"/>
      <point x="501" y="550" type="line"/>
    </contour>
    <contour>
      <point x="501" y="691" type="line"/>
      <point x="501" y="656" type="line"/>
      <point x="219" y="656" type="line"/>
      <point x="219" y="691" type="line"/>
    </contour>
    <contour>
      <point x="501" y="623" type="line"/>
      <point x="501" y="588" type="line"/>
      <point x="279" y="588" type="line"/>
      <point x="279" y="623" type="line"/>
    </contour>
    <contour>
      <point x="501" y="555" type="line"/>
      <point x="501" y="520" type="line"/>
      <point x="344" y="520" type="line"/>
      <point x="324" y="555" type="line"/>
    </contour>
    <contour>
      <point x="501" y="487" type="line"/>
      <point x="501" y="193" type="line"/>
      <point x="359" y="193" type="line"/>
      <point x="359" y="487" type="line"/>
    </contour>
    <contour>
      <point x="675" y="155" type="line"/>
      <point x="687" y="134" type="line"/>
      <point x="501" y="134" type="line"/>
      <point x="501" y="155" type="line"/>
    </contour>
    <contour>
      <point x="735" y="97" type="line"/>
      <point x="735" y="76" type="line"/>
      <point x="501" y="76" type="line"/>
      <point x="501" y="97" type="line"/>
    </contour>
    <contour>
      <point x="501" y="160" type="line"/>
      <point x="501" y="125" type="line"/>
      <point x="324" y="125" type="line"/>
      <point x="343" y="160" type="line"/>
    </contour>
    <contour>
      <point x="501" y="92" type="line"/>
      <point x="501" y="37" type="line"/>
      <point x="446" y="37" type="line"/>
      <point x="446" y="62" type="line"/>
      <point x="334" y="62" type="line"/>
      <point x="334" y="33" type="line"/>
      <point x="279" y="33" type="line"/>
      <point x="279" y="92" type="line"/>
    </contour>
  </outline>
</glyph>
<glyph name="u1FA33" format="2">
  <advance width="1000"/>
  <unicode hex="1FA33"/>
  <outline>
    <contour>
      <point x="894" y="360" type="curve" smooth="yes"/>
      <point x="894" y="422"/>
      <point x="889" y="470"/>
      <point x="879" y="507" type="curve" smooth="yes"/>
      <point x="869" y="543"/>
      <point x="854" y="561"/>
      <point x="836" y="561" type="curve"/>
      <point x="633" y="547" type="line"/>
      <point x="546" y="628"/>
      <point x="481" y="657"/>
      <point x="424" y="657" type="curve" smooth="yes"/>
      <point x="340" y="657"/>
      <point x="287" y="611"/>
      <point x="287" y="535" type="curve" smooth="yes"/>
      <point x="287" y="490"/>
      <point x="303" y="452"/>
      <point x="335" y="421" type="curve"/>
      <point x="271" y="425" type="line" smooth="yes"/>
      <point x="244" y="427"/>
      <point x="229" y="409"/>
      <point x="224" y="377" type="curve"/>
      <point x="168" y="377" type="line"/>
      <point x="168" y="418" type="line"/>
      <point x="144" y="418" type="line"/>
      <point x="144" y="377" type="line"/>
      <point x="107" y="377" type="line"/>
      <point x="107" y="343" type="line"/>
      <point x="144" y="343" type="line"/>
      <point x="144" y="302" type="line"/>
      <point x="168" y="302" type="line"/>
      <point x="168" y="343" type="line"/>
      <point x="224" y="343" type="line"/>
      <point x="229" y="311"/>
      <point x="244" y="293"/>
      <point x="269" y="295" type="curve" smooth="yes"/>
      <point x="335" y="299" type="line"/>
      <point x="303" y="267"/>
      <point x="287" y="229"/>
      <point x="287" y="185" type="curve" smooth="yes"/>
      <point x="287" y="109"/>
      <point x="340" y="63"/>
      <point x="424" y="63" type="curve" smooth="yes"/>
      <point x="485" y="63"/>
      <point x="555" y="99"/>
      <point x="633" y="173" type="curve"/>
      <point x="836" y="159" type="line"/>
      <point x="854" y="159"/>
      <point x="868" y="177"/>
      <point x="878" y="213" type="curve" smooth="yes"/>
      <point x="888" y="249"/>
      <point x="894" y="298"/>
    </contour>
    <contour>
      <point x="865" y="360" type="curve" smooth="yes"/>
      <point x="865" y="255"/>
      <point x="855" y="202"/>
      <point x="834" y="202" type="curve" smooth="yes"/>
      <point x="825" y="202"/>
      <point x="817" y="216"/>
      <point x="811" y="244" type="curve" smooth="yes"/>
      <point x="805" y="272"/>
      <point x="803" y="310"/>
      <point x="803" y="360" type="curve" smooth="yes"/>
      <point x="803" y="410"/>
      <point x="806" y="449"/>
      <point x="811" y="477" type="curve" smooth="yes"/>
      <point x="816" y="504"/>
      <point x="825" y="518"/>
      <point x="834" y="518" type="curve" smooth="yes"/>
      <point x="855" y="518"/>
      <point x="865" y="465"/>
    </contour>
    <contour>
      <point x="792" y="208" type="curve"/>
      <point x="737" y="211" type="line"/>
      <point x="726" y="248"/>
      <point x="717" y="307"/>
      <point x="717" y="360" type="curve" smooth="yes"/>
      <point x="717" y="413"/>
      <point x="724" y="463"/>
      <point x="737" y="509" type="curve"/>
      <point x="792" y="512" type="line"/>
      <point x="780" y="476"/>
      <point x="774" y="426"/>
      <point x="774" y="360" type="curve" smooth="yes"/>
      <point x="774" y="294"/>
      <point x="780" y="243"/>
    </contour>
    <contour>
      <point x="705" y="213" type="curve"/>
      <point x="647" y="218" type="line"/>
      <point x="636" y="261"/>
      <point x="630" y="308"/>
      <point x="630" y="360" type="curve" smooth="yes"/>
      <point x="630" y="411"/>
      <point x="636" y="458"/>
      <point x="647" y="502" type="curve"/>
      <point x="705" y="507" type="line"/>
      <point x="697" y="485"/>
      <point x="688" y="415"/>
      <point x="688" y="360" type="curve" smooth="yes"/>
      <point x="688" y="301"/>
      <point x="697" y="233"/>
    </contour>
    <contour>
      <point x="613" y="207" type="curve"/>
      <point x="554" y="150"/>
      <point x="480" y="108"/>
      <point x="429" y="108" type="curve" smooth="yes"/>
      <point x="366" y="108"/>
      <point x="329" y="137"/>
      <point x="329" y="187" type="curve" smooth="yes"/>
      <point x="329" y="272"/>
      <point x="450" y="339"/>
      <point x="566" y="339" type="curve" smooth="yes"/>
      <point x="598" y="339" type="line"/>
      <point x="598" y="302"/>
      <point x="603" y="257"/>
    </contour>
    <contour>
      <point x="438" y="360" type="curve"/>
      <point x="412" y="350"/>
      <point x="392" y="341"/>
      <point x="377" y="332" type="curve"/>
      <point x="282" y="332" type="line" smooth="yes"/>
      <point x="260" y="332"/>
      <point x="249" y="341"/>
      <point x="249" y="360" type="curve" smooth="yes"/>
      <point x="249" y="378"/>
      <point x="258" y="388"/>
      <point x="282" y="388" type="curve" smooth="yes"/>
      <point x="377" y="388" type="line"/>
      <point x="392" y="378"/>
      <point x="413" y="368"/>
    </contour>
    <contour>
      <point x="613" y="513" type="curve"/>
      <point x="605" y="470"/>
      <point x="598" y="413"/>
      <point x="598" y="381" type="curve"/>
      <point x="562" y="381" type="line" smooth="yes"/>
      <point x="452" y="381"/>
      <point x="329" y="447"/>
      <point x="329" y="533" type="curve" smooth="yes"/>
      <point x="329" y="585"/>
      <point x="369" y="612"/>
      <point x="429" y="612" type="curve" smooth="yes"/>
      <point x="480" y="612"/>
      <point x="552" y="572"/>
    </contour>
  </outline>
</glyph>
<glyph name="u1FA34" format="2">
  <advance width="1000"/>
  <unicode hex="1FA34"/>
  <outline>
    <contour>
      <point x="901" y="367" type="curve" smooth="yes"/>
      <point x="901" y="429"/>
      <point x="896" y="478"/>
      <point x="886" y="514" type="curve" smooth="yes"/>
      <point x="876" y="550"/>
      <point x="861" y="568"/>
      <point x="843" y="568" type="curve" smooth="yes"/>
      <point x="631" y="565" type="line"/>
      <point x="349" y="657" type="line"/>
      <point x="350" y="661"/>
      <point x="351" y="667"/>
      <point x="351" y="675" type="curve" smooth="yes"/>
      <point x="351" y="712"/>
      <point x="323" y="742"/>
      <point x="281" y="742" type="curve" smooth="yes"/>
      <point x="244" y="742"/>
      <point x="215" y="712"/>
      <point x="215" y="674" type="curve" smooth="yes"/>
      <point x="215" y="635"/>
      <point x="244" y="606"/>
      <point x="283" y="606" type="curve" smooth="yes"/>
      <point x="305" y="606"/>
      <point x="329" y="618"/>
      <point x="340" y="636" type="curve"/>
      <point x="539" y="513" type="line"/>
      <point x="269" y="534" type="line"/>
      <point x="269" y="536" type="line" smooth="yes"/>
      <point x="269" y="571"/>
      <point x="238" y="603"/>
      <point x="201" y="603" type="curve" smooth="yes"/>
      <point x="164" y="603"/>
      <point x="132" y="574"/>
      <point x="132" y="536" type="curve" smooth="yes"/>
      <point x="132" y="499"/>
      <point x="161" y="467"/>
      <point x="200" y="467" type="curve" smooth="yes"/>
      <point x="229" y="467"/>
      <point x="254" y="483"/>
      <point x="264" y="511" type="curve"/>
      <point x="518" y="421" type="line"/>
      <point x="235" y="379" type="line"/>
      <point x="230" y="410"/>
      <point x="203" y="435"/>
      <point x="168" y="435" type="curve" smooth="yes"/>
      <point x="129" y="435"/>
      <point x="100" y="404"/>
      <point x="100" y="367" type="curve" smooth="yes"/>
      <point x="100" y="329"/>
      <point x="130" y="299"/>
      <point x="168" y="299" type="curve" smooth="yes"/>
      <point x="203" y="299"/>
      <point x="230" y="324"/>
      <point x="235" y="355" type="curve"/>
      <point x="518" y="313" type="line"/>
      <point x="264" y="223" type="line"/>
      <point x="254" y="251"/>
      <point x="229" y="267"/>
      <point x="200" y="267" type="curve" smooth="yes"/>
      <point x="161" y="267"/>
      <point x="132" y="235"/>
      <point x="132" y="198" type="curve" smooth="yes"/>
      <point x="132" y="160"/>
      <point x="164" y="131"/>
      <point x="201" y="131" type="curve" smooth="yes"/>
      <point x="239" y="131"/>
      <point x="269" y="163"/>
      <point x="269" y="198" type="curve" smooth="yes"/>
      <point x="269" y="200" type="line"/>
      <point x="539" y="221" type="line"/>
      <point x="340" y="98" type="line"/>
      <point x="329" y="116"/>
      <point x="305" y="128"/>
      <point x="283" y="128" type="curve" smooth="yes"/>
      <point x="244" y="128"/>
      <point x="215" y="99"/>
      <point x="215" y="60" type="curve" smooth="yes"/>
      <point x="215" y="23"/>
      <point x="244" y="-8"/>
      <point x="281" y="-8" type="curve" smooth="yes"/>
      <point x="322" y="-8"/>
      <point x="351" y="21"/>
      <point x="351" y="59" type="curve" smooth="yes"/>
      <point x="351" y="67"/>
      <point x="350" y="73"/>
      <point x="349" y="77" type="curve"/>
      <point x="631" y="169" type="line"/>
      <point x="843" y="166" type="line" smooth="yes"/>
      <point x="861" y="166"/>
      <point x="875" y="184"/>
      <point x="885" y="220" type="curve" smooth="yes"/>
      <point x="895" y="256"/>
      <point x="901" y="305"/>
    </contour>
    <contour>
      <point x="872" y="367" type="curve" smooth="yes"/>
      <point x="872" y="263"/>
      <point x="862" y="211"/>
      <point x="841" y="211" type="curve" smooth="yes"/>
      <point x="831" y="211"/>
      <point x="824" y="225"/>
      <point x="818" y="253" type="curve" smooth="yes"/>
      <point x="812" y="280"/>
      <point x="810" y="318"/>
      <point x="810" y="367" type="curve" smooth="yes"/>
      <point x="810" y="416"/>
      <point x="813" y="454"/>
      <point x="818" y="482" type="curve" smooth="yes"/>
      <point x="823" y="509"/>
      <point x="832" y="523"/>
      <point x="841" y="523" type="curve" smooth="yes"/>
      <point x="862" y="523"/>
      <point x="872" y="471"/>
    </contour>
    <contour>
      <point x="799" y="213" type="curve"/>
      <point x="768" y="213" type="line"/>
      <point x="757" y="246"/>
      <point x="748" y="312"/>
      <point x="748" y="367" type="curve" smooth="yes"/>
      <point x="748" y="424"/>
      <point x="757" y="488"/>
      <point x="768" y="521" type="curve"/>
      <point x="799" y="521" type="line"/>
      <point x="787" y="485"/>
      <point x="781" y="434"/>
      <point x="781" y="367" type="curve" smooth="yes"/>
      <point x="781" y="300"/>
      <point x="787" y="249"/>
    </contour>
    <contour>
      <point x="622" y="195" type="line"/>
      <point x="446" y="135" type="line"/>
      <point x="613" y="231" type="line"/>
    </contour>
    <contour>
      <point x="741" y="214" type="curve"/>
      <point x="708" y="214" type="line"/>
      <point x="697" y="248"/>
      <point x="688" y="313"/>
      <point x="688" y="367" type="curve" smooth="yes"/>
      <point x="688" y="419"/>
      <point x="697" y="487"/>
      <point x="708" y="520" type="curve"/>
      <point x="741" y="520" type="line"/>
      <point x="728" y="481"/>
      <point x="721" y="430"/>
      <point x="721" y="367" type="curve" smooth="yes"/>
      <point x="721" y="304"/>
      <point x="728" y="254"/>
    </contour>
    <contour>
      <point x="681" y="215" type="curve"/>
      <point x="648" y="215" type="line"/>
      <point x="638" y="246"/>
      <point x="628" y="314"/>
      <point x="628" y="367" type="curve" smooth="yes"/>
      <point x="628" y="422"/>
      <point x="638" y="487"/>
      <point x="648" y="519" type="curve"/>
      <point x="681" y="519" type="line"/>
      <point x="668" y="480"/>
      <point x="661" y="429"/>
      <point x="661" y="367" type="curve" smooth="yes"/>
      <point x="661" y="305"/>
      <point x="668" y="254"/>
    </contour>
    <contour>
      <point x="320" y="60" type="curve" smooth="yes"/>
      <point x="320" y="38"/>
      <point x="304" y="23"/>
      <point x="282" y="23" type="curve" smooth="yes"/>
      <point x="262" y="23"/>
      <point x="247" y="39"/>
      <point x="247" y="58" type="curve" smooth="yes"/>
      <point x="247" y="82"/>
      <point x="263" y="96"/>
      <point x="284" y="96" type="curve" smooth="yes"/>
      <point x="304" y="96"/>
      <point x="320" y="81"/>
    </contour>
    <contour>
      <point x="608" y="260" type="curve"/>
      <point x="372" y="233" type="line"/>
      <point x="603" y="303" type="line"/>
      <point x="604" y="287"/>
      <point x="606" y="273"/>
    </contour>
    <contour>
      <point x="601" y="334" type="curve"/>
      <point x="319" y="367" type="line"/>
      <point x="601" y="400" type="line"/>
      <point x="600" y="389"/>
      <point x="600" y="378"/>
      <point x="600" y="367" type="curve" smooth="yes"/>
      <point x="600" y="356"/>
      <point x="600" y="345"/>
    </contour>
    <contour>
      <point x="608" y="474" type="line"/>
      <point x="606" y="461"/>
      <point x="604" y="447"/>
      <point x="603" y="431" type="curve"/>
      <point x="372" y="501" type="line"/>
    </contour>
    <contour>
      <point x="238" y="200" type="curve" smooth="yes"/>
      <point x="238" y="178"/>
      <point x="222" y="163"/>
      <point x="200" y="163" type="curve" smooth="yes"/>
      <point x="180" y="163"/>
      <point x="165" y="179"/>
      <point x="165" y="198" type="curve" smooth="yes"/>
      <point x="165" y="222"/>
      <point x="181" y="236"/>
      <point x="202" y="236" type="curve" smooth="yes"/>
      <point x="222" y="236"/>
      <point x="238" y="221"/>
    </contour>
    <contour>
      <point x="622" y="539" type="line"/>
      <point x="613" y="503" type="line"/>
      <point x="446" y="599" type="line"/>
    </contour>
    <contour>
      <point x="205" y="368" type="curve" smooth="yes"/>
      <point x="205" y="346"/>
      <point x="189" y="331"/>
      <point x="167" y="331" type="curve" smooth="yes"/>
      <point x="147" y="331"/>
      <point x="132" y="347"/>
      <point x="132" y="366" type="curve" smooth="yes"/>
      <point x="132" y="387"/>
      <point x="147" y="403"/>
      <point x="167" y="403" type="curve" smooth="yes"/>
      <point x="189" y="403"/>
      <point x="205" y="387"/>
    </contour>
    <contour>
      <point x="238" y="534" type="curve" smooth="yes"/>
      <point x="238" y="513"/>
      <point x="222" y="498"/>
      <point x="202" y="498" type="curve" smooth="yes"/>
      <point x="181" y="498"/>
      <point x="165" y="511"/>
      <point x="165" y="536" type="curve" smooth="yes"/>
      <point x="165" y="555"/>
      <point x="180" y="571"/>
      <point x="200" y="571" type="curve" smooth="yes"/>
      <point x="222" y="571"/>
      <point x="238" y="557"/>
    </contour>
    <contour>
      <point x="320" y="674" type="curve" smooth="yes"/>
      <point x="320" y="653"/>
      <point x="304" y="638"/>
      <point x="284" y="638" type="curve" smooth="yes"/>
      <point x="263" y="638"/>
      <point x="247" y="652"/>
      <point x="247" y="676" type="curve" smooth="yes"/>
      <point x="247" y="695"/>
      <point x="262" y="711"/>
      <point x="282" y="711" type="curve" smooth="yes"/>
      <point x="304" y="711"/>
      <point x="320" y="696"/>
    </contour>
  </outline>
</glyph>
<glyph name="u1FA35" format="2">
  <advance width="1000"/>
  <unicode hex="1FA35"/>
  <outline>
    <contour>
      <point x="860" y="35" type="line"/>
      <point x="860" y="684" type="line"/>
      <point x="769" y="684" type="line"/>
      <point x="769" y="624" type="line"/>
      <point x="701" y="624" type="line"/>
      <point x="701" y="581" type="line"/>
      <point x="633" y="544" type="line"/>
      <point x="329" y="544" type="line"/>
      <point x="261" y="581" type="line"/>
      <point x="261" y="624" type="line"/>
      <point x="141" y="624" type="line"/>
      <point x="141" y="500" type="line"/>
      <point x="170" y="500" type="line"/>
      <point x="170" y="440" type="line"/>
      <point x="145" y="440" type="line"/>
      <point x="145" y="279" type="line"/>
      <point x="170" y="279" type="line"/>
      <point x="170" y="219" type="line"/>
      <point x="141" y="219" type="line"/>
      <point x="141" y="95" type="line"/>
      <point x="261" y="95" type="line"/>
      <point x="261" y="137" type="line"/>
      <point x="329" y="175" type="line"/>
      <point x="633" y="175" type="line"/>
      <point x="701" y="137" type="line"/>
      <point x="701" y="95" type="line"/>
      <point x="769" y="95" type="line"/>
      <point x="769" y="35" type="line"/>
    </contour>
    <contour>
      <point x="832" y="78" type="line"/>
      <point x="797" y="78" type="line"/>
      <point x="797" y="641" type="line"/>
      <point x="832" y="641" type="line"/>
    </contour>
    <contour>
      <point x="764" y="138" type="line"/>
      <point x="729" y="138" type="line"/>
      <point x="729" y="581" type="line"/>
      <point x="764" y="581" type="line"/>
    </contour>
    <contour>
      <point x="696" y="183" type="line"/>
      <point x="661" y="202" type="line"/>
      <point x="661" y="516" type="line"/>
      <point x="696" y="536" type="line"/>
    </contour>
    <contour>
      <point x="628" y="218" type="line"/>
      <point x="334" y="218" type="line"/>
      <point x="334" y="501" type="line"/>
      <point x="628" y="501" type="line"/>
    </contour>
    <contour>
      <point x="301" y="204" type="line"/>
      <point x="266" y="183" type="line"/>
      <point x="266" y="536" type="line"/>
      <point x="301" y="517" type="line"/>
    </contour>
    <contour>
      <point x="233" y="138" type="line"/>
      <point x="174" y="138" type="line"/>
      <point x="174" y="193" type="line"/>
      <point x="203" y="193" type="line"/>
      <point x="203" y="305" type="line"/>
      <point x="178" y="305" type="line"/>
      <point x="178" y="414" type="line"/>
      <point x="203" y="414" type="line"/>
      <point x="203" y="526" type="line"/>
      <point x="174" y="526" type="line"/>
      <point x="174" y="581" type="line"/>
      <point x="233" y="581" type="line"/>
    </contour>
  </outline>
</glyph>
<glyph name="u1FA37" format="2">
  <advance width="1000"/>
  <unicode hex="1FA37"/>
  <outline>
    <contour>
      <point x="884" y="220" type="curve"/>
      <point x="884" y="724" type="line"/>
      <point x="875" y="724" type="line" smooth="yes"/>
      <point x="770" y="724"/>
      <point x="672" y="715"/>
      <point x="580" y="696" type="curve" smooth="yes"/>
      <point x="396" y="658"/>
      <point x="272" y="544"/>
      <point x="237" y="421" type="curve"/>
      <point x="186" y="421"/>
      <point x="139" y="395"/>
      <point x="117" y="355" type="curve"/>
      <point x="117" y="320" type="line"/>
      <point x="126" y="321"/>
      <point x="139" y="322"/>
      <point x="151" y="322" type="curve" smooth="yes"/>
      <point x="170" y="322"/>
      <point x="204" y="319"/>
      <point x="216" y="314" type="curve"/>
      <point x="216" y="308" type="line"/>
      <point x="183" y="301"/>
      <point x="159" y="279"/>
      <point x="146" y="244" type="curve"/>
      <point x="146" y="220" type="line"/>
      <point x="167" y="225"/>
      <point x="188" y="228"/>
      <point x="209" y="228" type="curve" smooth="yes"/>
      <point x="230" y="228"/>
      <point x="251" y="225"/>
      <point x="270" y="219" type="curve"/>
      <point x="301" y="163"/>
      <point x="321" y="156"/>
      <point x="379" y="140" type="curve" smooth="yes"/>
      <point x="408" y="132"/>
      <point x="430" y="122"/>
      <point x="444" y="111" type="curve" smooth="yes"/>
      <point x="458" y="100"/>
      <point x="482" y="87"/>
      <point x="517" y="75" type="curve" smooth="yes"/>
      <point x="551" y="63"/>
      <point x="578" y="53"/>
      <point x="595" y="44" type="curve"/>
      <point x="666" y="89" type="line" smooth="yes"/>
      <point x="687" y="102"/>
      <point x="694" y="123"/>
      <point x="694" y="158" type="curve" smooth="yes"/>
      <point x="694" y="174"/>
      <point x="681" y="192"/>
      <point x="655" y="212" type="curve" smooth="yes"/>
      <point x="628" y="232"/>
      <point x="610" y="250"/>
      <point x="599" y="266" type="curve"/>
      <point x="596" y="297"/>
      <point x="593" y="319"/>
      <point x="589" y="332" type="curve" smooth="yes"/>
      <point x="581" y="359"/>
      <point x="556" y="378"/>
      <point x="545" y="380" type="curve"/>
      <point x="545" y="384" type="line"/>
      <point x="549" y="385"/>
      <point x="558" y="386"/>
      <point x="563" y="386" type="curve" smooth="yes"/>
      <point x="591" y="386"/>
      <point x="614" y="370"/>
      <point x="657" y="327" type="curve" smooth="yes"/>
      <point x="693" y="291"/>
      <point x="718" y="269"/>
      <point x="732" y="259" type="curve" smooth="yes"/>
      <point x="760" y="239"/>
      <point x="819" y="220"/>
    </contour>
    <contour>
      <point x="605" y="142" type="curve"/>
      <point x="587" y="146"/>
      <point x="559" y="160"/>
      <point x="540" y="187" type="curve"/>
      <point x="535" y="183" type="line"/>
      <point x="537" y="146"/>
      <point x="555" y="122"/>
      <point x="583" y="115" type="curve"/>
      <point x="594" y="120"/>
      <point x="604" y="134"/>
    </contour>
    <contour>
      <point x="830" y="277" type="line"/>
      <point x="826" y="277" type="line" smooth="yes"/>
      <point x="775" y="277"/>
      <point x="741" y="304"/>
      <point x="677" y="363" type="curve" smooth="yes"/>
      <point x="632" y="404" type="line" smooth="yes"/>
      <point x="616" y="418"/>
      <point x="593" y="425"/>
      <point x="568" y="427" type="curve"/>
      <point x="514" y="412" type="line"/>
      <point x="514" y="365" type="line"/>
      <point x="524" y="364"/>
      <point x="542" y="351"/>
      <point x="549" y="332" type="curve" smooth="yes"/>
      <point x="556" y="313"/>
      <point x="567" y="258"/>
      <point x="567" y="253" type="curve"/>
      <point x="579" y="239"/>
      <point x="606" y="213"/>
      <point x="623" y="201" type="curve" smooth="yes"/>
      <point x="650" y="183"/>
      <point x="654" y="171"/>
      <point x="654" y="158" type="curve" smooth="yes"/>
      <point x="654" y="123"/>
      <point x="652" y="121"/>
      <point x="605" y="96" type="curve" smooth="yes"/>
      <point x="588" y="87" type="line"/>
      <point x="576" y="94"/>
      <point x="551" y="104"/>
      <point x="518" y="116" type="curve" smooth="yes"/>
      <point x="485" y="128"/>
      <point x="462" y="140"/>
      <point x="453" y="148" type="curve" smooth="yes"/>
      <point x="443" y="157"/>
      <point x="431" y="164"/>
      <point x="415" y="169" type="curve" smooth="yes"/>
      <point x="362" y="186"/>
      <point x="339" y="194"/>
      <point x="322" y="214" type="curve" smooth="yes"/>
      <point x="312" y="226"/>
      <point x="305" y="235"/>
      <point x="302" y="239" type="curve" smooth="yes"/>
      <point x="295" y="248"/>
      <point x="261" y="258"/>
      <point x="222" y="258" type="curve" smooth="yes"/>
      <point x="207" y="258"/>
      <point x="195" y="257"/>
      <point x="184" y="254" type="curve"/>
      <point x="201" y="275"/>
      <point x="215" y="281"/>
      <point x="247" y="281" type="curve" smooth="yes"/>
      <point x="257" y="281" type="line"/>
      <point x="257" y="327" type="line"/>
      <point x="242" y="339"/>
      <point x="205" y="349"/>
      <point x="171" y="349" type="curve" smooth="yes"/>
      <point x="164" y="349"/>
      <point x="158" y="349"/>
      <point x="151" y="348" type="curve"/>
      <point x="171" y="368"/>
      <point x="195" y="378"/>
      <point x="222" y="378" type="curve" smooth="yes"/>
      <point x="233" y="378"/>
      <point x="244" y="377"/>
      <point x="257" y="375" type="curve"/>
      <point x="300" y="526"/>
      <point x="450" y="662"/>
      <point x="803" y="662" type="curve" smooth="yes"/>
      <point x="830" y="662" type="line"/>
    </contour>
    <contour>
      <point x="390" y="242" type="curve" smooth="yes"/>
      <point x="390" y="251"/>
      <point x="386" y="260"/>
      <point x="380" y="267" type="curve" smooth="yes"/>
      <point x="374" y="274"/>
      <point x="370" y="282"/>
      <point x="370" y="292" type="curve" smooth="yes"/>
      <point x="371" y="300" type="line"/>
      <point x="362" y="300" type="line"/>
      <point x="354" y="272" type="line" smooth="yes"/>
      <point x="352" y="264"/>
      <point x="350" y="255"/>
      <point x="350" y="247" type="curve" smooth="yes"/>
      <point x="350" y="225"/>
      <point x="359" y="210"/>
      <point x="373" y="210" type="curve" smooth="yes"/>
      <point x="380" y="210" type="line"/>
      <point x="384" y="211" type="line"/>
      <point x="388" y="216"/>
      <point x="390" y="226"/>
    </contour>
    <contour>
      <point x="817" y="570" type="curve"/>
      <point x="817" y="636" type="line"/>
      <point x="738" y="636"/>
      <point x="664" y="630"/>
      <point x="593" y="617" type="curve" smooth="yes"/>
      <point x="452" y="591"/>
      <point x="369" y="523"/>
      <point x="330" y="461" type="curve"/>
      <point x="336" y="452" type="line"/>
      <point x="406" y="535"/>
      <point x="481" y="577"/>
      <point x="686" y="577" type="curve" smooth="yes"/>
      <point x="736" y="577"/>
      <point x="780" y="575"/>
    </contour>
  </outline>
</glyph>
<glyph name="u1FA39" format="2">
  <advance width="1000"/>
  <unicode hex="1FA39"/>
  <outline>
    <contour>
      <point x="894" y="360" type="curve" smooth="yes"/>
      <point x="894" y="422"/>
      <point x="888" y="471"/>
      <point x="878" y="507" type="curve" smooth="yes"/>
      <point x="868" y="543"/>
      <point x="854" y="561"/>
      <point x="836" y="561" type="curve"/>
      <point x="633" y="547" type="line"/>
      <point x="555" y="621"/>
      <point x="485" y="657"/>
      <point x="424" y="657" type="curve" smooth="yes"/>
      <point x="340" y="657"/>
      <point x="287" y="611"/>
      <point x="287" y="535" type="curve" smooth="yes"/>
      <point x="287" y="491"/>
      <point x="303" y="453"/>
      <point x="335" y="421" type="curve"/>
      <point x="269" y="425" type="line" smooth="yes"/>
      <point x="244" y="427"/>
      <point x="229" y="409"/>
      <point x="224" y="377" type="curve"/>
      <point x="168" y="377" type="line"/>
      <point x="168" y="418" type="line"/>
      <point x="144" y="418" type="line"/>
      <point x="144" y="377" type="line"/>
      <point x="107" y="377" type="line"/>
      <point x="107" y="343" type="line"/>
      <point x="144" y="343" type="line"/>
      <point x="144" y="302" type="line"/>
      <point x="168" y="302" type="line"/>
      <point x="168" y="343" type="line"/>
      <point x="224" y="343" type="line"/>
      <point x="229" y="311"/>
      <point x="244" y="293"/>
      <point x="269" y="295" type="curve" smooth="yes"/>
      <point x="335" y="299" type="line"/>
      <point x="303" y="267"/>
      <point x="287" y="229"/>
      <point x="287" y="185" type="curve" smooth="yes"/>
      <point x="287" y="109"/>
      <point x="340" y="63"/>
      <point x="424" y="63" type="curve" smooth="yes"/>
      <point x="485" y="63"/>
      <point x="555" y="99"/>
      <point x="633" y="173" type="curve"/>
      <point x="836" y="159" type="line"/>
      <point x="854" y="159"/>
      <point x="868" y="177"/>
      <point x="878" y="213" type="curve" smooth="yes"/>
      <point x="888" y="249"/>
      <point x="894" y="298"/>
    </contour>
    <contour>
      <point x="788" y="206" type="curve"/>
      <point x="762" y="208" type="line"/>
      <point x="752" y="245"/>
      <point x="742" y="307"/>
      <point x="742" y="360" type="curve" smooth="yes"/>
      <point x="742" y="413"/>
      <point x="752" y="475"/>
      <point x="762" y="512" type="curve"/>
      <point x="788" y="514" type="line"/>
      <point x="776" y="479"/>
      <point x="770" y="427"/>
      <point x="770" y="360" type="curve" smooth="yes"/>
      <point x="770" y="293"/>
      <point x="776" y="241"/>
    </contour>
    <contour>
      <point x="711" y="213" type="curve"/>
      <point x="683" y="215" type="line"/>
      <point x="672" y="258"/>
      <point x="666" y="306"/>
      <point x="666" y="360" type="curve" smooth="yes"/>
      <point x="666" y="414"/>
      <point x="672" y="462"/>
      <point x="683" y="505" type="curve"/>
      <point x="711" y="507" type="line"/>
      <point x="703" y="487"/>
      <point x="694" y="419"/>
      <point x="694" y="360" type="curve" smooth="yes"/>
      <point x="694" y="301"/>
      <point x="703" y="233"/>
    </contour>
    <contour>
      <point x="613" y="207" type="curve"/>
      <point x="554" y="150"/>
      <point x="480" y="108"/>
      <point x="429" y="108" type="curve" smooth="yes"/>
      <point x="366" y="108"/>
      <point x="329" y="137"/>
      <point x="329" y="187" type="curve" smooth="yes"/>
      <point x="329" y="272"/>
      <point x="450" y="339"/>
      <point x="566" y="339" type="curve" smooth="yes"/>
      <point x="598" y="339" type="line"/>
      <point x="598" y="302"/>
      <point x="603" y="257"/>
    </contour>
    <contour>
      <point x="581" y="211" type="curve"/>
      <point x="574" y="256"/>
      <point x="570" y="290"/>
      <point x="570" y="314" type="curve"/>
      <point x="565" y="314" type="line" smooth="yes"/>
      <point x="466" y="314"/>
      <point x="361" y="262"/>
      <point x="361" y="197" type="curve" smooth="yes"/>
      <point x="361" y="158"/>
      <point x="391" y="139"/>
      <point x="438" y="139" type="curve" smooth="yes"/>
      <point x="477" y="139"/>
      <point x="525" y="163"/>
    </contour>
    <contour>
      <point x="438" y="360" type="curve"/>
      <point x="412" y="350"/>
      <point x="392" y="341"/>
      <point x="377" y="332" type="curve"/>
      <point x="282" y="332" type="line" smooth="yes"/>
      <point x="260" y="332"/>
      <point x="249" y="341"/>
      <point x="249" y="360" type="curve" smooth="yes"/>
      <point x="249" y="379"/>
      <point x="260" y="388"/>
      <point x="282" y="388" type="curve" smooth="yes"/>
      <point x="377" y="388" type="line"/>
      <point x="392" y="379"/>
      <point x="412" y="370"/>
    </contour>
    <contour>
      <point x="412" y="360" type="curve"/>
      <point x="400" y="363"/>
      <point x="383" y="368"/>
      <point x="369" y="373" type="curve"/>
      <point x="298" y="373" type="line" smooth="yes"/>
      <point x="288" y="373"/>
      <point x="275" y="372"/>
      <point x="275" y="360" type="curve" smooth="yes"/>
      <point x="275" y="348"/>
      <point x="288" y="347"/>
      <point x="298" y="347" type="curve" smooth="yes"/>
      <point x="369" y="347" type="line"/>
      <point x="383" y="352"/>
      <point x="400" y="357"/>
    </contour>
    <contour>
      <point x="613" y="513" type="curve"/>
      <point x="603" y="463"/>
      <point x="598" y="418"/>
      <point x="598" y="381" type="curve"/>
      <point x="566" y="381" type="line" smooth="yes"/>
      <point x="450" y="381"/>
      <point x="329" y="448"/>
      <point x="329" y="533" type="curve" smooth="yes"/>
      <point x="329" y="583"/>
      <point x="366" y="612"/>
      <point x="429" y="612" type="curve" smooth="yes"/>
      <point x="480" y="612"/>
      <point x="554" y="570"/>
    </contour>
    <contour>
      <point x="581" y="509" type="curve"/>
      <point x="525" y="557"/>
      <point x="477" y="581"/>
      <point x="438" y="581" type="curve" smooth="yes"/>
      <point x="391" y="581"/>
      <point x="361" y="562"/>
      <point x="361" y="523" type="curve" smooth="yes"/>
      <point x="361" y="458"/>
      <point x="466" y="406"/>
      <point x="565" y="406" type="curve" smooth="yes"/>
      <point x="570" y="406" type="line"/>
      <point x="570" y="430"/>
      <point x="574" y="464"/>
    </contour>
  </outline>
</glyph>
<glyph name="u1FA3A" format="2">
  <advance width="1000"/>
  <unicode hex="1FA3A"/>
  <outline>
    <contour>
      <point x="901" y="367" type="curve" smooth="yes"/>
      <point x="901" y="429"/>
      <point x="896" y="478"/>
      <point x="886" y="514" type="curve" smooth="yes"/>
      <point x="876" y="550"/>
      <point x="861" y="568"/>
      <point x="843" y="568" type="curve" smooth="yes"/>
      <point x="628" y="565" type="line"/>
      <point x="349" y="657" type="line"/>
      <point x="350" y="661"/>
      <point x="351" y="667"/>
      <point x="351" y="675" type="curve" smooth="yes"/>
      <point x="351" y="712"/>
      <point x="323" y="742"/>
      <point x="281" y="742" type="curve" smooth="yes"/>
      <point x="244" y="742"/>
      <point x="215" y="712"/>
      <point x="215" y="674" type="curve" smooth="yes"/>
      <point x="215" y="635"/>
      <point x="244" y="606"/>
      <point x="283" y="606" type="curve" smooth="yes"/>
      <point x="305" y="606"/>
      <point x="329" y="618"/>
      <point x="340" y="636" type="curve"/>
      <point x="561" y="505" type="line"/>
      <point x="269" y="534" type="line"/>
      <point x="269" y="536" type="line" smooth="yes"/>
      <point x="269" y="571"/>
      <point x="238" y="603"/>
      <point x="201" y="603" type="curve" smooth="yes"/>
      <point x="164" y="603"/>
      <point x="132" y="574"/>
      <point x="132" y="536" type="curve" smooth="yes"/>
      <point x="132" y="499"/>
      <point x="161" y="467"/>
      <point x="200" y="467" type="curve" smooth="yes"/>
      <point x="229" y="467"/>
      <point x="254" y="483"/>
      <point x="264" y="511" type="curve"/>
      <point x="549" y="417" type="line"/>
      <point x="235" y="379" type="line"/>
      <point x="230" y="410"/>
      <point x="203" y="435"/>
      <point x="168" y="435" type="curve" smooth="yes"/>
      <point x="129" y="435"/>
      <point x="100" y="404"/>
      <point x="100" y="367" type="curve" smooth="yes"/>
      <point x="100" y="329"/>
      <point x="130" y="299"/>
      <point x="168" y="299" type="curve" smooth="yes"/>
      <point x="203" y="299"/>
      <point x="230" y="324"/>
      <point x="235" y="355" type="curve"/>
      <point x="549" y="317" type="line"/>
      <point x="264" y="223" type="line"/>
      <point x="254" y="251"/>
      <point x="229" y="267"/>
      <point x="200" y="267" type="curve" smooth="yes"/>
      <point x="161" y="267"/>
      <point x="132" y="235"/>
      <point x="132" y="198" type="curve" smooth="yes"/>
      <point x="132" y="160"/>
      <point x="164" y="131"/>
      <point x="201" y="131" type="curve" smooth="yes"/>
      <point x="239" y="131"/>
      <point x="269" y="163"/>
      <point x="269" y="198" type="curve" smooth="yes"/>
      <point x="269" y="200" type="line"/>
      <point x="561" y="229" type="line"/>
      <point x="340" y="98" type="line"/>
      <point x="329" y="116"/>
      <point x="305" y="128"/>
      <point x="283" y="128" type="curve" smooth="yes"/>
      <point x="244" y="128"/>
      <point x="215" y="99"/>
      <point x="215" y="60" type="curve" smooth="yes"/>
      <point x="215" y="23"/>
      <point x="244" y="-8"/>
      <point x="281" y="-8" type="curve" smooth="yes"/>
      <point x="322" y="-8"/>
      <point x="351" y="21"/>
      <point x="351" y="59" type="curve" smooth="yes"/>
      <point x="351" y="67"/>
      <point x="350" y="73"/>
      <point x="349" y="77" type="curve"/>
      <point x="628" y="169" type="line"/>
      <point x="843" y="166" type="line" smooth="yes"/>
      <point x="861" y="166"/>
      <point x="875" y="184"/>
      <point x="885" y="220" type="curve" smooth="yes"/>
      <point x="895" y="256"/>
      <point x="901" y="305"/>
    </contour>
    <contour>
      <point x="811" y="199" type="curve"/>
      <point x="795" y="199" type="line"/>
      <point x="785" y="223"/>
      <point x="775" y="311"/>
      <point x="775" y="367" type="curve" smooth="yes"/>
      <point x="775" y="425"/>
      <point x="785" y="512"/>
      <point x="795" y="536" type="curve"/>
      <point x="811" y="536" type="line"/>
      <point x="799" y="501"/>
      <point x="793" y="431"/>
      <point x="793" y="367" type="curve" smooth="yes"/>
      <point x="793" y="302"/>
      <point x="799" y="235"/>
    </contour>
    <contour>
      <point x="753" y="200" type="curve"/>
      <point x="735" y="200" type="line"/>
      <point x="725" y="224"/>
      <point x="715" y="312"/>
      <point x="715" y="367" type="curve" smooth="yes"/>
      <point x="715" y="423"/>
      <point x="726" y="512"/>
      <point x="735" y="535" type="curve"/>
      <point x="753" y="535" type="line"/>
      <point x="740" y="492"/>
      <point x="733" y="423"/>
      <point x="733" y="367" type="curve" smooth="yes"/>
      <point x="733" y="297"/>
      <point x="740" y="241"/>
    </contour>
    <contour>
      <point x="693" y="201" type="curve"/>
      <point x="675" y="201" type="line"/>
      <point x="666" y="224"/>
      <point x="655" y="310"/>
      <point x="655" y="367" type="curve" smooth="yes"/>
      <point x="655" y="421"/>
      <point x="665" y="510"/>
      <point x="675" y="534" type="curve"/>
      <point x="693" y="534" type="line"/>
      <point x="679" y="493"/>
      <point x="673" y="425"/>
      <point x="673" y="367" type="curve" smooth="yes"/>
      <point x="673" y="298"/>
      <point x="680" y="242"/>
    </contour>
    <contour>
      <point x="299" y="42" type="curve" smooth="yes"/>
      <point x="299" y="28"/>
      <point x="288" y="17"/>
      <point x="274" y="17" type="curve" smooth="yes"/>
      <point x="260" y="17"/>
      <point x="249" y="28"/>
      <point x="249" y="42" type="curve" smooth="yes"/>
      <point x="249" y="56"/>
      <point x="260" y="67"/>
      <point x="274" y="67" type="curve" smooth="yes"/>
      <point x="288" y="67"/>
      <point x="299" y="56"/>
    </contour>
    <contour>
      <point x="218" y="182" type="curve" smooth="yes"/>
      <point x="218" y="168"/>
      <point x="207" y="157"/>
      <point x="193" y="157" type="curve" smooth="yes"/>
      <point x="179" y="157"/>
      <point x="168" y="168"/>
      <point x="168" y="182" type="curve" smooth="yes"/>
      <point x="168" y="196"/>
      <point x="179" y="207"/>
      <point x="193" y="207" type="curve" smooth="yes"/>
      <point x="207" y="207"/>
      <point x="218" y="196"/>
    </contour>
    <contour>
      <point x="186" y="349" type="curve" smooth="yes"/>
      <point x="186" y="335"/>
      <point x="175" y="324"/>
      <point x="161" y="324" type="curve" smooth="yes"/>
      <point x="147" y="324"/>
      <point x="136" y="335"/>
      <point x="136" y="349" type="curve" smooth="yes"/>
      <point x="136" y="363"/>
      <point x="147" y="374"/>
      <point x="161" y="374" type="curve" smooth="yes"/>
      <point x="175" y="374"/>
      <point x="186" y="363"/>
    </contour>
    <contour>
      <point x="218" y="517" type="curve" smooth="yes"/>
      <point x="218" y="503"/>
      <point x="207" y="492"/>
      <point x="193" y="492" type="curve" smooth="yes"/>
      <point x="179" y="492"/>
      <point x="168" y="503"/>
      <point x="168" y="517" type="curve" smooth="yes"/>
      <point x="168" y="531"/>
      <point x="179" y="542"/>
      <point x="193" y="542" type="curve" smooth="yes"/>
      <point x="207" y="542"/>
      <point x="218" y="531"/>
    </contour>
    <contour>
      <point x="299" y="656" type="curve" smooth="yes"/>
      <point x="299" y="642"/>
      <point x="288" y="631"/>
      <point x="274" y="631" type="curve" smooth="yes"/>
      <point x="260" y="631"/>
      <point x="249" y="642"/>
      <point x="249" y="656" type="curve" smooth="yes"/>
      <point x="249" y="670"/>
      <point x="260" y="681"/>
      <point x="274" y="681" type="curve" smooth="yes"/>
      <point x="288" y="681"/>
      <point x="299" y="670"/>
    </contour>
  </outline>
</glyph>
<glyph name="u1FA40" format="2">
  <advance width="1000"/>
  <unicode hex="1FA40"/>
  <outline>
    <contour>
      <point x="901" y="367" type="curve" smooth="yes"/>
      <point x="901" y="429"/>
      <point x="896" y="478"/>
      <point x="886" y="514" type="curve" smooth="yes"/>
      <point x="876" y="550"/>
      <point x="861" y="568"/>
      <point x="843" y="568" type="curve" smooth="yes"/>
      <point x="631" y="565" type="line"/>
      <point x="349" y="657" type="line"/>
      <point x="350" y="661"/>
      <point x="351" y="667"/>
      <point x="351" y="675" type="curve" smooth="yes"/>
      <point x="351" y="712"/>
      <point x="323" y="742"/>
      <point x="281" y="742" type="curve" smooth="yes"/>
      <point x="244" y="742"/>
      <point x="215" y="712"/>
      <point x="215" y="674" type="curve" smooth="yes"/>
      <point x="215" y="635"/>
      <point x="244" y="606"/>
      <point x="283" y="606" type="curve" smooth="yes"/>
      <point x="305" y="606"/>
      <point x="329" y="618"/>
      <point x="340" y="636" type="curve"/>
      <point x="539" y="513" type="line"/>
      <point x="269" y="534" type="line"/>
      <point x="269" y="536" type="line" smooth="yes"/>
      <point x="269" y="571"/>
      <point x="238" y="603"/>
      <point x="201" y="603" type="curve" smooth="yes"/>
      <point x="164" y="603"/>
      <point x="132" y="574"/>
      <point x="132" y="536" type="curve" smooth="yes"/>
      <point x="132" y="499"/>
      <point x="161" y="467"/>
      <point x="200" y="467" type="curve" smooth="yes"/>
      <point x="229" y="467"/>
      <point x="254" y="483"/>
      <point x="264" y="511" type="curve"/>
      <point x="518" y="421" type="line"/>
      <point x="235" y="379" type="line"/>
      <point x="230" y="410"/>
      <point x="203" y="435"/>
      <point x="168" y="435" type="curve" smooth="yes"/>
      <point x="129" y="435"/>
      <point x="100" y="404"/>
      <point x="100" y="367" type="curve" smooth="yes"/>
      <point x="100" y="329"/>
      <point x="130" y="299"/>
      <point x="168" y="299" type="curve" smooth="yes"/>
      <point x="203" y="299"/>
      <point x="230" y="324"/>
      <point x="235" y="355" type="curve"/>
      <point x="549" y="317" type="line"/>
      <point x="264" y="223" type="line"/>
      <point x="254" y="251"/>
      <point x="229" y="267"/>
      <point x="200" y="267" type="curve" smooth="yes"/>
      <point x="161" y="267"/>
      <point x="132" y="235"/>
      <point x="132" y="198" type="curve" smooth="yes"/>
      <point x="132" y="160"/>
      <point x="164" y="131"/>
      <point x="201" y="131" type="curve" smooth="yes"/>
      <point x="239" y="131"/>
      <point x="269" y="163"/>
      <point x="269" y="198" type="curve" smooth="yes"/>
      <point x="269" y="200" type="line"/>
      <point x="561" y="229" type="line"/>
      <point x="340" y="98" type="line"/>
      <point x="329" y="116"/>
      <point x="305" y="128"/>
      <point x="283" y="128" type="curve" smooth="yes"/>
      <point x="244" y="128"/>
      <point x="215" y="99"/>
      <point x="215" y="60" type="curve" smooth="yes"/>
      <point x="215" y="23"/>
      <point x="244" y="-8"/>
      <point x="281" y="-8" type="curve" smooth="yes"/>
      <point x="322" y="-8"/>
      <point x="351" y="21"/>
      <point x="351" y="59" type="curve" smooth="yes"/>
      <point x="351" y="67"/>
      <point x="350" y="73"/>
      <point x="349" y="77" type="curve"/>
      <point x="628" y="169" type="line"/>
      <point x="843" y="166" type="line" smooth="yes"/>
      <point x="861" y="166"/>
      <point x="875" y="184"/>
      <point x="885" y="220" type="curve" smooth="yes"/>
      <point x="895" y="256"/>
      <point x="901" y="305"/>
    </contour>
    <contour>
      <point x="811" y="199" type="curve"/>
      <point x="795" y="199" type="line"/>
      <point x="785" y="223"/>
      <point x="775" y="311"/>
      <point x="775" y="367" type="curve"/>
      <point x="793" y="367" type="line"/>
      <point x="793" y="302"/>
      <point x="799" y="235"/>
    </contour>
    <contour>
      <point x="753" y="200" type="curve"/>
      <point x="735" y="200" type="line"/>
      <point x="725" y="224"/>
      <point x="715" y="312"/>
      <point x="715" y="367" type="curve"/>
      <point x="733" y="367" type="line"/>
      <point x="733" y="297"/>
      <point x="740" y="241"/>
    </contour>
    <contour>
      <point x="872" y="367" type="curve"/>
      <point x="810" y="367" type="line"/>
      <point x="810" y="416"/>
      <point x="813" y="454"/>
      <point x="818" y="482" type="curve" smooth="yes"/>
      <point x="823" y="509"/>
      <point x="832" y="523"/>
      <point x="841" y="523" type="curve" smooth="yes"/>
      <point x="862" y="523"/>
      <point x="872" y="471"/>
    </contour>
    <contour>
      <point x="693" y="201" type="curve"/>
      <point x="675" y="201" type="line"/>
      <point x="666" y="224"/>
      <point x="655" y="310"/>
      <point x="655" y="367" type="curve"/>
      <point x="673" y="367" type="line"/>
      <point x="673" y="298"/>
      <point x="680" y="242"/>
    </contour>
    <contour>
      <point x="799" y="521" type="line"/>
      <point x="787" y="485"/>
      <point x="781" y="434"/>
      <point x="781" y="367" type="curve"/>
      <point x="748" y="367" type="line"/>
      <point x="748" y="424"/>
      <point x="757" y="488"/>
      <point x="768" y="521" type="curve"/>
    </contour>
    <contour>
      <point x="741" y="520" type="line"/>
      <point x="728" y="481"/>
      <point x="721" y="430"/>
      <point x="721" y="367" type="curve"/>
      <point x="688" y="367" type="line"/>
      <point x="688" y="419"/>
      <point x="697" y="487"/>
      <point x="708" y="520" type="curve"/>
    </contour>
    <contour>
      <point x="299" y="42" type="curve" smooth="yes"/>
      <point x="299" y="28"/>
      <point x="288" y="17"/>
      <point x="274" y="17" type="curve" smooth="yes"/>
      <point x="260" y="17"/>
      <point x="249" y="28"/>
      <point x="249" y="42" type="curve" smooth="yes"/>
      <point x="249" y="56"/>
      <point x="260" y="67"/>
      <point x="274" y="67" type="curve" smooth="yes"/>
      <point x="288" y="67"/>
      <point x="299" y="56"/>
    </contour>
    <contour>
      <point x="681" y="519" type="line"/>
      <point x="668" y="480"/>
      <point x="661" y="429"/>
      <point x="661" y="367" type="curve"/>
      <point x="628" y="367" type="line"/>
      <point x="628" y="422"/>
      <point x="638" y="487"/>
      <point x="648" y="519" type="curve"/>
    </contour>
    <contour>
      <point x="601" y="400" type="line"/>
      <point x="600" y="389"/>
      <point x="600" y="378"/>
      <point x="600" y="367" type="curve"/>
      <point x="319" y="367" type="line"/>
    </contour>
    <contour>
      <point x="608" y="474" type="line"/>
      <point x="606" y="461"/>
      <point x="604" y="447"/>
      <point x="603" y="431" type="curve"/>
      <point x="372" y="501" type="line"/>
    </contour>
    <contour>
      <point x="218" y="182" type="curve" smooth="yes"/>
      <point x="218" y="168"/>
      <point x="207" y="157"/>
      <point x="193" y="157" type="curve" smooth="yes"/>
      <point x="179" y="157"/>
      <point x="168" y="168"/>
      <point x="168" y="182" type="curve" smooth="yes"/>
      <point x="168" y="196"/>
      <point x="179" y="207"/>
      <point x="193" y="207" type="curve" smooth="yes"/>
      <point x="207" y="207"/>
      <point x="218" y="196"/>
    </contour>
    <contour>
      <point x="622" y="539" type="line"/>
      <point x="613" y="503" type="line"/>
      <point x="446" y="599" type="line"/>
    </contour>
    <contour>
      <point x="205" y="368" type="curve"/>
      <point x="132" y="366" type="line"/>
      <point x="132" y="387"/>
      <point x="147" y="403"/>
      <point x="167" y="403" type="curve" smooth="yes"/>
      <point x="189" y="403"/>
      <point x="205" y="387"/>
    </contour>
    <contour>
      <point x="238" y="534" type="curve" smooth="yes"/>
      <point x="238" y="513"/>
      <point x="222" y="498"/>
      <point x="202" y="498" type="curve" smooth="yes"/>
      <point x="181" y="498"/>
      <point x="165" y="511"/>
      <point x="165" y="536" type="curve" smooth="yes"/>
      <point x="165" y="555"/>
      <point x="180" y="571"/>
      <point x="200" y="571" type="curve" smooth="yes"/>
      <point x="222" y="571"/>
      <point x="238" y="557"/>
    </contour>
    <contour>
      <point x="320" y="674" type="curve" smooth="yes"/>
      <point x="320" y="653"/>
      <point x="304" y="638"/>
      <point x="284" y="638" type="curve" smooth="yes"/>
      <point x="263" y="638"/>
      <point x="247" y="652"/>
      <point x="247" y="676" type="curve" smooth="yes"/>
      <point x="247" y="695"/>
      <point x="262" y="711"/>
      <point x="282" y="711" type="curve" smooth="yes"/>
      <point x="304" y="711"/>
      <point x="320" y="696"/>
    </contour>
  </outline>
</glyph>
